SplineFontDB: 3.0
FontName: Nobile-MediumItalic
FullName: Nobile Medium Italic
FamilyName: Nobile
Weight: Medium
Copyright: Copyright (c) 2010 by vernon adams. All rights reserved.
Version: 1.000;PS 001.000;hotconv 1.0.38
ItalicAngle: -12
UnderlinePosition: -292
UnderlineWidth: 40
Ascent: 1638
Descent: 410
sfntRevision: 0x00010000
LayerCount: 2
Layer: 0 1 "Back"  1
Layer: 1 1 "Fore"  0
XUID: [1021 332 469972825 8414443]
FSType: 0
OS2Version: 2
OS2_WeightWidthSlopeOnly: 0
OS2_UseTypoMetrics: 1
CreationTime: 1291285095
ModificationTime: 1291305015
PfmFamily: 17
TTFWeight: 500
TTFWidth: 5
LineGap: 67
VLineGap: 0
Panose: 2 0 3 3 0 0 0 0 0 0
OS2TypoAscent: 15
OS2TypoAOffset: 1
OS2TypoDescent: -92
OS2TypoDOffset: 1
OS2TypoLinegap: 133
OS2WinAscent: -564
OS2WinAOffset: 1
OS2WinDescent: -219
OS2WinDOffset: 1
HheadAscent: -564
HheadAOffset: 1
HheadDescent: 219
HheadDOffset: 1
OS2SubXSize: 1331
OS2SubYSize: 1433
OS2SubXOff: 0
OS2SubYOff: 286
OS2SupXSize: 1331
OS2SupYSize: 1433
OS2SupXOff: 0
OS2SupYOff: 983
OS2StrikeYSize: 102
OS2StrikeYPos: 512
OS2Vendor: 'pyrs'
OS2CodePages: 00000007.00000000
OS2UnicodeRanges: 80000267.0000000a.00000000.00000000
Lookup: 4 0 1 "'liga' Standard Ligatures in Latin lookup 0"  {"'liga' Standard Ligatures in Latin lookup 0 subtable"  } ['liga' ('latn' <'dflt' > ) ]
Lookup: 258 0 0 "'kern' Horizontal Kerning in Latin lookup 0"  {"'kern' Horizontal Kerning in Latin lookup 0 subtable"  } ['kern' ('latn' <'dflt' > ) ]
MarkAttachClasses: 1
DEI: 91125
TtTable: prep
PUSHW_1
 511
SCANCTRL
PUSHB_1
 1
SCANTYPE
SVTCA[y-axis]
MPPEM
PUSHB_1
 8
LT
IF
PUSHB_2
 1
 1
INSTCTRL
EIF
PUSHB_2
 70
 6
CALL
IF
POP
PUSHB_1
 16
EIF
MPPEM
PUSHB_1
 20
GT
IF
POP
PUSHB_1
 128
EIF
SCVTCI
PUSHB_1
 6
CALL
NOT
IF
SVTCA[y-axis]
PUSHB_1
 5
DUP
RCVT
PUSHB_1
 3
CALL
WCVTP
PUSHB_1
 8
DUP
RCVT
PUSHB_3
 5
 105
 2
CALL
PUSHB_1
 3
CALL
WCVTP
PUSHB_1
 7
DUP
RCVT
PUSHB_3
 8
 56
 2
CALL
PUSHB_1
 3
CALL
WCVTP
PUSHB_1
 6
DUP
RCVT
PUSHB_3
 7
 19
 2
CALL
PUSHB_1
 3
CALL
WCVTP
PUSHB_1
 9
DUP
RCVT

StartChar: .notdef
Encoding: 65536 -1 0
Width: 751
Flags: W
HStem: 0 82<175 546> 1292 82<344 716>
VStem: 73 553<0 553> 265 553<821 1374>
DStem2: 73 0 175 82 0.138393 0.990377<95.3271 1317.07> 546 82 626 0 0.138393 0.990377<0 1221.88>
LayerCount: 2
Fore
SplineSet
73 0 m 1,0,-1
 265 1374 l 1,1,-1
 818 1374 l 1,2,-1
 626 0 l 1,3,-1
 73 0 l 1,0,-1
175 82 m 1,4,-1
 546 82 l 1,5,-1
 716 1292 l 1,6,-1
 344 1292 l 1,7,-1
 175 82 l 1,4,-1
EndSplineSet
EndChar

StartChar: exclam
Encoding: 33 33 4
Width: 611
Flags: W
HStem: 0 326<130 384> 1564 20G<307.448 587>
VStem: 84 300<0 300> 130 299<27 326>
LayerCount: 2
Fore
SplineSet
587 1584 m 1,0,-1
 343 437 l 1,1,-1
 220 437 l 1,2,-1
 309 1584 l 1,3,-1
 587 1584 l 1,0,-1
384 0 m 1,4,-1
 84 0 l 1,5,-1
 130 326 l 1,6,-1
 429 326 l 1,7,-1
 384 0 l 1,4,-1
EndSplineSet
EndChar

StartChar: quotedbl
Encoding: 34 34 5
Width: 826
Flags: W
HStem: 994 591<194 308 311 321>
VStem: 320 114<994 1054.95> 437 121<994 1054.52>
LayerCount: 2
Fore
SplineSet
447 1585 m 1,0,-1
 698 1585 l 1,1,-1
 558 994 l 1,2,-1
 437 994 l 1,3,-1
 447 1585 l 1,0,-1
313 1585 m 1,4,-1
 573 1585 l 1,5,-1
 434 994 l 1,6,-1
 320 994 l 1,7,-1
 313 1585 l 1,4,-1
EndSplineSet
EndChar

StartChar: numbersign
Encoding: 35 35 6
Width: 1185
Flags: W
HStem: 460 107<155 311 477 691 855 1016> 882 106<251 412 578 790 957 1104> 1312 20G<896 1045>
VStem: 227 143<118 261> 524 142<1192 1334> 606 144<118 262> 901 144<1188 1332>
DStem2: 227 118 370 118 0.237269 0.971444<33.9294 352.164 495.496 786.078 928.438 1251.74> 606 118 750 118 0.207912 0.978148<29.9393 352.199 490.958 490.958>
LayerCount: 2
Fore
SplineSet
691 460 m 1,0,-1
 455 460 l 1,1,-1
 370 118 l 1,2,-1
 227 118 l 1,3,-1
 311 460 l 1,4,-1
 137 460 l 1,5,-1
 155 567 l 1,6,-1
 333 567 l 1,7,-1
 412 882 l 1,8,-1
 231 882 l 1,9,-1
 251 988 l 1,10,-1
 436 988 l 1,11,-1
 524 1334 l 1,12,-1
 666 1334 l 1,13,-1
 578 988 l 1,14,-1
 815 988 l 1,15,-1
 901 1332 l 1,16,-1
 1045 1332 l 1,17,-1
 957 988 l 1,18,-1
 1126 988 l 1,19,-1
 1104 882 l 1,20,-1
 935 882 l 1,21,-1
 855 567 l 1,22,-1
 1033 567 l 1,23,-1
 1016 460 l 1,24,-1
 832 460 l 1,25,-1
 750 118 l 1,26,-1
 606 118 l 1,27,-1
 691 460 l 1,0,-1
477 567 m 1,28,-1
 710 567 l 1,29,-1
 790 882 l 1,30,-1
 558 882 l 1,31,-1
 477 567 l 1,28,-1
EndSplineSet
EndChar

StartChar: dollar
Encoding: 36 36 7
Width: 1173
Flags: W
HStem: -31 170<265.649 421 546 758.531> 1140 21G<996 1019.52> 1215 162<434.511 633 750 918.291>
VStem: 174 182<915.414 1143.88> 396 94<-179 -85> 688 89<1440 1529> 848 183<220.765 503.675>
DStem2: 396 -179 490 -179 0.168515 0.985699<15.8404 150.096 335.772 809.887 1012.38 1414 1592.42 1732.78> 566 819 440 678.5 0.920094 -0.391697<-229.816 0 135.74 381.355>
LayerCount: 2
Fore
SplineSet
1031 376 m 0,0,1
 1031 273 1031 273 989.5 196 c 128,-1,2
 948 119 948 119 877.5 67.5 c 128,-1,3
 807 16 807 16 713 -10 c 128,-1,4
 619 -36 619 -36 514 -36 c 1,5,-1
 490 -179 l 1,6,-1
 396 -179 l 1,7,-1
 421 -31 l 1,8,9
 330 -24 330 -24 247.5 4 c 128,-1,10
 165 32 165 32 96 67 c 1,11,-1
 165 232 l 2,12,13
 165 231 165 231 193 216.5 c 128,-1,14
 221 202 221 202 263 184.5 c 128,-1,15
 305 167 305 167 354.5 153 c 128,-1,16
 404 139 404 139 448 139 c 1,17,-1
 537 633 l 1,18,19
 482 659 482 659 440 678.5 c 128,-1,20
 398 698 398 698 386 705 c 0,21,22
 339 732 339 732 300 762 c 128,-1,23
 261 792 261 792 233 829 c 128,-1,24
 205 866 205 866 189.5 911.5 c 128,-1,25
 174 957 174 957 174 1016 c 0,26,27
 174 1081 174 1081 194.5 1132.5 c 128,-1,28
 215 1184 215 1184 250 1224 c 128,-1,29
 285 1264 285 1264 332.5 1292.5 c 128,-1,30
 380 1321 380 1321 434.5 1339.5 c 128,-1,31
 489 1358 489 1358 547 1367 c 128,-1,32
 605 1376 605 1376 662 1377 c 1,33,-1
 688 1529 l 1,34,-1
 777 1529 l 1,35,-1
 750 1376 l 1,36,37
 808 1376 808 1376 865.5 1363 c 128,-1,38
 923 1350 923 1350 969.5 1334.5 c 128,-1,39
 1016 1319 1016 1319 1045.5 1306.5 c 128,-1,40
 1075 1294 1075 1294 1077 1295 c 1,41,-1
 1011 1140 l 1,42,43
 981 1150 981 1150 942.5 1162.5 c 128,-1,44
 904 1175 904 1175 864 1186 c 128,-1,45
 824 1197 824 1197 786.5 1204.5 c 128,-1,46
 749 1212 749 1212 722 1212 c 1,47,-1
 651 789 l 1,48,49
 669 781 669 781 694 770.5 c 128,-1,50
 719 760 719 760 740 750 c 0,51,52
 815 715 815 715 870 680.5 c 128,-1,53
 925 646 925 646 961 604 c 128,-1,54
 997 562 997 562 1014 507 c 128,-1,55
 1031 452 1031 452 1031 376 c 0,0,1
633 1215 m 1,56,57
 573 1213 573 1213 522 1202.5 c 128,-1,58
 471 1192 471 1192 434 1170 c 128,-1,59
 397 1148 397 1148 376.5 1114 c 128,-1,60
 356 1080 356 1080 356 1031 c 0,61,62
 356 992 356 992 368 959.5 c 128,-1,63
 380 927 380 927 424 897 c 1,64,65
 443 881 443 881 481.5 860 c 128,-1,66
 520 839 520 839 566 819 c 1,67,-1
 633 1215 l 1,56,57
546 136 m 1,68,69
 617 137 617 137 673 149.5 c 128,-1,70
 729 162 729 162 768 189 c 128,-1,71
 807 216 807 216 827.5 258 c 128,-1,72
 848 300 848 300 848 360 c 0,73,74
 848 403 848 403 839 438 c 128,-1,75
 830 473 830 473 805 502 c 128,-1,76
 780 531 780 531 736 556 c 128,-1,77
 692 581 692 581 622 604 c 1,78,-1
 546 136 l 1,68,69
EndSplineSet
EndChar

StartChar: percent
Encoding: 37 37 8
Width: 1799
Flags: W
HStem: -23 135<1136.61 1356.9> 687 128<1205.42 1430.09> 753 129<379.933 598.725> 1460 126<449.775 667.499>
VStem: 200 143<928.419 1322.67> 707 141<1022.1 1419.83> 955 146<146.645 550.088> 1464 135<246.923 638.007>
DStem2: 401 -41 517 -96 0.45366 0.891175<3.61001 1919.94>
LayerCount: 2
Fore
SplineSet
1237 112 m 0,0,1
 1288 112 1288 112 1324.5 133 c 128,-1,2
 1361 154 1361 154 1386 188 c 128,-1,3
 1411 222 1411 222 1426.5 265.5 c 128,-1,4
 1442 309 1442 309 1450.5 353 c 128,-1,5
 1459 397 1459 397 1461.5 438.5 c 128,-1,6
 1464 480 1464 480 1464 511 c 0,7,8
 1464 592 1464 592 1432 639.5 c 128,-1,9
 1400 687 1400 687 1320 687 c 0,10,11
 1275 687 1275 687 1241 668 c 128,-1,12
 1207 649 1207 649 1182.5 617.5 c 128,-1,13
 1158 586 1158 586 1142.5 545 c 128,-1,14
 1127 504 1127 504 1117.5 460 c 128,-1,15
 1108 416 1108 416 1104.5 372.5 c 128,-1,16
 1101 329 1101 329 1101 293 c 0,17,18
 1101 112 1101 112 1237 112 c 0,0,1
707 1261 m 256,19,20
 707 1298 707 1298 701.5 1333.5 c 128,-1,21
 696 1369 696 1369 680 1397 c 128,-1,22
 664 1425 664 1425 636 1442.5 c 128,-1,23
 608 1460 608 1460 563 1460 c 0,24,25
 498 1460 498 1460 456 1421.5 c 128,-1,26
 414 1383 414 1383 388.5 1324.5 c 128,-1,27
 363 1266 363 1266 353 1197.5 c 128,-1,28
 343 1129 343 1129 343 1069 c 0,29,30
 343 972 343 972 379 927 c 128,-1,31
 415 882 415 882 485 882 c 0,32,33
 528 882 528 882 561 900 c 128,-1,34
 594 918 594 918 618.5 947.5 c 128,-1,35
 643 977 643 977 660 1016 c 128,-1,36
 677 1055 677 1055 687.5 1097.5 c 128,-1,37
 698 1140 698 1140 702.5 1182 c 128,-1,38
 707 1224 707 1224 707 1261 c 256,19,20
401 -41 m 1,39,-1
 1272 1670 l 1,40,-1
 1392 1612 l 1,41,-1
 517 -96 l 1,42,-1
 401 -41 l 1,39,-1
1599 508 m 0,43,44
 1599 449 1599 449 1589.5 386.5 c 128,-1,45
 1580 324 1580 324 1561 265 c 128,-1,46
 1542 206 1542 206 1513 153.5 c 128,-1,47
 1484 101 1484 101 1444 62 c 128,-1,48
 1404 23 1404 23 1353.5 0 c 128,-1,49
 1303 -23 1303 -23 1241 -23 c 0,50,51
 1160 -23 1160 -23 1105 3 c 128,-1,52
 1050 29 1050 29 1017 72 c 128,-1,53
 984 115 984 115 969.5 171.5 c 128,-1,54
 955 228 955 228 955 288 c 0,55,56
 955 322 955 322 960.5 374.5 c 128,-1,57
 966 427 966 427 980.5 486 c 128,-1,58
 995 545 995 545 1021.5 603.5 c 128,-1,59
 1048 662 1048 662 1089.5 709 c 128,-1,60
 1131 756 1131 756 1190 785.5 c 128,-1,61
 1249 815 1249 815 1330 815 c 0,62,63
 1406 815 1406 815 1457.5 790 c 128,-1,64
 1509 765 1509 765 1540.5 723 c 128,-1,65
 1572 681 1572 681 1585.5 625 c 128,-1,66
 1599 569 1599 569 1599 508 c 0,43,44
848 1278 m 0,67,68
 848 1236 848 1236 841.5 1181 c 128,-1,69
 835 1126 835 1126 818.5 1067.5 c 128,-1,70
 802 1009 802 1009 774 952.5 c 128,-1,71
 746 896 746 896 704 851.5 c 128,-1,72
 662 807 662 807 604 780 c 128,-1,73
 546 753 546 753 469 753 c 0,74,75
 391 753 391 753 339 781.5 c 128,-1,76
 287 810 287 810 256.5 855.5 c 128,-1,77
 226 901 226 901 213 957.5 c 128,-1,78
 200 1014 200 1014 200 1071 c 0,79,80
 200 1127 200 1127 208.5 1186.5 c 128,-1,81
 217 1246 217 1246 236 1303.5 c 128,-1,82
 255 1361 255 1361 284.5 1412 c 128,-1,83
 314 1463 314 1463 355 1502 c 128,-1,84
 396 1541 396 1541 450 1563.5 c 128,-1,85
 504 1586 504 1586 571 1586 c 0,86,87
 648 1586 648 1586 701 1561 c 128,-1,88
 754 1536 754 1536 786.5 1494 c 128,-1,89
 819 1452 819 1452 833.5 1396 c 128,-1,90
 848 1340 848 1340 848 1278 c 0,67,68
EndSplineSet
EndChar

StartChar: ampersand
Encoding: 38 38 9
Width: 1572
Flags: W
HStem: -39 161<415.804 916.448> -18 21G<1317.45 1354.87> 1334 157<589.175 896.714>
VStem: 109 189<228.54 537.008> 336 184<1012.33 1267.54> 944 174<1038.98 1290.43>
DStem2: 624 942 453 894.5 0.695802 -0.718234<-193.313 -4.58017 216.549 734.894 935.282 1173.83> 1207 595.5 1351.5 514 0.330274 0.943885<-198.318 204.393>
LayerCount: 2
Fore
SplineSet
663 902 m 1,0,1
 677 907 677 907 690 911 c 128,-1,2
 703 915 703 915 717 920 c 0,3,4
 762 938 762 938 803.5 960 c 128,-1,5
 845 982 845 982 876.5 1012.5 c 128,-1,6
 908 1043 908 1043 926.5 1084.5 c 128,-1,7
 945 1126 945 1126 944 1184 c 1,8,9
 944 1257 944 1257 894.5 1295.5 c 128,-1,10
 845 1334 845 1334 754 1334 c 0,11,12
 676 1334 676 1334 629.5 1313 c 128,-1,13
 583 1292 583 1292 559 1261 c 128,-1,14
 535 1230 535 1230 527.5 1196 c 128,-1,15
 520 1162 520 1162 520 1136 c 0,16,17
 520 1097 520 1097 536.5 1061.5 c 128,-1,18
 553 1026 553 1026 576.5 996 c 128,-1,19
 600 966 600 966 624 942 c 128,-1,20
 648 918 648 918 663 902 c 1,0,1
1118 1209 m 0,21,22
 1118 1134 1118 1134 1094 1067.5 c 128,-1,23
 1070 1001 1070 1001 1024.5 946.5 c 128,-1,24
 979 892 979 892 914 849.5 c 128,-1,25
 849 807 849 807 768 780 c 1,26,-1
 1130 409 l 1,27,28
 1172 501 1172 501 1207 595.5 c 128,-1,29
 1242 690 1242 690 1270 790 c 1,30,-1
 1436 789 l 1,31,32
 1421 721 1421 721 1399 650.5 c 128,-1,33
 1377 580 1377 580 1351.5 514 c 128,-1,34
 1326 448 1326 448 1299.5 390.5 c 128,-1,35
 1273 333 1273 333 1249 291 c 1,36,-1
 1446 104 l 1,37,-1
 1337 -18 l 1,38,-1
 1162 161 l 1,39,40
 1131 118 1131 118 1088 81.5 c 128,-1,41
 1045 45 1045 45 981 18 c 128,-1,42
 917 -9 917 -9 828 -24 c 128,-1,43
 739 -39 739 -39 616 -39 c 0,44,45
 505 -39 505 -39 412.5 -15.5 c 128,-1,46
 320 8 320 8 253 54.5 c 128,-1,47
 186 101 186 101 148 169.5 c 128,-1,48
 110 238 110 238 109 327 c 0,49,50
 108 413 108 413 134.5 491.5 c 128,-1,51
 161 570 161 570 212.5 636 c 128,-1,52
 264 702 264 702 338.5 753.5 c 128,-1,53
 413 805 413 805 508 836 c 1,54,55
 483 862 483 862 453 894.5 c 128,-1,56
 423 927 423 927 397 965.5 c 128,-1,57
 371 1004 371 1004 353.5 1047.5 c 128,-1,58
 336 1091 336 1091 336 1139 c 0,59,60
 335 1194 335 1194 357 1256 c 128,-1,61
 379 1318 379 1318 430.5 1370 c 128,-1,62
 482 1422 482 1422 565.5 1456.5 c 128,-1,63
 649 1491 649 1491 770 1491 c 0,64,65
 852 1491 852 1491 917 1470.5 c 128,-1,66
 982 1450 982 1450 1026.5 1413 c 128,-1,67
 1071 1376 1071 1376 1094.5 1324 c 128,-1,68
 1118 1272 1118 1272 1118 1209 c 0,21,22
607 717 m 1,69,70
 537 701 537 701 480 669 c 128,-1,71
 423 637 423 637 382.5 592 c 128,-1,72
 342 547 342 547 320 490.5 c 128,-1,73
 298 434 298 434 298 370 c 0,74,75
 298 307 298 307 322 260 c 128,-1,76
 346 213 346 213 390 182.5 c 128,-1,77
 434 152 434 152 496.5 137 c 128,-1,78
 559 122 559 122 637 122 c 0,79,80
 720 122 720 122 782 130 c 128,-1,81
 844 138 844 138 891.5 156 c 128,-1,82
 939 174 939 174 976 203 c 128,-1,83
 1013 232 1013 232 1045 273 c 1,84,-1
 607 717 l 1,69,70
EndSplineSet
EndChar

StartChar: quotesingle
Encoding: 39 39 10
Width: 566
Flags: W
HStem: 973 607<275 364>
VStem: 275 89<973 1020.29>
LayerCount: 2
Fore
SplineSet
275 1580 m 1,0,-1
 548 1580 l 1,1,-1
 364 973 l 1,2,-1
 275 973 l 1,3,-1
 275 1580 l 1,0,-1
EndSplineSet
EndChar

StartChar: parenleft
Encoding: 40 40 11
Width: 793
Flags: W
VStem: 246 203<142.174 852.176>
LayerCount: 2
Fore
SplineSet
854 1499 m 1,0,1
 784 1434 784 1434 712 1339 c 128,-1,2
 640 1244 640 1244 581.5 1116.5 c 128,-1,3
 523 989 523 989 486 828.5 c 128,-1,4
 449 668 449 668 449 473 c 0,5,6
 449 356 449 356 465 264.5 c 128,-1,7
 481 173 481 173 507 103 c 128,-1,8
 533 33 533 33 565.5 -18 c 128,-1,9
 598 -69 598 -69 630 -104 c 1,10,-1
 511 -229 l 1,11,12
 440 -174 440 -174 390 -92 c 128,-1,13
 340 -10 340 -10 308 85.5 c 128,-1,14
 276 181 276 181 261 281.5 c 128,-1,15
 246 382 246 382 246 473 c 0,16,17
 246 638 246 638 279 800.5 c 128,-1,18
 312 963 312 963 378 1113 c 128,-1,19
 444 1263 444 1263 542.5 1394 c 128,-1,20
 641 1525 641 1525 771 1626 c 1,21,-1
 854 1499 l 1,0,1
EndSplineSet
EndChar

StartChar: parenright
Encoding: 41 41 12
Width: 798
Flags: W
VStem: 475 203<545.832 1245.53>
LayerCount: 2
Fore
SplineSet
71 -104 m 1,0,1
 174 -9 174 -9 250 110.5 c 128,-1,2
 326 230 326 230 376 363.5 c 128,-1,3
 426 497 426 497 450.5 638.5 c 128,-1,4
 475 780 475 780 475 920 c 0,5,6
 475 1046 475 1046 455.5 1142.5 c 128,-1,7
 436 1239 436 1239 408 1309.5 c 128,-1,8
 380 1380 380 1380 349 1426.5 c 128,-1,9
 318 1473 318 1473 296 1499 c 1,10,-1
 414 1626 l 1,11,12
 484 1566 484 1566 534.5 1486.5 c 128,-1,13
 585 1407 585 1407 616.5 1315.5 c 128,-1,14
 648 1224 648 1224 663 1124 c 128,-1,15
 678 1024 678 1024 678 922 c 0,16,17
 678 755 678 755 643.5 591 c 128,-1,18
 609 427 609 427 542.5 277.5 c 128,-1,19
 476 128 476 128 378.5 -1.5 c 128,-1,20
 281 -131 281 -131 154 -229 c 1,21,-1
 71 -104 l 1,0,1
EndSplineSet
EndChar

StartChar: asterisk
Encoding: 42 42 13
Width: 912
Flags: W
HStem: 1131 123<165 428 639 906> 1573 17G<429.899 473.541 715.063 758.725>
DStem2: 235 872 341 803 0.564438 0.825476<2.87256 301.591> 467 1590 339 1521 0.3451 -0.938566<20.5883 279.682>
LayerCount: 2
Fore
SplineSet
554 1324 m 1,0,-1
 728 1593 l 1,1,-1
 834 1524 l 1,2,-1
 639 1254 l 1,3,-1
 925 1254 l 1,4,-1
 906 1131 l 1,5,-1
 626 1131 l 1,6,-1
 737 872 l 1,7,-1
 603 803 l 1,8,-1
 509 1050 l 1,9,-1
 341 803 l 1,10,-1
 235 872 l 1,11,-1
 428 1138 l 1,12,-1
 146 1138 l 1,13,-1
 165 1263 l 1,14,-1
 446 1263 l 1,15,-1
 339 1521 l 1,16,-1
 467 1590 l 1,17,-1
 554 1324 l 1,0,-1
EndSplineSet
EndChar

StartChar: plus
Encoding: 43 43 14
Width: 1005
Flags: W
HStem: 506 163<213 474 661 923>
VStem: 425 167<170 337> 545 163<842 1005>
DStem2: 425 170 592 170 0.142251 0.989831<23.7559 339.553 527.497 843.579>
LayerCount: 2
Fore
SplineSet
923 506 m 1,0,-1
 638 506 l 1,1,-1
 592 170 l 1,2,-1
 425 170 l 1,3,-1
 474 506 l 1,4,-1
 190 506 l 1,5,-1
 213 669 l 1,6,-1
 496 669 l 1,7,-1
 545 1005 l 1,8,-1
 708 1005 l 1,9,-1
 661 669 l 1,10,-1
 946 669 l 1,11,-1
 923 506 l 1,0,-1
EndSplineSet
EndChar

StartChar: comma
Encoding: 44 44 15
Width: 613
Flags: W
HStem: -276 100<125.405 163.438>
VStem: 144 298<28 326>
LayerCount: 2
Fore
SplineSet
98 0 m 1,0,-1
 144 326 l 1,1,-1
 442 326 l 1,2,-1
 398 2 l 1,3,4
 392 -61 392 -61 369 -107 c 128,-1,5
 346 -153 346 -153 311 -185.5 c 128,-1,6
 276 -218 276 -218 230 -239.5 c 128,-1,7
 184 -261 184 -261 132 -276 c 1,8,-1
 86 -176 l 1,9,10
 144 -156 144 -156 185 -111 c 128,-1,11
 226 -66 226 -66 235 0 c 1,12,-1
 98 0 l 1,0,-1
EndSplineSet
EndChar

StartChar: hyphen
Encoding: 45 45 16
Width: 874
Flags: W
HStem: 533 154<204 794>
VStem: 182 633
LayerCount: 2
Fore
SplineSet
794 533 m 1,0,-1
 182 533 l 1,1,-1
 204 687 l 1,2,-1
 815 687 l 1,3,-1
 794 533 l 1,0,-1
EndSplineSet
EndChar

StartChar: period
Encoding: 46 46 17
Width: 552
Flags: W
HStem: 0 326<144 398>
VStem: 98 300<0 300> 144 298<28 326>
LayerCount: 2
Fore
SplineSet
398 0 m 1,0,-1
 98 0 l 1,1,-1
 144 326 l 1,2,-1
 442 326 l 1,3,-1
 398 0 l 1,0,-1
EndSplineSet
EndChar

StartChar: slash
Encoding: 47 47 18
Width: 977
Flags: W
DStem2: 86 -90 240 -169 0.420282 0.907393<0 2006.86>
LayerCount: 2
Fore
SplineSet
86 -90 m 1,0,-1
 923 1734 l 1,1,-1
 1089 1664 l 1,2,-1
 240 -169 l 1,3,-1
 86 -90 l 1,0,-1
EndSplineSet
EndChar

StartChar: zero
Encoding: 48 48 19
Width: 1292
Flags: W
HStem: -30 169<500.428 828.408> 1046 169<605.215 946.958>
VStem: 179 203<265.791 765.321> 1059 206<428.169 924.229>
LayerCount: 2
Fore
SplineSet
658 139 m 0,0,1
 730 139 730 139 787.5 163 c 128,-1,2
 845 187 845 187 890 228 c 128,-1,3
 935 269 935 269 966.5 324 c 128,-1,4
 998 379 998 379 1019 441.5 c 128,-1,5
 1040 504 1040 504 1049.5 570.5 c 128,-1,6
 1059 637 1059 637 1059 701 c 0,7,8
 1059 879 1059 879 989 962.5 c 128,-1,9
 919 1046 919 1046 780 1046 c 0,10,11
 676 1046 676 1046 602 1000 c 128,-1,12
 528 954 528 954 480 878 c 128,-1,13
 432 802 432 802 408.5 705 c 128,-1,14
 385 608 385 608 382 505 c 1,15,16
 378 439 378 439 389 373.5 c 128,-1,17
 400 308 400 308 431.5 256 c 128,-1,18
 463 204 463 204 518.5 171.5 c 128,-1,19
 574 139 574 139 658 139 c 0,0,1
802 1215 m 0,20,21
 927 1215 927 1215 1015 1175 c 128,-1,22
 1103 1135 1103 1135 1158.5 1067 c 128,-1,23
 1214 999 1214 999 1239.5 910 c 128,-1,24
 1265 821 1265 821 1265 722 c 0,25,26
 1265 632 1265 632 1248.5 541.5 c 128,-1,27
 1232 451 1232 451 1198.5 367.5 c 128,-1,28
 1165 284 1165 284 1113.5 211.5 c 128,-1,29
 1062 139 1062 139 992 85.5 c 128,-1,30
 922 32 922 32 833.5 1 c 128,-1,31
 745 -30 745 -30 637 -30 c 0,32,33
 507 -30 507 -30 419 14 c 128,-1,34
 331 58 331 58 278 131.5 c 128,-1,35
 225 205 225 205 202 301 c 128,-1,36
 179 397 179 397 179 501 c 0,37,38
 179 588 179 588 196.5 675 c 128,-1,39
 214 762 214 762 248.5 841.5 c 128,-1,40
 283 921 283 921 334.5 989 c 128,-1,41
 386 1057 386 1057 455.5 1107.5 c 128,-1,42
 525 1158 525 1158 611.5 1186.5 c 128,-1,43
 698 1215 698 1215 802 1215 c 0,20,21
EndSplineSet
EndChar

StartChar: one
Encoding: 49 49 20
Width: 690
Flags: W
HStem: 0 21G<309 509.818>
VStem: 309 198<0 198>
DStem2: 309 0 507 0 0.139538 0.990217<27.6286 1021.06>
LayerCount: 2
Fore
SplineSet
309 0 m 1,0,-1
 452 1011 l 1,1,-1
 248 944 l 1,2,-1
 214 1091 l 1,3,-1
 473 1178 l 1,4,-1
 673 1178 l 1,5,-1
 507 0 l 1,6,-1
 309 0 l 1,0,-1
EndSplineSet
EndChar

StartChar: two
Encoding: 50 50 21
Width: 1010
Flags: W
HStem: 0 178<401 848> 1034 168<386.705 752.832>
VStem: 805 196<747.296 982.7>
DStem2: 328 1140.5 358.5 979.5 0.946559 0.322531<-77.2414 211.567> 467 436 401 178 0.775989 0.630746<-213.948 416.731>
LayerCount: 2
Fore
SplineSet
805 869 m 0,0,1
 805 916 805 916 787.5 947.5 c 128,-1,2
 770 979 770 979 740.5 998.5 c 128,-1,3
 711 1018 711 1018 671.5 1026 c 128,-1,4
 632 1034 632 1034 589 1034 c 1,5,6
 551 1033 551 1033 511 1024.5 c 128,-1,7
 471 1016 471 1016 432 1004 c 128,-1,8
 393 992 393 992 358.5 979.5 c 128,-1,9
 324 967 324 967 297 958 c 1,10,-1
 256 1109 l 1,11,12
 287 1124 287 1124 328 1140.5 c 128,-1,13
 369 1157 369 1157 418 1170.5 c 128,-1,14
 467 1184 467 1184 521.5 1193 c 128,-1,15
 576 1202 576 1202 635 1202 c 0,16,17
 718 1202 718 1202 785.5 1181 c 128,-1,18
 853 1160 853 1160 901 1120 c 128,-1,19
 949 1080 949 1080 975 1021 c 128,-1,20
 1001 962 1001 962 1001 886 c 0,21,22
 1001 760 1001 760 927 642 c 128,-1,23
 853 524 853 524 695 402 c 1,24,-1
 401 178 l 1,25,-1
 872 178 l 1,26,-1
 848 0 l 1,27,-1
 102 0 l 1,28,-1
 123 160 l 1,29,-1
 467 436 l 2,30,31
 537 492 537 492 598.5 546.5 c 128,-1,32
 660 601 660 601 706 655 c 128,-1,33
 752 709 752 709 778.5 762 c 128,-1,34
 805 815 805 815 805 869 c 0,0,1
EndSplineSet
EndChar

StartChar: three
Encoding: 51 51 22
Width: 958
Flags: W
HStem: -194 175<153.813 580.808> 1034 174<300.819 693.844>
VStem: 684 199<80.3457 369.714> 748 189<735.36 991.79>
LayerCount: 2
Fore
SplineSet
433 630 m 1,0,1
 527 630 527 630 588 653.5 c 128,-1,2
 649 677 649 677 684.5 713 c 128,-1,3
 720 749 720 749 734 793 c 128,-1,4
 748 837 748 837 748 878 c 0,5,6
 748 962 748 962 695.5 998 c 128,-1,7
 643 1034 643 1034 528 1034 c 0,8,9
 493 1034 493 1034 454.5 1028 c 128,-1,10
 416 1022 416 1022 378.5 1012.5 c 128,-1,11
 341 1003 341 1003 306 991 c 128,-1,12
 271 979 271 979 244 968 c 1,13,-1
 203 1124 l 1,14,15
 228 1136 228 1136 265.5 1150.5 c 128,-1,16
 303 1165 303 1165 347 1178 c 128,-1,17
 391 1191 391 1191 440 1199.5 c 128,-1,18
 489 1208 489 1208 536 1208 c 0,19,20
 612 1208 612 1208 684 1192 c 128,-1,21
 756 1176 756 1176 812.5 1140 c 128,-1,22
 869 1104 869 1104 903 1046.5 c 128,-1,23
 937 989 937 989 937 907 c 0,24,25
 937 815 937 815 907 748 c 128,-1,26
 877 681 877 681 832 637 c 128,-1,27
 787 593 787 593 735 571.5 c 128,-1,28
 683 550 683 550 640 548 c 1,29,30
 680 539 680 539 723 517.5 c 128,-1,31
 766 496 766 496 801.5 460 c 128,-1,32
 837 424 837 424 860 371.5 c 128,-1,33
 883 319 883 319 883 249 c 0,34,35
 883 151 883 151 845 70 c 128,-1,36
 807 -11 807 -11 739.5 -70 c 128,-1,37
 672 -129 672 -129 580.5 -161.5 c 128,-1,38
 489 -194 489 -194 381 -194 c 0,39,40
 278 -194 278 -194 189 -168.5 c 128,-1,41
 100 -143 100 -143 28 -104 c 1,42,-1
 93 48 l 1,43,44
 108 42 108 42 139 31 c 128,-1,45
 170 20 170 20 211 8.5 c 128,-1,46
 252 -3 252 -3 301 -11 c 128,-1,47
 350 -19 350 -19 403 -19 c 0,48,49
 484 -19 484 -19 538 3.5 c 128,-1,50
 592 26 592 26 624.5 62 c 128,-1,51
 657 98 657 98 670.5 142 c 128,-1,52
 684 186 684 186 684 230 c 0,53,54
 684 336 684 336 617.5 392.5 c 128,-1,55
 551 449 551 449 411 462 c 1,56,-1
 433 630 l 1,0,1
EndSplineSet
EndChar

StartChar: four
Encoding: 52 52 23
Width: 1078
Flags: W
HStem: 79 159<292 681 887 1030>
DStem2: 93 243 292 238 0.60871 0.793393<117.166 977.963> 633 -252 821 -230 0.138551 0.990355<47.8354 334.458 522.447 522.447>
LayerCount: 2
Fore
SplineSet
828 1201 m 1,0,-1
 1017 1171 l 1,1,-1
 887 240 l 1,2,-1
 1054 240 l 1,3,-1
 1030 79 l 1,4,-1
 863 79 l 1,5,-1
 821 -230 l 1,6,-1
 633 -252 l 1,7,-1
 681 79 l 1,8,-1
 93 79 l 1,9,-1
 93 243 l 1,10,-1
 828 1201 l 1,0,-1
292 238 m 1,11,-1
 703 238 l 1,12,-1
 812 924 l 1,13,-1
 292 238 l 1,11,-1
EndSplineSet
EndChar

StartChar: five
Encoding: 53 53 24
Width: 1044
Flags: W
HStem: -201 175<201.677 656.865> 530 173<452.571 745.833> 1004 173<469 1005>
VStem: 817 179<129.955 461.746>
LayerCount: 2
Fore
SplineSet
996 332 m 0,0,1
 996 213 996 213 955.5 114.5 c 128,-1,2
 915 16 915 16 842.5 -54 c 128,-1,3
 770 -124 770 -124 669 -162.5 c 128,-1,4
 568 -201 568 -201 448 -201 c 0,5,6
 358 -201 358 -201 268.5 -180 c 128,-1,7
 179 -159 179 -159 109 -123 c 1,8,-1
 142 45 l 1,9,10
 148 41 148 41 174.5 29.5 c 128,-1,11
 201 18 201 18 243.5 5.5 c 128,-1,12
 286 -7 286 -7 342 -16.5 c 128,-1,13
 398 -26 398 -26 464 -26 c 0,14,15
 539 -26 539 -26 604 -4.5 c 128,-1,16
 669 17 669 17 716 59.5 c 128,-1,17
 763 102 763 102 790 166 c 128,-1,18
 817 230 817 230 817 316 c 0,19,20
 817 530 817 530 583 530 c 0,21,22
 547 530 547 530 509 524 c 128,-1,23
 471 518 471 518 436 508.5 c 128,-1,24
 401 499 401 499 370.5 488 c 128,-1,25
 340 477 340 477 318 467 c 1,26,-1
 219 558 l 1,27,-1
 330 1177 l 1,28,-1
 1028 1177 l 1,29,-1
 1005 1004 l 1,30,-1
 469 1004 l 1,31,-1
 395 631 l 1,32,33
 405 637 405 637 424 646 c 128,-1,34
 443 655 443 655 468 664 c 128,-1,35
 493 673 493 673 521 681 c 128,-1,36
 549 689 549 689 577 694 c 0,37,38
 604 699 604 699 629.5 701.5 c 128,-1,39
 655 704 655 704 676 703 c 0,40,41
 834 695 834 695 915 597.5 c 128,-1,42
 996 500 996 500 996 332 c 0,0,1
EndSplineSet
EndChar

StartChar: six
Encoding: 54 54 25
Width: 1188
Flags: W
HStem: -156 171<474.15 782.518> 647 157<566.407 871.382> 1149 173<890.166 1001.07>
VStem: 195 192<107.04 536.323> 948 194<202.408 569.505>
LayerCount: 2
Fore
SplineSet
421 533 m 1,0,1
 416 519 416 519 412 503.5 c 128,-1,2
 408 488 408 488 404 470 c 0,3,4
 397 439 397 439 392 395 c 128,-1,5
 387 351 387 351 387 294 c 0,6,7
 387 15 387 15 625 15 c 0,8,9
 710 15 710 15 771.5 52 c 128,-1,10
 833 89 833 89 872 147 c 128,-1,11
 911 205 911 205 929.5 275.5 c 128,-1,12
 948 346 948 346 948 414 c 0,13,14
 948 471 948 471 932 515 c 128,-1,15
 916 559 916 559 887.5 588 c 128,-1,16
 859 617 859 617 819.5 632 c 128,-1,17
 780 647 780 647 734 647 c 0,18,19
 662 647 662 647 604.5 629 c 128,-1,20
 547 611 547 611 505 590 c 1,21,22
 457 564 457 564 421 533 c 1,0,1
1142 419 m 0,23,24
 1142 353 1142 353 1127.5 284.5 c 128,-1,25
 1113 216 1113 216 1084 152 c 128,-1,26
 1055 88 1055 88 1010.5 32 c 128,-1,27
 966 -24 966 -24 906 -66 c 128,-1,28
 846 -108 846 -108 770.5 -132 c 128,-1,29
 695 -156 695 -156 604 -156 c 0,30,31
 502 -156 502 -156 425 -120.5 c 128,-1,32
 348 -85 348 -85 297 -20 c 128,-1,33
 246 45 246 45 220.5 136.5 c 128,-1,34
 195 228 195 228 195 340 c 0,35,36
 195 455 195 455 224.5 564 c 128,-1,37
 254 673 254 673 307 771.5 c 128,-1,38
 360 870 360 870 433.5 956.5 c 128,-1,39
 507 1043 507 1043 596.5 1113.5 c 128,-1,40
 686 1184 686 1184 788 1237 c 128,-1,41
 890 1290 890 1290 999 1322 c 1,42,-1
 1024 1149 l 1,43,44
 950 1133 950 1133 867 1094.5 c 128,-1,45
 784 1056 784 1056 707 997 c 128,-1,46
 630 938 630 938 566 859.5 c 128,-1,47
 502 781 502 781 466 685 c 1,48,49
 518 740 518 740 593.5 772 c 128,-1,50
 669 804 669 804 763 804 c 0,51,52
 854 804 854 804 924.5 775.5 c 128,-1,53
 995 747 995 747 1043.5 696 c 128,-1,54
 1092 645 1092 645 1117 574 c 128,-1,55
 1142 503 1142 503 1142 419 c 0,23,24
EndSplineSet
EndChar

StartChar: seven
Encoding: 55 55 26
Width: 912
Flags: W
HStem: 999 176<177 780>
LayerCount: 2
Fore
SplineSet
968 1175 m 1,0,-1
 1008 1037 l 1,1,-1
 281 -232 l 1,2,-1
 109 -142 l 1,3,-1
 780 999 l 1,4,-1
 165 999 l 1,5,-1
 177 1175 l 1,6,-1
 968 1175 l 1,0,-1
EndSplineSet
EndChar

StartChar: eight
Encoding: 56 56 27
Width: 1153
Flags: W
HStem: -147 174<411.419 780.843> 1172 159<570.206 908.204>
VStem: 153 205<79.7266 382.737> 278 188<762.082 1068.64> 888 198<134.416 470.812> 963 190<826.57 1117.29>
LayerCount: 2
Fore
SplineSet
744 1172 m 0,0,1
 660 1172 660 1172 606 1147 c 128,-1,2
 552 1122 552 1122 521 1082.5 c 128,-1,3
 490 1043 490 1043 478 994 c 128,-1,4
 466 945 466 945 466 897 c 0,5,6
 466 799 466 799 520 753 c 128,-1,7
 574 707 574 707 683 695 c 1,8,9
 759 704 759 704 812 729 c 128,-1,10
 865 754 865 754 898.5 793 c 128,-1,11
 932 832 932 832 947.5 883.5 c 128,-1,12
 963 935 963 935 963 997 c 0,13,14
 962 1172 962 1172 744 1172 c 0,0,1
662 562 m 1,15,16
 597 553 597 553 549 532 c 128,-1,17
 501 511 501 511 467 481.5 c 128,-1,18
 433 452 433 452 412 416.5 c 128,-1,19
 391 381 391 381 379 344.5 c 128,-1,20
 367 308 367 308 362.5 272 c 128,-1,21
 358 236 358 236 358 206 c 0,22,23
 358 110 358 110 415 68.5 c 128,-1,24
 472 27 472 27 586 27 c 0,25,26
 650 27 650 27 705.5 40 c 128,-1,27
 761 53 761 53 801.5 86 c 128,-1,28
 842 119 842 119 865 175.5 c 128,-1,29
 888 232 888 232 888 319 c 0,30,31
 887 425 887 425 830.5 487 c 128,-1,32
 774 549 774 549 662 562 c 1,15,16
278 901 m 0,33,34
 277 986 277 986 307.5 1064 c 128,-1,35
 338 1142 338 1142 398.5 1201 c 128,-1,36
 459 1260 459 1260 550 1295.5 c 128,-1,37
 641 1331 641 1331 761 1331 c 0,38,39
 848 1331 848 1331 920 1310.5 c 128,-1,40
 992 1290 992 1290 1043.5 1250 c 128,-1,41
 1095 1210 1095 1210 1123.5 1152 c 128,-1,42
 1152 1094 1152 1094 1153 1018 c 0,43,44
 1153 955 1153 955 1138.5 904 c 128,-1,45
 1124 853 1124 853 1100.5 812 c 128,-1,46
 1077 771 1077 771 1046.5 740 c 128,-1,47
 1016 709 1016 709 984 686.5 c 128,-1,48
 952 664 952 664 921 649.5 c 128,-1,49
 890 635 890 635 866 628 c 1,50,51
 872 626 872 626 891 619 c 128,-1,52
 910 612 910 612 934.5 597 c 128,-1,53
 959 582 959 582 985.5 558.5 c 128,-1,54
 1012 535 1012 535 1034.5 500.5 c 128,-1,55
 1057 466 1057 466 1071.5 419.5 c 128,-1,56
 1086 373 1086 373 1086 313 c 0,57,58
 1087 206 1087 206 1049 121 c 128,-1,59
 1011 36 1011 36 942 -23.5 c 128,-1,60
 873 -83 873 -83 777 -115 c 128,-1,61
 681 -147 681 -147 567 -147 c 0,62,63
 484 -147 484 -147 409 -128 c 128,-1,64
 334 -109 334 -109 277.5 -69.5 c 128,-1,65
 221 -30 221 -30 187.5 31.5 c 128,-1,66
 154 93 154 93 153 177 c 0,67,68
 152 260 152 260 177 332.5 c 128,-1,69
 202 405 202 405 245.5 463 c 128,-1,70
 289 521 289 521 348 563 c 128,-1,71
 407 605 407 605 474 628 c 1,72,73
 441 640 441 640 406.5 661 c 128,-1,74
 372 682 372 682 343.5 714.5 c 128,-1,75
 315 747 315 747 296.5 793 c 128,-1,76
 278 839 278 839 278 901 c 0,33,34
EndSplineSet
EndChar

StartChar: nine
Encoding: 57 57 28
Width: 1143
Flags: W
HStem: -267 174<317.858 433.562> 251 159<446.896 750.944> 1040 170<537.009 843.819>
VStem: 176 195<486.137 851.177> 932 197<518.41 946.082>
LayerCount: 2
Fore
SplineSet
897 518 m 1,0,1
 901 531 901 531 907.5 558.5 c 128,-1,2
 914 586 914 586 920 619.5 c 128,-1,3
 926 653 926 653 929.5 690 c 128,-1,4
 933 727 933 727 932 759 c 0,5,6
 930 1040 930 1040 694 1040 c 0,7,8
 609 1040 609 1040 548 1002.5 c 128,-1,9
 487 965 487 965 447.5 907 c 128,-1,10
 408 849 408 849 389.5 778 c 128,-1,11
 371 707 371 707 371 641 c 0,12,13
 371 584 371 584 386.5 541 c 128,-1,14
 402 498 402 498 430 469.5 c 128,-1,15
 458 441 458 441 495.5 426 c 128,-1,16
 533 411 533 411 578 410 c 0,17,18
 602 409 602 409 627.5 412 c 128,-1,19
 653 415 653 415 677 420 c 0,20,21
 757 437 757 437 815.5 466 c 128,-1,22
 874 495 874 495 897 518 c 1,0,1
176 632 m 0,23,24
 176 696 176 696 190 763.5 c 128,-1,25
 204 831 204 831 232 895 c 128,-1,26
 260 959 260 959 304 1016.5 c 128,-1,27
 348 1074 348 1074 407 1117 c 128,-1,28
 466 1160 466 1160 542 1185 c 128,-1,29
 618 1210 618 1210 711 1210 c 0,30,31
 813 1210 813 1210 890.5 1180 c 128,-1,32
 968 1150 968 1150 1020.5 1093 c 128,-1,33
 1073 1036 1073 1036 1100.5 954 c 128,-1,34
 1128 872 1128 872 1129 768 c 0,35,36
 1130 644 1130 644 1105 527 c 128,-1,37
 1080 410 1080 410 1031.5 304 c 128,-1,38
 983 198 983 198 913 106 c 128,-1,39
 843 14 843 14 752.5 -60 c 128,-1,40
 662 -134 662 -134 553.5 -187 c 128,-1,41
 445 -240 445 -240 320 -267 c 1,42,-1
 294 -93 l 1,43,44
 371 -76 371 -76 454 -41 c 128,-1,45
 537 -6 537 -6 613 50 c 128,-1,46
 689 106 689 106 752 184.5 c 128,-1,47
 815 263 815 263 852 367 c 1,48,49
 733 251 733 251 561 251 c 0,50,51
 472 251 472 251 400.5 278 c 128,-1,52
 329 305 329 305 279 355 c 128,-1,53
 229 405 229 405 202.5 475.5 c 128,-1,54
 176 546 176 546 176 632 c 0,23,24
EndSplineSet
EndChar

StartChar: colon
Encoding: 58 58 29
Width: 734
Flags: W
HStem: 0 305<204 447> 644 304<293 536>
VStem: 157 290<0 290> 204 289<16 305> 246 290<644 934> 293 290<658 948>
DStem2: 157 0 447 0 0.142006 0.989866<41.1818 308.583 691.294 957.706>
LayerCount: 2
Fore
SplineSet
246 644 m 1,0,-1
 293 948 l 1,1,-1
 583 948 l 1,2,-1
 536 644 l 1,3,-1
 246 644 l 1,0,-1
157 0 m 1,4,-1
 204 305 l 1,5,-1
 493 305 l 1,6,-1
 447 0 l 1,7,-1
 157 0 l 1,4,-1
EndSplineSet
EndChar

StartChar: semicolon
Encoding: 59 59 30
Width: 759
Flags: W
HStem: 644 304<296 540>
VStem: 223 297<29 326> 250 290<644 934> 296 290<658 948>
DStem2: 178 0 477 16 0.123519 0.992342<18.1852 329.062 683.782 955.316>
LayerCount: 2
Fore
SplineSet
178 0 m 1,0,-1
 223 326 l 1,1,-1
 520 326 l 1,2,-1
 477 16 l 1,3,4
 471 -51 471 -51 445.5 -100 c 128,-1,5
 420 -149 420 -149 383 -184 c 128,-1,6
 346 -219 346 -219 301 -241 c 128,-1,7
 256 -263 256 -263 211 -276 c 1,8,-1
 166 -176 l 1,9,10
 224 -156 224 -156 264.5 -111 c 128,-1,11
 305 -66 305 -66 315 0 c 1,12,-1
 178 0 l 1,0,-1
250 644 m 1,13,-1
 296 948 l 1,14,-1
 586 948 l 1,15,-1
 540 644 l 1,16,-1
 250 644 l 1,13,-1
EndSplineSet
EndChar

StartChar: less
Encoding: 60 60 31
Width: 1004
Flags: W
DStem2: 412 580 219 477 0.801215 -0.598376<0 486.216> 247 676 412 580 0.851265 0.524735<90.0842 638.481>
LayerCount: 2
Fore
SplineSet
883 861 m 1,0,-1
 412 580 l 1,1,-1
 806 295 l 1,2,-1
 772 64 l 1,3,-1
 219 477 l 1,4,-1
 247 676 l 1,5,-1
 917 1089 l 1,6,-1
 883 861 l 1,0,-1
EndSplineSet
EndChar

StartChar: equal
Encoding: 61 61 32
Width: 970
Flags: W
HStem: 362 248<212 788> 448 76<200 799>
VStem: 177 645
LayerCount: 2
Fore
SplineSet
799 448 m 1,0,-1
 189 448 l 1,1,-1
 212 610 l 1,2,-1
 822 610 l 1,3,-1
 799 448 l 1,0,-1
788 362 m 1,4,-1
 177 362 l 1,5,-1
 200 524 l 1,6,-1
 810 524 l 1,7,-1
 788 362 l 1,4,-1
EndSplineSet
EndChar

StartChar: greater
Encoding: 62 62 33
Width: 950
Flags: W
DStem2: 208 308 174 69 0.851615 0.524168<0 525.866> 316 1089 286 856 0.801733 -0.597682<115.208 573.019>
LayerCount: 2
Fore
SplineSet
286 856 m 1,0,-1
 316 1089 l 1,1,-1
 870 676 l 1,2,-1
 845 482 l 1,3,-1
 174 69 l 1,4,-1
 208 308 l 1,5,-1
 655 585 l 1,6,-1
 286 856 l 1,0,-1
EndSplineSet
EndChar

StartChar: question
Encoding: 63 63 34
Width: 1059
Flags: W
HStem: 0 326<209 463> 1362 181<375.767 793.187>
VStem: 164 299<0 299> 209 299<27 326> 274 190<447 533.528> 840 204<1050.49 1316.16>
LayerCount: 2
Fore
SplineSet
840 1202 m 0,0,1
 840 1289 840 1289 783 1325.5 c 128,-1,2
 726 1362 726 1362 605 1362 c 0,3,4
 566 1362 566 1362 526 1355.5 c 128,-1,5
 486 1349 486 1349 446.5 1338.5 c 128,-1,6
 407 1328 407 1328 369 1315 c 128,-1,7
 331 1302 331 1302 297 1289 c 1,8,-1
 249 1454 l 1,9,10
 286 1470 286 1470 331 1486 c 128,-1,11
 376 1502 376 1502 426 1514.5 c 128,-1,12
 476 1527 476 1527 530.5 1535 c 128,-1,13
 585 1543 585 1543 641 1543 c 0,14,15
 750 1543 750 1543 827 1519.5 c 128,-1,16
 904 1496 904 1496 952 1454.5 c 128,-1,17
 1000 1413 1000 1413 1022 1355.5 c 128,-1,18
 1044 1298 1044 1298 1044 1231 c 0,19,20
 1044 1143 1044 1143 1015 1067.5 c 128,-1,21
 986 992 986 992 938.5 929 c 128,-1,22
 891 866 891 866 831 815.5 c 128,-1,23
 771 765 771 765 709.5 726 c 128,-1,24
 648 687 648 687 591 659.5 c 128,-1,25
 534 632 534 632 492 616 c 1,26,-1
 464 447 l 1,27,-1
 274 447 l 1,28,-1
 306 715 l 1,29,-1
 340 731 l 2,30,31
 356 739 356 739 378 749 c 128,-1,32
 400 759 400 759 426 772 c 0,33,34
 489 802 489 802 561.5 843 c 128,-1,35
 634 884 634 884 696 937 c 128,-1,36
 758 990 758 990 799 1056 c 128,-1,37
 840 1122 840 1122 840 1202 c 0,0,1
463 0 m 1,38,-1
 164 0 l 1,39,-1
 209 326 l 1,40,-1
 508 326 l 1,41,-1
 463 0 l 1,38,-1
EndSplineSet
EndChar

StartChar: at
Encoding: 64 64 35
Width: 1913
Flags: W
HStem: -109 155<660.898 1181.96> 225 148<740.105 1013.51 1285 1438.39> 1016 134<1096.31 1282.53> 1331 157<873.915 1374.12>
VStem: 205 173<304.276 791.426> 538 161<415.81 751.027> 1624 172<617.601 1098.19>
DStem2: 1039.59 -109 1199.25 -109 0.207912 0.978148<653.397 1131.46>
LayerCount: 2
Fore
SplineSet
1096 1009 m 1,0,1
 1046 1006 1046 1006 999 989 c 128,-1,2
 952 972 952 972 909 944.5 c 128,-1,3
 866 917 866 917 830 879.5 c 128,-1,4
 794 842 794 842 767 798 c 1,5,6
 735 741 735 741 717 680 c 128,-1,7
 699 619 699 619 699 550 c 0,8,9
 700 456 700 456 741 414.5 c 128,-1,10
 782 373 782 373 863 373 c 0,11,12
 938 373 938 373 997 405 c 128,-1,13
 1056 437 1056 437 1102 497 c 0,14,15
 1142 548 1142 548 1173.5 615.5 c 128,-1,16
 1205 683 1205 683 1226 768 c 2,17,-1
 1283 996 l 1,18,19
 1268 999 1268 999 1247.5 1002.5 c 128,-1,20
 1227 1006 1227 1006 1204.5 1009 c 128,-1,21
 1182 1012 1182 1012 1159.5 1014 c 128,-1,22
 1137 1016 1137 1016 1119 1016 c 0,23,24
 1106 1016 1106 1016 1096 1009 c 1,0,1
1279 230 m 0,25,26
 1222 230 1222 230 1197 256.5 c 128,-1,27
 1172 283 1172 283 1172 337 c 0,28,29
 1172 349 1172 349 1175 369 c 128,-1,30
 1178 389 1178 389 1183.5 413 c 128,-1,31
 1189 437 1189 437 1195.5 464 c 128,-1,32
 1202 491 1202 491 1209 518 c 1,33,34
 1188 464 1188 464 1157 411.5 c 128,-1,35
 1126 359 1126 359 1080.5 317.5 c 128,-1,36
 1035 276 1035 276 973 250.5 c 128,-1,37
 911 225 911 225 827 225 c 0,38,39
 760 225 760 225 707 246 c 128,-1,40
 654 267 654 267 617 307 c 128,-1,41
 580 347 580 347 559.5 404.5 c 128,-1,42
 539 462 539 462 538 536 c 0,43,44
 537 624 537 624 561.5 703.5 c 128,-1,45
 586 783 586 783 629 851 c 128,-1,46
 672 919 672 919 730.5 975 c 128,-1,47
 789 1031 789 1031 856 1071 c 0,48,49
 919 1109 919 1109 987 1129.5 c 128,-1,50
 1055 1150 1055 1150 1124 1150 c 0,51,52
 1142 1150 1142 1150 1169.5 1146.5 c 128,-1,53
 1197 1143 1197 1143 1228.5 1137 c 128,-1,54
 1260 1131 1260 1131 1291.5 1123.5 c 128,-1,55
 1323 1116 1323 1116 1348.5 1107.5 c 128,-1,56
 1374 1099 1374 1099 1390 1090.5 c 128,-1,57
 1406 1082 1406 1082 1406 1075 c 0,58,59
 1406 1073 1406 1073 1410 1059.5 c 128,-1,60
 1414 1046 1414 1046 1419 1030 c 128,-1,61
 1424 1014 1424 1014 1428 1000.5 c 128,-1,62
 1432 987 1432 987 1432 986 c 2,63,-1
 1285 367 l 1,64,65
 1349 371 1349 371 1399.5 395.5 c 128,-1,66
 1450 420 1450 420 1487.5 459.5 c 128,-1,67
 1525 499 1525 499 1551 550 c 128,-1,68
 1577 601 1577 601 1593.5 657.5 c 128,-1,69
 1610 714 1610 714 1617 772.5 c 128,-1,70
 1624 831 1624 831 1624 886 c 0,71,72
 1623 998 1623 998 1587.5 1082 c 128,-1,73
 1552 1166 1552 1166 1486 1221 c 128,-1,74
 1420 1276 1420 1276 1325 1303.5 c 128,-1,75
 1230 1331 1230 1331 1110 1331 c 0,76,77
 1009 1331 1009 1331 918.5 1302.5 c 128,-1,78
 828 1274 828 1274 750.5 1223.5 c 128,-1,79
 673 1173 673 1173 609.5 1104.5 c 128,-1,80
 546 1036 546 1036 498 955 c 0,81,82
 438 855 438 855 407.5 743 c 128,-1,83
 377 631 377 631 378 513 c 0,84,85
 379 402 379 402 416.5 315.5 c 128,-1,86
 454 229 454 229 524.5 169 c 128,-1,87
 595 109 595 109 697 77.5 c 128,-1,88
 799 46 799 46 929 46 c 0,89,90
 1011 46 1011 46 1078 58.5 c 128,-1,91
 1145 71 1145 71 1197.5 90.5 c 128,-1,92
 1250 110 1250 110 1289.5 133 c 128,-1,93
 1329 156 1329 156 1356 177 c 1,94,95
 1357 171 1357 171 1365.5 154 c 128,-1,96
 1374 137 1374 137 1383.5 118.5 c 128,-1,97
 1393 100 1393 100 1401.5 83.5 c 128,-1,98
 1410 67 1410 67 1411 61 c 1,99,100
 1382 36 1382 36 1335 6 c 128,-1,101
 1288 -24 1288 -24 1223.5 -49.5 c 128,-1,102
 1159 -75 1159 -75 1077 -92 c 128,-1,103
 995 -109 995 -109 895 -109 c 0,104,105
 740 -109 740 -109 613.5 -67.5 c 128,-1,106
 487 -26 487 -26 396.5 52 c 128,-1,107
 306 130 306 130 256 242.5 c 128,-1,108
 206 355 206 355 205 496 c 0,109,110
 204 619 204 619 235 740.5 c 128,-1,111
 266 862 266 862 324 972 c 128,-1,112
 382 1082 382 1082 465 1176.5 c 128,-1,113
 548 1271 548 1271 650 1339 c 0,114,115
 758 1411 758 1411 877.5 1449.5 c 128,-1,116
 997 1488 997 1488 1131 1488 c 0,117,118
 1269 1488 1269 1488 1390 1451 c 128,-1,119
 1511 1414 1511 1414 1601 1340.5 c 128,-1,120
 1691 1267 1691 1267 1743 1156 c 128,-1,121
 1795 1045 1795 1045 1796 897 c 0,122,123
 1797 817 1797 817 1782.5 736.5 c 128,-1,124
 1768 656 1768 656 1738 582 c 128,-1,125
 1708 508 1708 508 1664 444 c 128,-1,126
 1620 380 1620 380 1562.5 332.5 c 128,-1,127
 1505 285 1505 285 1434 257.5 c 128,-1,128
 1363 230 1363 230 1279 230 c 0,25,26
EndSplineSet
EndChar

StartChar: A
Encoding: 65 65 36
Width: 1317
Flags: W
HStem: 0 21G<26 253.044 1071.16 1289> 387 116<469 1000> 1566 20G<747.782 1048.08>
VStem: 1074 215<0 215>
DStem2: 26 0 244 0 0.418586 0.908177<91.2518 515.969 642.247 1630.39> 1045 1586 877 1403 0.152057 -0.988372<155.326 1063.56 1181.1 1571.97>
LayerCount: 2
Fore
SplineSet
877 1403 m 1,0,-1
 714 1041 l 1,1,-1
 469 503 l 1,2,-1
 1000 503 l 1,3,-1
 925 1032 l 1,4,-1
 877 1403 l 1,0,-1
757 1586 m 1,5,-1
 1045 1586 l 1,6,-1
 1289 0 l 1,7,-1
 1074 0 l 1,8,-1
 1019 387 l 1,9,-1
 419 387 l 1,10,-1
 244 0 l 1,11,-1
 26 0 l 1,12,-1
 757 1586 l 1,5,-1
EndSplineSet
EndChar

StartChar: B
Encoding: 66 66 37
Width: 1279
Flags: W
HStem: 0 166<364 870.109> 772 153<471 941.472> 1420 166<541 1001.21>
VStem: 1061 206<331.625 675.389> 1102 191<1054.67 1338.44>
DStem2: 126 0 364 166 0.14046 0.990086<197.784 809.856 964.289 1464.21>
LayerCount: 2
Fore
SplineSet
672 925 m 2,0,1
 781 925 781 925 861.5 941 c 128,-1,2
 942 957 942 957 995.5 993 c 128,-1,3
 1049 1029 1049 1029 1075.5 1088 c 128,-1,4
 1102 1147 1102 1147 1102 1234 c 0,5,6
 1102 1289 1102 1289 1071 1325 c 128,-1,7
 1040 1361 1040 1361 985.5 1382 c 128,-1,8
 931 1403 931 1403 856.5 1411.5 c 128,-1,9
 782 1420 782 1420 696 1420 c 2,10,-1
 541 1420 l 1,11,-1
 471 925 l 1,12,-1
 672 925 l 2,0,1
562 166 m 2,13,14
 679 166 679 166 771.5 182.5 c 128,-1,15
 864 199 864 199 928.5 239.5 c 128,-1,16
 993 280 993 280 1027 349.5 c 128,-1,17
 1061 419 1061 419 1061 524 c 0,18,19
 1061 573 1061 573 1048.5 618 c 128,-1,20
 1036 663 1036 663 995 697.5 c 128,-1,21
 954 732 954 732 876 752 c 128,-1,22
 798 772 798 772 667 772 c 2,23,-1
 450 772 l 1,24,-1
 364 166 l 1,25,-1
 562 166 l 2,13,14
1267 525 m 0,26,27
 1267 404 1267 404 1223.5 307 c 128,-1,28
 1180 210 1180 210 1090 141.5 c 128,-1,29
 1000 73 1000 73 861.5 36.5 c 128,-1,30
 723 0 723 0 533 0 c 2,31,-1
 126 0 l 1,32,-1
 351 1586 l 1,33,-1
 697 1586 l 2,34,35
 860 1586 860 1586 973.5 1566 c 128,-1,36
 1087 1546 1087 1546 1158 1505 c 128,-1,37
 1229 1464 1229 1464 1261 1402.5 c 128,-1,38
 1293 1341 1293 1341 1293 1258 c 0,39,40
 1293 1169 1293 1169 1272 1103 c 128,-1,41
 1251 1037 1251 1037 1207.5 990 c 128,-1,42
 1164 943 1164 943 1098 912.5 c 128,-1,43
 1032 882 1032 882 943 864 c 1,44,45
 1105 841 1105 841 1186.5 757.5 c 128,-1,46
 1268 674 1268 674 1267 525 c 0,26,27
EndSplineSet
EndChar

StartChar: C
Encoding: 67 67 38
Width: 1190
Flags: W
HStem: -40 182<573.871 961.266> 1432 183<767.911 1191.6>
VStem: 197 222<309.194 927.08>
DStem2: 1118 250 1053.5 37 0.909279 0.416187<-355.25 -36.7692> 1153.5 1591.5 1119.5 1410 0.947341 -0.320228<-127.941 197.787>
LayerCount: 2
Fore
SplineSet
197 541 m 0,0,1
 197 679 197 679 218.5 812.5 c 128,-1,2
 240 946 240 946 282.5 1065.5 c 128,-1,3
 325 1185 325 1185 388.5 1285.5 c 128,-1,4
 452 1386 452 1386 536 1459.5 c 128,-1,5
 620 1533 620 1533 725 1574 c 128,-1,6
 830 1615 830 1615 955 1615 c 0,7,8
 1009 1615 1009 1615 1057.5 1609 c 128,-1,9
 1106 1603 1106 1603 1153.5 1591.5 c 128,-1,10
 1201 1580 1201 1580 1250.5 1564 c 128,-1,11
 1300 1548 1300 1548 1357 1528 c 1,12,-1
 1282 1354 l 1,13,14
 1196 1388 1196 1388 1119.5 1410 c 128,-1,15
 1043 1432 1043 1432 962 1432 c 0,16,17
 868 1432 868 1432 791 1398.5 c 128,-1,18
 714 1365 714 1365 653.5 1305 c 128,-1,19
 593 1245 593 1245 549 1162.5 c 128,-1,20
 505 1080 505 1080 476 983 c 128,-1,21
 447 886 447 886 433 777.5 c 128,-1,22
 419 669 419 669 419 557 c 0,23,24
 419 345 419 345 503 243.5 c 128,-1,25
 587 142 587 142 752 142 c 0,26,27
 790 142 790 142 834 151 c 128,-1,28
 878 160 878 160 925.5 175 c 128,-1,29
 973 190 973 190 1021.5 209.5 c 128,-1,30
 1070 229 1070 229 1118 250 c 1,31,-1
 1154 83 l 1,32,33
 1104 59 1104 59 1053.5 37 c 128,-1,34
 1003 15 1003 15 950 -2.5 c 128,-1,35
 897 -20 897 -20 840 -30 c 128,-1,36
 783 -40 783 -40 721 -40 c 0,37,38
 467 -40 467 -40 332 106.5 c 128,-1,39
 197 253 197 253 197 541 c 0,0,1
EndSplineSet
EndChar

StartChar: D
Encoding: 68 68 39
Width: 1371
Flags: W
HStem: 0 165<364 861.292> 1420 166<544 1020.43>
VStem: 1172 219<613.868 1253.3>
DStem2: 126 0 364 165 0.14046 0.990086<196.794 1464.63> 1135 638 1333.5 565.5 0.193894 0.981022<-264.436 353.012>
LayerCount: 2
Fore
SplineSet
1172 993 m 0,0,1
 1172 1213 1172 1213 1090 1316.5 c 128,-1,2
 1008 1420 1008 1420 836 1420 c 2,3,-1
 544 1420 l 1,4,-1
 364 165 l 1,5,-1
 671 165 l 2,6,7
 775 165 775 165 852.5 204.5 c 128,-1,8
 930 244 930 244 985.5 309.5 c 128,-1,9
 1041 375 1041 375 1077.5 460.5 c 128,-1,10
 1114 546 1114 546 1135 638 c 128,-1,11
 1156 730 1156 730 1164 822 c 128,-1,12
 1172 914 1172 914 1172 993 c 0,0,1
1391 994 m 0,13,14
 1391 898 1391 898 1378 787 c 128,-1,15
 1365 676 1365 676 1333.5 565.5 c 128,-1,16
 1302 455 1302 455 1248 353 c 128,-1,17
 1194 251 1194 251 1112 172.5 c 128,-1,18
 1030 94 1030 94 916.5 47 c 128,-1,19
 803 0 803 0 653 0 c 2,20,-1
 126 0 l 1,21,-1
 351 1586 l 1,22,-1
 857 1586 l 2,23,24
 986 1586 986 1586 1085.5 1550.5 c 128,-1,25
 1185 1515 1185 1515 1253 1442.5 c 128,-1,26
 1321 1370 1321 1370 1356 1258.5 c 128,-1,27
 1391 1147 1391 1147 1391 994 c 0,13,14
EndSplineSet
EndChar

StartChar: E
Encoding: 69 69 40
Width: 1109
Flags: W
HStem: 0 165<362 1053> 764 143<468 1062> 1420 166<540 1238>
DStem2: 126 0 362 165 0.139236 0.990259<196.252 801.253 945.784 1463.81>
LayerCount: 2
Fore
SplineSet
1053 0 m 1,0,-1
 126 0 l 1,1,-1
 349 1586 l 1,2,-1
 1263 1586 l 1,3,-1
 1238 1420 l 1,4,-1
 540 1420 l 1,5,-1
 468 907 l 1,6,-1
 1082 907 l 1,7,-1
 1062 764 l 1,8,-1
 447 764 l 1,9,-1
 362 165 l 1,10,-1
 1079 165 l 1,11,-1
 1053 0 l 1,0,-1
EndSplineSet
EndChar

StartChar: F
Encoding: 70 70 41
Width: 1086
Flags: W
HStem: 0 21G<126 342.861> 755 143<468 1075> 1412 174<541 1231>
VStem: 126 214<0 214>
DStem2: 126 0 340 0 0.14046 0.990086<30.0584 792.743 937.135 1456.29>
LayerCount: 2
Fore
SplineSet
448 755 m 1,0,-1
 340 0 l 1,1,-1
 126 0 l 1,2,-1
 351 1586 l 1,3,-1
 1254 1586 l 1,4,-1
 1231 1412 l 1,5,-1
 541 1412 l 1,6,-1
 468 898 l 1,7,-1
 1094 898 l 1,8,-1
 1075 755 l 1,9,-1
 448 755 l 1,0,-1
EndSplineSet
EndChar

StartChar: G
Encoding: 71 71 42
Width: 1401
Flags: W
HStem: -40 181<570.688 957.045> 0 21G<1151.51 1277.82> 675 154<841 1182> 1321 21G<1278.5 1338.75> 1432 183<771.205 1179.87>
VStem: 197 220<312.101 928.339> 1152 123<0 101.577>
DStem2: 1143.5 386.5 1275 0 0.139749 0.990187<-132.835 291.049>
LayerCount: 2
Fore
SplineSet
197 555 m 0,0,1
 197 672 197 672 215.5 796 c 128,-1,2
 234 920 234 920 273.5 1037.5 c 128,-1,3
 313 1155 313 1155 375 1260 c 128,-1,4
 437 1365 437 1365 524.5 1444 c 128,-1,5
 612 1523 612 1523 727 1569 c 128,-1,6
 842 1615 842 1615 986 1615 c 1,7,8
 1083 1614 1083 1614 1189 1582.5 c 128,-1,9
 1295 1551 1295 1551 1406 1479 c 1,10,-1
 1329 1321 l 1,11,12
 1228 1371 1228 1371 1142.5 1401.5 c 128,-1,13
 1057 1432 1057 1432 971 1432 c 0,14,15
 862 1432 862 1432 779 1391 c 128,-1,16
 696 1350 696 1350 634 1282 c 128,-1,17
 572 1214 572 1214 530.5 1124.5 c 128,-1,18
 489 1035 489 1035 464 939 c 128,-1,19
 439 843 439 843 428 746 c 128,-1,20
 417 649 417 649 417 565 c 0,21,22
 417 452 417 452 439.5 371.5 c 128,-1,23
 462 291 462 291 505.5 240 c 128,-1,24
 549 189 549 189 614 165 c 128,-1,25
 679 141 679 141 763 141 c 0,26,27
 843 141 843 141 908.5 160 c 128,-1,28
 974 179 974 179 1022 211 c 128,-1,29
 1070 243 1070 243 1100.5 285.5 c 128,-1,30
 1131 328 1131 328 1141 375 c 0,31,32
 1143 381 1143 381 1143.5 386.5 c 128,-1,33
 1144 392 1144 392 1145 398 c 2,34,-1
 1182 675 l 1,35,-1
 818 675 l 1,36,-1
 841 829 l 1,37,-1
 1392 829 l 1,38,-1
 1275 0 l 1,39,-1
 1152 0 l 1,40,-1
 1148 164 l 1,41,42
 1127 131 1127 131 1092 95 c 128,-1,43
 1057 59 1057 59 1005.5 29 c 128,-1,44
 954 -1 954 -1 885 -20.5 c 128,-1,45
 816 -40 816 -40 727 -40 c 0,46,47
 470 -40 470 -40 333.5 106.5 c 128,-1,48
 197 253 197 253 197 555 c 0,0,1
EndSplineSet
EndChar

StartChar: H
Encoding: 72 72 43
Width: 1425
Flags: W
HStem: 0 21G<125 342.838 1065 1280.86> 754 143<468 1172> 1566 20G<349.137 566 1288.13 1505>
VStem: 125 215<0 215> 352 214<1372 1586> 1065 213<0 213> 1291 214<1372 1586>
DStem2: 125 0 340 0 0.141683 0.989912<30.462 792.016 936.549 1602.16> 1065 0 1278 0 0.141683 0.989912<30.1786 761.554 905.945 1602.02>
LayerCount: 2
Fore
SplineSet
1065 0 m 1,0,-1
 1172 754 l 1,1,-1
 447 754 l 1,2,-1
 340 0 l 1,3,-1
 125 0 l 1,4,-1
 352 1586 l 1,5,-1
 566 1586 l 1,6,-1
 468 897 l 1,7,-1
 1192 897 l 1,8,-1
 1291 1586 l 1,9,-1
 1505 1586 l 1,10,-1
 1278 0 l 1,11,-1
 1065 0 l 1,0,-1
EndSplineSet
EndChar

StartChar: I
Encoding: 73 73 44
Width: 860
Flags: W
HStem: 0 122<142 326 537 703> 1457 129<356 519 730 916>
DStem2: 326 122 537 122 0.143082 0.989711<30.1903 1348.88>
LayerCount: 2
Fore
SplineSet
142 122 m 1,0,-1
 326 122 l 1,1,-1
 519 1457 l 1,2,-1
 336 1457 l 1,3,-1
 356 1586 l 1,4,-1
 936 1586 l 1,5,-1
 916 1457 l 1,6,-1
 730 1457 l 1,7,-1
 537 122 l 1,8,-1
 723 122 l 1,9,-1
 703 0 l 1,10,-1
 124 0 l 1,11,-1
 142 122 l 1,0,-1
EndSplineSet
EndChar

StartChar: J
Encoding: 74 74 45
Width: 715
Flags: W
HStem: -90 153<93.6268 212.876> 1566 20G<576.176 792>
VStem: 579 213<1373 1586>
DStem2: 404 352 612 343 0.14041 0.990093<-173.564 1246.35>
LayerCount: 2
Fore
SplineSet
61 63 m 1,0,1
 138 80 138 80 192.5 99.5 c 128,-1,2
 247 119 247 119 284.5 143 c 128,-1,3
 322 167 322 167 344.5 197 c 128,-1,4
 367 227 367 227 381.5 265.5 c 128,-1,5
 396 304 396 304 404 352 c 128,-1,6
 412 400 412 400 420 460 c 2,7,-1
 579 1586 l 1,8,-1
 792 1586 l 1,9,-1
 643 522 l 2,10,11
 629 424 629 424 612 343 c 128,-1,12
 595 262 595 262 568.5 197 c 128,-1,13
 542 132 542 132 504 82.5 c 128,-1,14
 466 33 466 33 410 -2.5 c 128,-1,15
 354 -38 354 -38 277 -59.5 c 128,-1,16
 200 -81 200 -81 97 -90 c 1,17,-1
 61 63 l 1,0,1
EndSplineSet
EndChar

StartChar: K
Encoding: 75 75 46
Width: 1222
Flags: W
HStem: 0 21G<128 345.779 1005.96 1250> 734 137<465 612> 1566 20G<348.188 565 1173.62 1413>
VStem: 128 215<0 215> 351 214<1372 1586> 1189 224<1362 1586>
DStem2: 128 0 343 0 0.139236 0.990259<29.9357 770.988 909.438 1601.6> 807 799 612 734 0.484899 -0.87457<0 800.61> 639 871 807 799 0.6101 0.792324<45.4494 902.067>
LayerCount: 2
Fore
SplineSet
1189 1586 m 1,0,-1
 1413 1586 l 1,1,-1
 807 799 l 1,2,-1
 886 653 l 1,3,-1
 1250 0 l 1,4,-1
 1017 0 l 1,5,-1
 612 734 l 1,6,-1
 445 734 l 1,7,-1
 343 0 l 1,8,-1
 128 0 l 1,9,-1
 351 1586 l 1,10,-1
 565 1586 l 1,11,-1
 465 871 l 1,12,-1
 639 871 l 1,13,-1
 1189 1586 l 1,0,-1
EndSplineSet
EndChar

StartChar: L
Encoding: 76 76 47
Width: 1049
Flags: W
HStem: 0 165<365 1017> 1566 20G<348.188 565>
VStem: 351 214<1372 1586>
DStem2: 128 0 365 165 0.139236 0.990259<196.392 1601.6>
LayerCount: 2
Fore
SplineSet
1017 0 m 1,0,-1
 128 0 l 1,1,-1
 351 1586 l 1,2,-1
 565 1586 l 1,3,-1
 365 165 l 1,4,-1
 1038 165 l 1,5,-1
 1017 0 l 1,0,-1
EndSplineSet
EndChar

StartChar: M
Encoding: 77 77 48
Width: 1769
Flags: W
HStem: 0 21G<128 336.839 762.534 1000.18 1420 1629.84> 1566 20G<351.03 681.416 1510.87 1847>
VStem: 128 206<0 206> 1420 207<0 207>
DStem2: 128 0 334 0 0.141072 0.989999<29.0608 1430.97> 678 1586 531 1388 0.166933 -0.985968<170.683 1377.66> 904 227 1081 196 0.410092 0.912044<0 1352.69> 1420 0 1627 0 0.137398 0.990516<28.4414 1403.75>
LayerCount: 2
Fore
SplineSet
766 0 m 1,0,-1
 705 352 l 1,1,-1
 531 1388 l 1,2,-1
 334 0 l 1,3,-1
 128 0 l 1,4,-1
 294 1182 l 1,5,-1
 354 1586 l 1,6,-1
 678 1586 l 1,7,-1
 747 1182 l 1,8,-1
 846 584 l 1,9,-1
 904 227 l 1,10,-1
 1046 545 l 1,11,-1
 1357 1229 l 1,12,-1
 1520 1586 l 1,13,-1
 1847 1586 l 1,14,-1
 1770 1006 l 1,15,-1
 1627 0 l 1,16,-1
 1420 0 l 1,17,-1
 1616 1390 l 1,18,-1
 1081 196 l 1,19,-1
 991 0 l 1,20,-1
 766 0 l 1,0,-1
EndSplineSet
EndChar

StartChar: N
Encoding: 78 78 49
Width: 1507
Flags: W
HStem: 0 21G<128 338.803 1063.9 1361.84> 1566 20G<350.163 650.027 1373.21 1584>
VStem: 128 208<0 208> 1376 208<1378 1586>
DStem2: 128 0 336 0 0.14046 0.990086<29.2157 1405.53> 642 1586 527 1363 0.371273 -0.928524<164.364 1467.55> 1186 223 1359 0 0.14046 0.990086<0 1376.18>
LayerCount: 2
Fore
SplineSet
1359 0 m 1,0,-1
 1072 0 l 1,1,-1
 889 452 l 1,2,-1
 527 1363 l 1,3,-1
 336 0 l 1,4,-1
 128 0 l 1,5,-1
 353 1586 l 1,6,-1
 642 1586 l 1,7,-1
 823 1135 l 1,8,-1
 1186 223 l 1,9,-1
 1376 1586 l 1,10,-1
 1584 1586 l 1,11,-1
 1359 0 l 1,0,-1
EndSplineSet
EndChar

StartChar: O
Encoding: 79 79 50
Width: 1457
Flags: W
HStem: -40 182<562.187 915.175> 1432 182<757.104 1110.32>
VStem: 197 222<298.801 918.417> 1256 220<648.486 1270.52>
LayerCount: 2
Fore
SplineSet
1476 1024 m 0,0,1
 1476 788 1476 788 1419 592.5 c 128,-1,2
 1362 397 1362 397 1260 256.5 c 128,-1,3
 1158 116 1158 116 1018 38 c 128,-1,4
 878 -40 878 -40 712 -40 c 0,5,6
 593 -40 593 -40 498 -5.5 c 128,-1,7
 403 29 403 29 336 100 c 128,-1,8
 269 171 269 171 233 278.5 c 128,-1,9
 197 386 197 386 197 533 c 0,10,11
 197 687 197 687 222.5 827.5 c 128,-1,12
 248 968 248 968 295 1088 c 128,-1,13
 342 1208 342 1208 409.5 1305 c 128,-1,14
 477 1402 477 1402 561 1471 c 128,-1,15
 645 1540 645 1540 744.5 1577 c 128,-1,16
 844 1614 844 1614 955 1614 c 0,17,18
 1091 1614 1091 1614 1189.5 1573 c 128,-1,19
 1288 1532 1288 1532 1351.5 1455.5 c 128,-1,20
 1415 1379 1415 1379 1445.5 1269.5 c 128,-1,21
 1476 1160 1476 1160 1476 1024 c 0,0,1
1256 1027 m 0,22,23
 1256 1116 1256 1116 1239 1190.5 c 128,-1,24
 1222 1265 1222 1265 1184 1318.5 c 128,-1,25
 1146 1372 1146 1372 1084.5 1402 c 128,-1,26
 1023 1432 1023 1432 934 1432 c 0,27,28
 847 1432 847 1432 775 1396.5 c 128,-1,29
 703 1361 703 1361 645.5 1298.5 c 128,-1,30
 588 1236 588 1236 545.5 1151 c 128,-1,31
 503 1066 503 1066 475 966.5 c 128,-1,32
 447 867 447 867 433 758 c 128,-1,33
 419 649 419 649 419 538 c 0,34,35
 419 337 419 337 500 239.5 c 128,-1,36
 581 142 581 142 739 142 c 0,37,38
 825 142 825 142 896.5 176.5 c 128,-1,39
 968 211 968 211 1025.5 272 c 128,-1,40
 1083 333 1083 333 1126 417 c 128,-1,41
 1169 501 1169 501 1198 599 c 128,-1,42
 1227 697 1227 697 1241.5 806 c 128,-1,43
 1256 915 1256 915 1256 1027 c 0,22,23
EndSplineSet
EndChar

StartChar: P
Encoding: 80 80 51
Width: 1230
Flags: W
HStem: 0 21G<126 342.83> 629 160<454 914.227> 1420 166<542 1020.74>
VStem: 126 214<0 214> 1126 205<966.902 1325.88>
DStem2: 126 0 340 0 0.141072 0.989999<30.1894 665.454 827.381 1464.48>
LayerCount: 2
Fore
SplineSet
589 789 m 2,0,1
 737 789 737 789 839.5 811.5 c 128,-1,2
 942 834 942 834 1005.5 881 c 128,-1,3
 1069 928 1069 928 1097.5 1001.5 c 128,-1,4
 1126 1075 1126 1075 1126 1176 c 0,5,6
 1126 1259 1126 1259 1095 1307.5 c 128,-1,7
 1064 1356 1064 1356 1009 1381 c 128,-1,8
 954 1406 954 1406 878.5 1413 c 128,-1,9
 803 1420 803 1420 715 1420 c 2,10,-1
 542 1420 l 1,11,-1
 454 789 l 1,12,-1
 589 789 l 2,0,1
352 1586 m 1,13,-1
 731 1586 l 2,14,15
 896 1586 896 1586 1010.5 1563 c 128,-1,16
 1125 1540 1125 1540 1196 1492.5 c 128,-1,17
 1267 1445 1267 1445 1299 1371.5 c 128,-1,18
 1331 1298 1331 1298 1331 1198 c 0,19,20
 1330 1030 1330 1030 1275.5 920.5 c 128,-1,21
 1221 811 1221 811 1121 746 c 128,-1,22
 1021 681 1021 681 879.5 655 c 128,-1,23
 738 629 738 629 564 629 c 2,24,-1
 429 629 l 1,25,-1
 340 0 l 1,26,-1
 126 0 l 1,27,-1
 352 1586 l 1,13,-1
EndSplineSet
EndChar

StartChar: Q
Encoding: 81 81 52
Width: 1462
Flags: W
HStem: -425 21G<1012 1052.32> 1432 183<747.607 1113.88>
VStem: 197 225.5<303.172 940.069> 1264 217<627.894 1261.82>
DStem2: 875 -19 640 -33 0.707107 -0.707107<0 398.101> 1237 709 1458.5 738.5 0.153635 0.988128<-283.043 294.594>
LayerCount: 2
Fore
SplineSet
421 610 m 0,0,1
 419 553 419 553 422.5 503.5 c 128,-1,2
 426 454 426 454 434 412 c 0,3,4
 460 271 460 271 538.5 206 c 128,-1,5
 617 141 617 141 751 141 c 0,6,7
 860 141 860 141 942 186.5 c 128,-1,8
 1024 232 1024 232 1083 310 c 128,-1,9
 1142 388 1142 388 1179.5 491 c 128,-1,10
 1217 594 1217 594 1237 709 c 0,11,12
 1251 790 1251 790 1257.5 864.5 c 128,-1,13
 1264 939 1264 939 1264 1005 c 0,14,15
 1264 1224 1264 1224 1181 1328 c 128,-1,16
 1098 1432 1098 1432 932 1432 c 0,17,18
 837 1432 837 1432 763.5 1396 c 128,-1,19
 690 1360 690 1360 634 1299 c 128,-1,20
 578 1238 578 1238 539 1156 c 128,-1,21
 500 1074 500 1074 474.5 983 c 128,-1,22
 449 892 449 892 436.5 796 c 128,-1,23
 424 700 424 700 421 610 c 0,0,1
1481 1009 m 0,24,25
 1481 954 1481 954 1476 884.5 c 128,-1,26
 1471 815 1471 815 1458.5 738.5 c 128,-1,27
 1446 662 1446 662 1425 582 c 128,-1,28
 1404 502 1404 502 1371 424.5 c 128,-1,29
 1338 347 1338 347 1293 275.5 c 128,-1,30
 1248 204 1248 204 1187 145 c 128,-1,31
 1126 86 1126 86 1049 43.5 c 128,-1,32
 972 1 972 1 875 -19 c 1,33,-1
 1158 -301 l 1,34,-1
 1032 -425 l 1,35,-1
 640 -33 l 1,36,37
 542 -20 542 -20 460.5 20 c 128,-1,38
 379 60 379 60 320.5 131.5 c 128,-1,39
 262 203 262 203 229.5 309.5 c 128,-1,40
 197 416 197 416 197 562 c 0,41,42
 197 634 197 634 204.5 717.5 c 128,-1,43
 212 801 212 801 230 888.5 c 128,-1,44
 248 976 248 976 277 1064 c 128,-1,45
 306 1152 306 1152 349 1232.5 c 128,-1,46
 392 1313 392 1313 449.5 1383 c 128,-1,47
 507 1453 507 1453 582 1504.5 c 128,-1,48
 657 1556 657 1556 750.5 1585.5 c 128,-1,49
 844 1615 844 1615 958 1615 c 0,50,51
 1067 1615 1067 1615 1162 1583 c 128,-1,52
 1257 1551 1257 1551 1328 1479 c 128,-1,53
 1399 1407 1399 1407 1440 1291.5 c 128,-1,54
 1481 1176 1481 1176 1481 1009 c 0,24,25
EndSplineSet
EndChar

StartChar: R
Encoding: 82 82 53
Width: 1287
Flags: W
HStem: 0 21G<125 341.904 963 1186> 730 144<465 881.428> 1420 166<543 1036.83>
VStem: 125 214<0 214> 1026 213<135.168 641.735> 1130 195<1036.51 1338.57>
DStem2: 125 0 339 0 0.142295 0.989824<30.4511 768.106 913.487 1465.03> 963 0 1176 0 0.129603 0.991566<27.6054 528.297>
LayerCount: 2
Fore
SplineSet
963 0 m 1,0,1
 975 89 975 89 984 156.5 c 128,-1,2
 993 224 993 224 999.5 274 c 128,-1,3
 1006 324 1006 324 1011 358 c 128,-1,4
 1016 392 1016 392 1019 416 c 128,-1,5
 1022 440 1022 440 1023.5 455 c 128,-1,6
 1025 470 1025 470 1026 482 c 1,7,8
 1026 538 1026 538 1013 576 c 1,9,10
 999 633 999 633 960.5 661.5 c 128,-1,11
 922 690 922 690 853 704 c 1,12,13
 807 718 807 718 745.5 724 c 128,-1,14
 684 730 684 730 603 730 c 2,15,-1
 445 730 l 1,16,-1
 339 0 l 1,17,-1
 125 0 l 1,18,-1
 353 1586 l 1,19,-1
 740 1586 l 2,20,21
 821 1586 821 1586 892.5 1582.5 c 128,-1,22
 964 1579 964 1579 1025 1568 c 0,23,24
 1091 1556 1091 1556 1146 1533 c 128,-1,25
 1201 1510 1201 1510 1240.5 1472 c 128,-1,26
 1280 1434 1280 1434 1302.5 1379 c 128,-1,27
 1325 1324 1325 1324 1325 1247 c 0,28,29
 1325 1127 1325 1127 1284 1043.5 c 128,-1,30
 1243 960 1243 960 1178.5 907 c 128,-1,31
 1114 854 1114 854 1035.5 829 c 128,-1,32
 957 804 957 804 882 803 c 1,33,34
 969 794 969 794 1035 772.5 c 128,-1,35
 1101 751 1101 751 1146 714 c 128,-1,36
 1191 677 1191 677 1214.5 623.5 c 128,-1,37
 1238 570 1238 570 1239 497 c 0,38,39
 1239 488 1239 488 1237 468.5 c 128,-1,40
 1235 449 1235 449 1230 403 c 0,41,42
 1222 338 1222 338 1209 241.5 c 128,-1,43
 1196 145 1196 145 1176 0 c 1,44,-1
 963 0 l 1,0,1
582 874 m 2,45,46
 699 874 699 874 799 884.5 c 128,-1,47
 899 895 899 895 972.5 930 c 128,-1,48
 1046 965 1046 965 1088 1031 c 128,-1,49
 1130 1097 1130 1097 1130 1209 c 0,50,51
 1130 1281 1130 1281 1099 1322.5 c 128,-1,52
 1068 1364 1068 1364 1014.5 1386 c 128,-1,53
 961 1408 961 1408 890.5 1414 c 128,-1,54
 820 1420 820 1420 741 1420 c 2,55,-1
 543 1420 l 1,56,-1
 465 874 l 1,57,-1
 582 874 l 2,45,46
EndSplineSet
EndChar

StartChar: S
Encoding: 83 83 54
Width: 1239
Flags: W
HStem: -40 182<319.142 818.741> 1432 183<601.912 1073.56>
VStem: 262 215<1062.78 1324.54> 976 217<285.749 603.478>
DStem2: 584.5 1019 550 792 0.921773 -0.38773<-120.022 510.614>
LayerCount: 2
Fore
SplineSet
1207 1320 m 1,0,1
 1185 1337 1185 1337 1145.5 1356.5 c 128,-1,2
 1106 1376 1106 1376 1057 1393 c 128,-1,3
 1008 1410 1008 1410 953 1421 c 128,-1,4
 898 1432 898 1432 846 1432 c 0,5,6
 746 1432 746 1432 676 1414 c 128,-1,7
 606 1396 606 1396 561.5 1363 c 128,-1,8
 517 1330 517 1330 497 1283 c 128,-1,9
 477 1236 477 1236 477 1178 c 0,10,11
 477 1138 477 1138 489 1109.5 c 128,-1,12
 501 1081 501 1081 525 1059 c 128,-1,13
 549 1037 549 1037 584.5 1019 c 128,-1,14
 620 1001 620 1001 667 983 c 2,15,-1
 901 892 l 2,16,17
 972 864 972 864 1026.5 828.5 c 128,-1,18
 1081 793 1081 793 1118 747.5 c 128,-1,19
 1155 702 1155 702 1174 644.5 c 128,-1,20
 1193 587 1193 587 1193 515 c 0,21,22
 1193 405 1193 405 1157 304.5 c 128,-1,23
 1121 204 1121 204 1046 127.5 c 128,-1,24
 971 51 971 51 856 5.5 c 128,-1,25
 741 -40 741 -40 584 -40 c 0,26,27
 514 -40 514 -40 447 -30 c 128,-1,28
 380 -20 380 -20 322.5 -5 c 128,-1,29
 265 10 265 10 222 28 c 128,-1,30
 179 46 179 46 157 63 c 1,31,-1
 201 247 l 1,32,33
 238 224 238 224 278.5 204.5 c 128,-1,34
 319 185 319 185 365.5 171 c 128,-1,35
 412 157 412 157 465 149.5 c 128,-1,36
 518 142 518 142 580 142 c 0,37,38
 780 142 780 142 878 223 c 128,-1,39
 976 304 976 304 976 473 c 0,40,41
 976 515 976 515 964.5 547 c 128,-1,42
 953 579 953 579 930.5 604.5 c 128,-1,43
 908 630 908 630 876 649.5 c 128,-1,44
 844 669 844 669 802 686 c 2,45,-1
 550 792 l 2,46,47
 482 820 482 820 426 855 c 0,48,49
 344 906 344 906 303 977.5 c 128,-1,50
 262 1049 262 1049 262 1139 c 0,51,52
 262 1251 262 1251 308 1339 c 128,-1,53
 354 1427 354 1427 430 1488.5 c 128,-1,54
 506 1550 506 1550 605 1582.5 c 128,-1,55
 704 1615 704 1615 810 1615 c 0,56,57
 879 1615 879 1615 944 1606.5 c 128,-1,58
 1009 1598 1009 1598 1066.5 1582.5 c 128,-1,59
 1124 1567 1124 1567 1172 1546.5 c 128,-1,60
 1220 1526 1220 1526 1256 1502 c 1,61,-1
 1207 1320 l 1,0,1
EndSplineSet
EndChar

StartChar: T
Encoding: 84 84 55
Width: 1027
Flags: W
HStem: 0 21G<397 612.803> 1420 166<200 596 809 1227>
VStem: 397 213<0 213>
DStem2: 397 0 610 0 0.138785 0.990323<29.5611 1433.88>
LayerCount: 2
Fore
SplineSet
1227 1420 m 1,0,-1
 809 1420 l 1,1,-1
 610 0 l 1,2,-1
 397 0 l 1,3,-1
 596 1420 l 1,4,-1
 176 1420 l 1,5,-1
 200 1586 l 1,6,-1
 1250 1586 l 1,7,-1
 1227 1420 l 1,0,-1
EndSplineSet
EndChar

StartChar: U
Encoding: 85 85 56
Width: 1412
Flags: W
HStem: -40 171<536.71 929.809> 1566 20G<306 533 1287.15 1504>
VStem: 185 211<282.753 918.422> 319 214<1372 1586> 1290 214<1372 1586>
DStem2: 189.5 634.5 401.5 616.5 0.134406 0.990926<-83.3525 960.272> 1166 715 1382 719 0.140944 0.990018<-357.407 879.782>
LayerCount: 2
Fore
SplineSet
723 131 m 0,0,1
 825 131 825 131 898 160 c 128,-1,2
 971 189 971 189 1022.5 257 c 128,-1,3
 1074 325 1074 325 1108 437 c 128,-1,4
 1142 549 1142 549 1166 715 c 2,5,-1
 1290 1586 l 1,6,-1
 1504 1586 l 1,7,-1
 1382 719 l 2,8,9
 1350 493 1350 493 1286.5 346.5 c 128,-1,10
 1223 200 1223 200 1134.5 114 c 128,-1,11
 1046 28 1046 28 935.5 -6 c 128,-1,12
 825 -40 825 -40 700 -40 c 0,13,14
 577 -40 577 -40 481.5 -3 c 128,-1,15
 386 34 386 34 320 107.5 c 128,-1,16
 254 181 254 181 219.5 289.5 c 128,-1,17
 185 398 185 398 185 541 c 0,18,19
 185 553 185 553 185 566.5 c 128,-1,20
 185 580 185 580 186 596.5 c 128,-1,21
 187 613 187 613 189.5 634.5 c 128,-1,22
 192 656 192 656 196 685 c 0,23,24
 203 743 203 743 213.5 822 c 128,-1,25
 224 901 224 901 239 1009 c 128,-1,26
 254 1117 254 1117 273.5 1259 c 128,-1,27
 293 1401 293 1401 319 1586 c 1,28,-1
 533 1586 l 1,29,30
 507 1399 507 1399 487 1255 c 128,-1,31
 467 1111 467 1111 452 1001 c 128,-1,32
 437 891 437 891 426 810.5 c 128,-1,33
 415 730 415 730 408 670 c 0,34,35
 404 639 404 639 401.5 616.5 c 128,-1,36
 399 594 399 594 398 577 c 128,-1,37
 397 560 397 560 396.5 547 c 128,-1,38
 396 534 396 534 396 522 c 0,39,40
 396 434 396 434 412.5 362 c 128,-1,41
 429 290 429 290 467 238.5 c 128,-1,42
 505 187 505 187 567.5 159 c 128,-1,43
 630 131 630 131 723 131 c 0,0,1
EndSplineSet
EndChar

StartChar: V
Encoding: 86 86 57
Width: 1233
Flags: W
HStem: 0 21G<296.085 589.588> 1565 21G<68 275.679 1038.6 1262>
VStem: 68 205<1380 1585>
DStem2: 273 1585 68 1585 0.144218 -0.989546<0 1408.37> 460 189 581 0 0.394549 0.918875<0 1515.27>
LayerCount: 2
Fore
SplineSet
273 1585 m 1,0,-1
 460 189 l 1,1,-1
 1047 1586 l 1,2,-1
 1262 1586 l 1,3,-1
 581 0 l 1,4,-1
 299 0 l 1,5,-1
 68 1585 l 1,6,-1
 273 1585 l 1,0,-1
EndSplineSet
EndChar

StartChar: W
Encoding: 87 87 58
Width: 1977
Flags: W
HStem: 0 21G<299.71 607.013 1150.17 1446.95> 1563 23G<277 472.2 946.319 1253.02 1779.38 1991>
VStem: 277 195<597.439 1586> 300 186<185 988.561>
DStem2: 486 185 600 0 0.330889 0.94367<0 1353.07> 1323 188 1440 0 0.328174 0.944617<0 1472.52>
LayerCount: 2
Fore
SplineSet
953 1583 m 1,0,-1
 1252 1583 l 1,1,-1
 1323 188 l 1,2,-1
 1786 1586 l 1,3,-1
 1991 1586 l 1,4,-1
 1440 0 l 1,5,-1
 1151 0 l 1,6,-1
 1093 1406 l 1,7,-1
 600 0 l 1,8,-1
 300 0 l 1,9,-1
 277 1586 l 1,10,-1
 472 1586 l 1,11,-1
 486 185 l 1,12,-1
 953 1583 l 1,0,-1
EndSplineSet
EndChar

StartChar: X
Encoding: 88 88 59
Width: 1240
Flags: W
HStem: 0 21G<22 277.032 938.349 1187> 1566 20G<267 501.328 1189.47 1431>
VStem: 22 241<0 241> 1204 227<1359 1586>
DStem2: 22 0 263 0 0.597571 0.801816<144.015 144.015 1209.18 1533.18 1606.98 1978.01> 493 1586 267 1586 0.400879 -0.916131<0 673.661>
LayerCount: 2
Fore
SplineSet
849 801 m 1,0,-1
 1187 0 l 1,1,-1
 946 0 l 1,2,-1
 705 630 l 1,3,-1
 263 0 l 1,4,-1
 22 0 l 1,5,-1
 607 801 l 1,6,-1
 267 1586 l 1,7,-1
 493 1586 l 1,8,-1
 752 964 l 1,9,-1
 1204 1586 l 1,10,-1
 1431 1586 l 1,11,-1
 849 801 l 1,0,-1
EndSplineSet
EndChar

StartChar: Y
Encoding: 89 89 60
Width: 1158
Flags: W
HStem: 0 21G<455 668.782> 1562 20G<209 418.616 1136.7 1367>
VStem: 209 204<1378 1582> 455 211<0 211>
DStem2: 455 0 666 0 0.137412 0.990514<28.994 523.97> 657 713 735 496 0.50298 0.864298<0 998.038>
LayerCount: 2
Fore
SplineSet
657 713 m 1,0,-1
 1148 1582 l 1,1,-1
 1367 1582 l 1,2,-1
 735 496 l 1,3,-1
 666 0 l 1,4,-1
 455 0 l 1,5,-1
 527 519 l 1,6,-1
 209 1582 l 1,7,-1
 413 1582 l 1,8,-1
 657 713 l 1,0,-1
EndSplineSet
EndChar

StartChar: Z
Encoding: 90 90 61
Width: 1130
Flags: W
HStem: 0 166<331 1069> 1420 162<310 1039>
DStem2: 116 197 331 166 0.60072 0.799459<104.372 1532.2>
LayerCount: 2
Fore
SplineSet
1289 1582 m 1,0,-1
 1265 1409 l 1,1,-1
 331 166 l 1,2,-1
 1091 166 l 1,3,-1
 1069 0 l 1,4,-1
 89 0 l 1,5,-1
 116 197 l 1,6,-1
 1039 1420 l 1,7,-1
 288 1420 l 1,8,-1
 310 1582 l 1,9,-1
 1289 1582 l 1,0,-1
EndSplineSet
EndChar

StartChar: bracketleft
Encoding: 91 91 62
Width: 1165
Flags: W
HStem: 0 172<497 902> 1403 172<675 1103>
DStem2: 262 0 497 172 0.142037 0.989861<203.635 1447.44>
LayerCount: 2
Fore
SplineSet
488 1575 m 1,0,-1
 1126 1575 l 1,1,-1
 1103 1403 l 1,2,-1
 675 1403 l 1,3,-1
 497 172 l 1,4,-1
 925 172 l 1,5,-1
 902 0 l 1,6,-1
 262 0 l 1,7,-1
 488 1575 l 1,0,-1
EndSplineSet
EndChar

StartChar: backslash
Encoding: 92 92 63
Width: 921
Flags: W
VStem: 333 511
DStem2: 513 1723 333 1693 0.176506 -0.9843<0 1882.33>
LayerCount: 2
Fore
SplineSet
513 1723 m 1,0,-1
 844 -130 l 1,1,-1
 666 -164 l 1,2,-1
 333 1693 l 1,3,-1
 513 1723 l 1,0,-1
EndSplineSet
EndChar

StartChar: bracketright
Encoding: 93 93 64
Width: 1129
Flags: W
HStem: 0 172<223 651> 1403 172<425 827>
DStem2: 651 172 840 0 0.139573 0.990212<0 1243.52>
LayerCount: 2
Fore
SplineSet
425 1575 m 1,0,-1
 1062 1575 l 1,1,-1
 840 0 l 1,2,-1
 200 0 l 1,3,-1
 223 172 l 1,4,-1
 651 172 l 1,5,-1
 827 1403 l 1,6,-1
 402 1403 l 1,7,-1
 425 1575 l 1,0,-1
EndSplineSet
EndChar

StartChar: asciicircum
Encoding: 94 94 65
Width: 1461
Flags: W
HStem: 408 558<764 797>
VStem: 904 164<408 572>
DStem2: 475 408 659 408 0.499812 0.866134<91.9654 456.862> 937 966 838 726 0.228553 -0.973531<211.021 535.688>
LayerCount: 2
Fore
SplineSet
797 966 m 1,0,-1
 937 966 l 1,1,-1
 1068 408 l 1,2,-1
 904 408 l 1,3,-1
 838 726 l 1,4,-1
 659 408 l 1,5,-1
 475 408 l 1,6,-1
 797 966 l 1,0,-1
EndSplineSet
EndChar

StartChar: underscore
Encoding: 95 95 66
Width: 1168
Flags: W
HStem: -108 171<114 982>
LayerCount: 2
Fore
SplineSet
982 -108 m 1,0,-1
 91 -108 l 1,1,-1
 114 63 l 1,2,-1
 1006 63 l 1,3,-1
 982 -108 l 1,0,-1
EndSplineSet
EndChar

StartChar: grave
Encoding: 96 96 67
Width: 713
Flags: W
HStem: 148 643<357 423>
VStem: 126 337
LayerCount: 2
Fore
SplineSet
463 148 m 1,0,-1
 357 148 l 1,1,-1
 126 791 l 1,2,-1
 423 791 l 1,3,-1
 463 148 l 1,0,-1
EndSplineSet
EndChar

StartChar: a
Encoding: 97 97 68
Width: 1125
Flags: W
HStem: -20 156<420.65 672.031> 0 21G<833.474 989.898> 1005 156<624.078 927.714>
VStem: 152 199<209.893 653.692> 834 153<0 98.9373>
DStem2: 929 973 1139 1049 0.143402 0.989664<-746.345 7.99301>
LayerCount: 2
Fore
SplineSet
1139 1049 m 1,0,-1
 987 0 l 1,1,-1
 834 0 l 1,2,-1
 829 190 l 1,3,4
 803 142 803 142 768.5 103 c 128,-1,5
 734 64 734 64 692 36.5 c 128,-1,6
 650 9 650 9 601.5 -5.5 c 128,-1,7
 553 -20 553 -20 501 -20 c 0,8,9
 406 -20 406 -20 340 12.5 c 128,-1,10
 274 45 274 45 232 102 c 128,-1,11
 190 159 190 159 171 235.5 c 128,-1,12
 152 312 152 312 152 401 c 0,13,14
 152 481 152 481 172.5 569 c 128,-1,15
 193 657 193 657 231.5 741.5 c 128,-1,16
 270 826 270 826 324.5 902 c 128,-1,17
 379 978 379 978 446.5 1035.5 c 128,-1,18
 514 1093 514 1093 593.5 1127 c 128,-1,19
 673 1161 673 1161 761 1161 c 0,20,21
 807 1161 807 1161 855.5 1152 c 128,-1,22
 904 1143 904 1143 949 1129.5 c 128,-1,23
 994 1116 994 1116 1031.5 1100.5 c 128,-1,24
 1069 1085 1069 1085 1093 1072 c 2,25,-1
 1139 1049 l 1,0,-1
351 414 m 0,26,27
 351 267 351 267 401.5 201.5 c 128,-1,28
 452 136 452 136 556 136 c 0,29,30
 602 136 602 136 644 152.5 c 128,-1,31
 686 169 686 169 721.5 194 c 128,-1,32
 757 219 757 219 784.5 248 c 128,-1,33
 812 277 812 277 828 301 c 1,34,-1
 929 973 l 1,35,36
 926 975 926 975 911 980 c 128,-1,37
 896 985 896 985 873.5 990.5 c 128,-1,38
 851 996 851 996 823.5 1000.5 c 128,-1,39
 796 1005 796 1005 769 1005 c 0,40,41
 718 1005 718 1005 667.5 983 c 128,-1,42
 617 961 617 961 570.5 921.5 c 128,-1,43
 524 882 524 882 484 827 c 128,-1,44
 444 772 444 772 414.5 706.5 c 128,-1,45
 385 641 385 641 368 566.5 c 128,-1,46
 351 492 351 492 351 414 c 0,26,27
EndSplineSet
EndChar

StartChar: b
Encoding: 98 98 69
Width: 1121
Flags: W
HStem: -20 156<469.164 741.688> 0 21G<128 275.778> 1004 157<664.793 886.848>
VStem: 930 196<437.4 959.74>
DStem2: 128 0 368 284 0.140489 0.990082<269.641 853.886 937.295 1651.38>
LayerCount: 2
Fore
SplineSet
1123 692 m 0,0,1
 1120 614 1120 614 1105 531 c 128,-1,2
 1090 448 1090 448 1062.5 369 c 128,-1,3
 1035 290 1035 290 993.5 219.5 c 128,-1,4
 952 149 952 149 897 95.5 c 128,-1,5
 842 42 842 42 772.5 11 c 128,-1,6
 703 -20 703 -20 618 -20 c 0,7,8
 518 -20 518 -20 445.5 31.5 c 128,-1,9
 373 83 373 83 330 180 c 1,10,-1
 269 0 l 1,11,-1
 128 0 l 1,12,-1
 360 1635 l 1,13,-1
 566 1657 l 1,14,-1
 457 900 l 1,15,16
 479 948 479 948 518.5 995 c 128,-1,17
 558 1042 558 1042 606.5 1078.5 c 128,-1,18
 655 1115 655 1115 710 1138 c 128,-1,19
 765 1161 765 1161 818 1161 c 0,20,21
 909 1161 909 1161 968.5 1125.5 c 128,-1,22
 1028 1090 1028 1090 1063 1030.5 c 128,-1,23
 1098 971 1098 971 1112 892.5 c 128,-1,24
 1126 814 1126 814 1126 727 c 0,25,26
 1126 719 1126 719 1125 710.5 c 128,-1,27
 1124 702 1124 702 1123 692 c 0,0,1
616 136 m 0,28,29
 681 136 681 136 730 171.5 c 128,-1,30
 779 207 779 207 813.5 263 c 128,-1,31
 848 319 848 319 870.5 388 c 128,-1,32
 893 457 893 457 906.5 524.5 c 128,-1,33
 920 592 920 592 925 650 c 128,-1,34
 930 708 930 708 930 742 c 0,35,36
 930 792 930 792 926.5 839.5 c 128,-1,37
 923 887 923 887 908 923.5 c 128,-1,38
 893 960 893 960 862.5 982 c 128,-1,39
 832 1004 832 1004 779 1004 c 0,40,41
 747 1004 747 1004 713.5 991.5 c 128,-1,42
 680 979 680 979 647.5 958 c 128,-1,43
 615 937 615 937 584 910 c 128,-1,44
 553 883 553 883 525.5 853.5 c 128,-1,45
 498 824 498 824 474.5 795 c 128,-1,46
 451 766 451 766 434 741 c 1,47,-1
 431 721 l 1,48,-1
 368 284 l 1,49,50
 369 280 369 280 386 256.5 c 128,-1,51
 403 233 403 233 434.5 206 c 128,-1,52
 466 179 466 179 511.5 157.5 c 128,-1,53
 557 136 557 136 616 136 c 0,28,29
EndSplineSet
EndChar

StartChar: c
Encoding: 99 99 70
Width: 973
Flags: W
HStem: -20 156<448.244 770.613> 1004 157<578.562 906.43>
VStem: 153 208<228.117 706.555>
LayerCount: 2
Fore
SplineSet
153 424 m 1,0,1
 153 592 153 592 201 728 c 128,-1,2
 249 864 249 864 329.5 960.5 c 128,-1,3
 410 1057 410 1057 515.5 1109 c 128,-1,4
 621 1161 621 1161 735 1161 c 0,5,6
 838 1161 838 1161 919 1132 c 128,-1,7
 1000 1103 1000 1103 1072 1045 c 1,8,-1
 994 893 l 1,9,10
 978 913 978 913 950 933 c 128,-1,11
 922 953 922 953 888 968.5 c 128,-1,12
 854 984 854 984 816 994 c 128,-1,13
 778 1004 778 1004 741 1004 c 0,14,15
 663 1004 663 1004 603.5 974 c 128,-1,16
 544 944 544 944 500.5 892.5 c 128,-1,17
 457 841 457 841 428.5 772 c 128,-1,18
 400 703 400 703 384 626 c 1,19,20
 372 574 372 574 366.5 524 c 128,-1,21
 361 474 361 474 361 429 c 0,22,23
 360 281 360 281 419.5 208.5 c 128,-1,24
 479 136 479 136 590 136 c 0,25,26
 647 136 647 136 701 152 c 128,-1,27
 755 168 755 168 800 192 c 0,28,29
 824 205 824 205 847 221 c 128,-1,30
 870 237 870 237 893 254 c 1,31,-1
 921 105 l 1,32,33
 827 43 827 43 736 12 c 128,-1,34
 645 -19 645 -19 543 -20 c 1,35,36
 460 -19 460 -19 388.5 7.5 c 128,-1,37
 317 34 317 34 264.5 88 c 128,-1,38
 212 142 212 142 182 225.5 c 128,-1,39
 152 309 152 309 153 424 c 1,0,1
EndSplineSet
EndChar

StartChar: d
Encoding: 100 100 71
Width: 1123
Flags: W
HStem: -20 156<415.75 657.645> 0 21G<839.883 983.861> 1004 157<528.335 797.752>
VStem: 151 198<209.78 718.045> 841 140<0 100.231>
DStem2: 821 285 981 0 0.141589 0.989926<-57.5327 582.797 711.066 1361.46>
LayerCount: 2
Fore
SplineSet
651 1161 m 0,0,1
 702 1161 702 1161 745 1144.5 c 128,-1,2
 788 1128 788 1128 822 1103 c 128,-1,3
 856 1078 856 1078 881 1047.5 c 128,-1,4
 906 1017 906 1017 921 989 c 1,5,-1
 1012 1633 l 1,6,-1
 1218 1657 l 1,7,-1
 981 0 l 1,8,-1
 841 0 l 1,9,-1
 831 179 l 1,10,11
 800 137 800 137 761.5 100.5 c 128,-1,12
 723 64 723 64 679 37 c 128,-1,13
 635 10 635 10 587 -5 c 128,-1,14
 539 -20 539 -20 489 -20 c 0,15,16
 396 -20 396 -20 331.5 14 c 128,-1,17
 267 48 267 48 227 107 c 128,-1,18
 187 166 187 166 169 245 c 128,-1,19
 151 324 151 324 151 414 c 0,20,21
 151 491 151 491 164 576.5 c 128,-1,22
 177 662 177 662 204 745 c 128,-1,23
 231 828 231 828 272 903 c 128,-1,24
 313 978 313 978 368.5 1035.5 c 128,-1,25
 424 1093 424 1093 494.5 1127 c 128,-1,26
 565 1161 565 1161 651 1161 c 0,0,1
350 446 m 1,27,28
 348 419 348 419 349 391.5 c 128,-1,29
 350 364 350 364 354 338 c 0,30,31
 359 296 359 296 371 259 c 128,-1,32
 383 222 383 222 404 194.5 c 128,-1,33
 425 167 425 167 456.5 151.5 c 128,-1,34
 488 136 488 136 532 136 c 0,35,36
 578 136 578 136 621.5 150.5 c 128,-1,37
 665 165 665 165 702.5 187.5 c 128,-1,38
 740 210 740 210 770.5 236 c 128,-1,39
 801 262 801 262 821 285 c 1,40,41
 837 398 837 398 848.5 482 c 128,-1,42
 860 566 860 566 868.5 626.5 c 128,-1,43
 877 687 877 687 883 728 c 128,-1,44
 889 769 889 769 892.5 795.5 c 128,-1,45
 896 822 896 822 898.5 837 c 128,-1,46
 901 852 901 852 903 862 c 1,47,48
 899 867 899 867 879.5 890 c 128,-1,49
 860 913 860 913 827.5 938.5 c 128,-1,50
 795 964 795 964 750.5 984 c 128,-1,51
 706 1004 706 1004 651 1004 c 0,52,53
 593 1004 593 1004 548.5 974.5 c 128,-1,54
 504 945 504 945 471 897.5 c 128,-1,55
 438 850 438 850 415.5 790 c 128,-1,56
 393 730 393 730 378.5 668 c 128,-1,57
 364 606 364 606 357.5 547.5 c 128,-1,58
 351 489 351 489 350 446 c 1,27,28
EndSplineSet
EndChar

StartChar: e
Encoding: 101 101 72
Width: 1068
Flags: W
HStem: -20 153<461.959 795.861> 1009 153<574.408 852.249>
VStem: 152 212<230.423 537.308> 912 177<743.196 948.213>
DStem2: 394 665 375 538 0.994395 0.105732<0 515.683>
LayerCount: 2
Fore
SplineSet
394 665 m 1,0,1
 523 678 523 678 611.5 690 c 128,-1,2
 700 702 700 702 757.5 713.5 c 128,-1,3
 815 725 815 725 846.5 735.5 c 128,-1,4
 878 746 878 746 892.5 755.5 c 128,-1,5
 907 765 907 765 909.5 773.5 c 128,-1,6
 912 782 912 782 912 789 c 0,7,8
 912 898 912 898 864.5 953.5 c 128,-1,9
 817 1009 817 1009 732 1009 c 0,10,11
 668 1009 668 1009 613 985 c 128,-1,12
 558 961 558 961 514.5 916.5 c 128,-1,13
 471 872 471 872 440.5 808 c 128,-1,14
 410 744 410 744 394 665 c 1,0,1
948 95 m 1,15,16
 860 38 860 38 762 9 c 128,-1,17
 664 -20 664 -20 576 -20 c 0,18,19
 473 -20 473 -20 394 10 c 128,-1,20
 315 40 315 40 261 96 c 128,-1,21
 207 152 207 152 179.5 233 c 128,-1,22
 152 314 152 314 152 416 c 0,23,24
 152 504 152 504 169 593.5 c 128,-1,25
 186 683 186 683 219.5 765.5 c 128,-1,26
 253 848 253 848 302 920.5 c 128,-1,27
 351 993 351 993 415 1046.5 c 128,-1,28
 479 1100 479 1100 558 1131 c 128,-1,29
 637 1162 637 1162 730 1162 c 0,30,31
 916 1162 916 1162 1002.5 1063 c 128,-1,32
 1089 964 1089 964 1089 777 c 0,33,34
 1089 758 1089 758 1085 736 c 128,-1,35
 1081 714 1081 714 1060 691.5 c 128,-1,36
 1039 669 1039 669 995 646.5 c 128,-1,37
 951 624 951 624 871.5 604 c 128,-1,38
 792 584 792 584 671 567 c 128,-1,39
 550 550 550 550 375 538 c 1,40,41
 370 503 370 503 367 471 c 128,-1,42
 364 439 364 439 364 411 c 0,43,44
 364 271 364 271 432 202 c 128,-1,45
 500 133 500 133 620 133 c 0,46,47
 698 133 698 133 769.5 164.5 c 128,-1,48
 841 196 841 196 913 250 c 1,49,-1
 948 95 l 1,15,16
EndSplineSet
EndChar

StartChar: f
Encoding: 102 102 73
Width: 753
Flags: W
HStem: 0 21G<222 424.854> 1044 97<230 370 585 864> 1424 170<663.901 869.401>
VStem: 222 200<0 200> 370 201<1041.65 1044 1141 1274.21>
LayerCount: 2
Fore
SplineSet
758 1424 m 0,0,1
 729 1424 729 1424 703.5 1412.5 c 128,-1,2
 678 1401 678 1401 656 1369.5 c 128,-1,3
 634 1338 634 1338 616 1283 c 128,-1,4
 598 1228 598 1228 585 1141 c 1,5,-1
 876 1141 l 1,6,-1
 864 1044 l 1,7,-1
 571 1044 l 1,8,-1
 422 0 l 1,9,-1
 222 0 l 1,10,-1
 370 1044 l 1,11,-1
 218 1044 l 1,12,-1
 230 1141 l 1,13,-1
 384 1141 l 1,14,15
 410 1280 410 1280 447 1368 c 128,-1,16
 484 1456 484 1456 532 1506 c 128,-1,17
 580 1556 580 1556 638 1575 c 128,-1,18
 696 1594 696 1594 765 1594 c 0,19,20
 801 1594 801 1594 833 1582.5 c 128,-1,21
 865 1571 865 1571 890 1557 c 128,-1,22
 915 1543 915 1543 931.5 1530.5 c 128,-1,23
 948 1518 948 1518 954 1516 c 1,24,-1
 890 1363 l 1,25,26
 887 1364 887 1364 876.5 1373.5 c 128,-1,27
 866 1383 866 1383 849 1394 c 128,-1,28
 832 1405 832 1405 809 1414.5 c 128,-1,29
 786 1424 786 1424 758 1424 c 0,0,1
EndSplineSet
EndChar

StartChar: g
Encoding: 103 103 74
Width: 1108
Flags: W
HStem: -434 156<281.417 789.588> 1013 148<503.855 824.688 1007.4 1247>
VStem: 54 172<-226.479 -20.2664> 237 184<658.294 933.22> 879 176<-202.661 4.54761 679.988 960.767>
DStem2: 441.5 245.5 409 106 0.990365 -0.138483<-59.5121 426.026>
LayerCount: 2
Fore
SplineSet
421 781 m 0,0,1
 421 734 421 734 438 699.5 c 128,-1,2
 455 665 455 665 482 641.5 c 128,-1,3
 509 618 509 618 541.5 606 c 128,-1,4
 574 594 574 594 606 593 c 1,5,6
 681 597 681 597 734 615.5 c 128,-1,7
 787 634 787 634 820.5 665.5 c 128,-1,8
 854 697 854 697 869.5 740.5 c 128,-1,9
 885 784 885 784 885 840 c 0,10,11
 885 882 885 882 869 914.5 c 128,-1,12
 853 947 853 947 825 968.5 c 128,-1,13
 797 990 797 990 759.5 1001.5 c 128,-1,14
 722 1013 722 1013 680 1013 c 0,15,16
 611 1013 611 1013 561.5 996.5 c 128,-1,17
 512 980 512 980 481 950 c 128,-1,18
 450 920 450 920 435.5 877 c 128,-1,19
 421 834 421 834 421 781 c 0,0,1
226 -131 m 0,20,21
 226 -209 226 -209 299 -243.5 c 128,-1,22
 372 -278 372 -278 530 -278 c 0,23,24
 705 -278 705 -278 792 -232.5 c 128,-1,25
 879 -187 879 -187 879 -90 c 0,26,27
 879 -50 879 -50 859 -22 c 128,-1,28
 839 6 839 6 806.5 24.5 c 128,-1,29
 774 43 774 43 732 54.5 c 128,-1,30
 690 66 690 66 645 73 c 2,31,-1
 409 106 l 1,32,33
 322 49 322 49 274 -12.5 c 128,-1,34
 226 -74 226 -74 226 -131 c 0,20,21
1063 837 m 0,35,36
 1063 686 1063 686 961.5 588 c 128,-1,37
 860 490 860 490 658 442 c 1,38,-1
 406 386 l 2,39,40
 314 366 314 366 304 321 c 1,41,42
 313 291 313 291 351.5 273.5 c 128,-1,43
 390 256 390 256 441.5 245.5 c 128,-1,44
 493 235 493 235 550.5 228.5 c 128,-1,45
 608 222 608 222 655 215 c 0,46,47
 756 198 756 198 831 175 c 128,-1,48
 906 152 906 152 956 117 c 128,-1,49
 1006 82 1006 82 1030.5 32 c 128,-1,50
 1055 -18 1055 -18 1055 -88 c 0,51,52
 1055 -152 1055 -152 1032.5 -202.5 c 128,-1,53
 1010 -253 1010 -253 970.5 -291 c 128,-1,54
 931 -329 931 -329 877 -356.5 c 128,-1,55
 823 -384 823 -384 761.5 -401 c 128,-1,56
 700 -418 700 -418 632.5 -426 c 128,-1,57
 565 -434 565 -434 498 -434 c 0,58,59
 397 -434 397 -434 315.5 -415 c 128,-1,60
 234 -396 234 -396 175.5 -361.5 c 128,-1,61
 117 -327 117 -327 85.5 -279.5 c 128,-1,62
 54 -232 54 -232 54 -176 c 1,63,64
 58 -99 58 -99 84 -47 c 128,-1,65
 110 5 110 5 151 43 c 0,66,67
 169 60 169 60 191.5 76.5 c 128,-1,68
 214 93 214 93 234.5 107 c 128,-1,69
 255 121 255 121 270.5 131 c 128,-1,70
 286 141 286 141 290 145 c 1,71,72
 290 145 290 145 274 152 c 1,73,74
 257 158 257 158 236 171 c 128,-1,75
 215 184 215 184 195 201.5 c 128,-1,76
 175 219 175 219 169 240 c 1,77,78
 151 283 151 283 154 337 c 0,79,80
 157 400 157 400 205 440.5 c 128,-1,81
 253 481 253 481 353 506 c 2,82,-1
 455 532 l 1,83,84
 417 539 417 539 378.5 558 c 128,-1,85
 340 577 340 577 308.5 608.5 c 128,-1,86
 277 640 277 640 257 683 c 128,-1,87
 237 726 237 726 237 782 c 0,88,89
 237 860 237 860 265.5 929 c 128,-1,90
 294 998 294 998 349 1049.5 c 128,-1,91
 404 1101 404 1101 484 1131 c 128,-1,92
 564 1161 564 1161 668 1161 c 0,93,94
 751 1161 751 1161 814.5 1143.5 c 128,-1,95
 878 1126 878 1126 935 1085 c 1,96,97
 990 1111 990 1111 1035 1126.5 c 128,-1,98
 1080 1142 1080 1142 1125 1150 c 1,99,100
 1158 1159 1158 1159 1189 1163.5 c 128,-1,101
 1220 1168 1220 1168 1254 1171 c 1,102,-1
 1247 999 l 1,103,-1
 1001 999 l 1,104,105
 1035 945 1035 945 1049 907 c 128,-1,106
 1063 869 1063 869 1063 837 c 0,35,36
EndSplineSet
EndChar

StartChar: h
Encoding: 104 104 75
Width: 1173
Flags: W
HStem: 0 21G<128 338.841 839 1049.8> 1004 157<651.577 900.796>
VStem: 128 208<0 208> 839 208<0 208> 946 211<464.625 951.909>
DStem2: 128 0 336 0 0.140169 0.990128<29.1551 947.484 1013.87 1652.23> 839 0 1047 0 0.137307 0.990528<28.5599 806.372>
LayerCount: 2
Fore
SplineSet
571 1660 m 1,0,-1
 474 975 l 1,1,2
 520 1021 520 1021 562.5 1056 c 128,-1,3
 605 1091 605 1091 648.5 1114.5 c 128,-1,4
 692 1138 692 1138 738.5 1149.5 c 128,-1,5
 785 1161 785 1161 841 1161 c 0,6,7
 915 1161 915 1161 974 1141.5 c 128,-1,8
 1033 1122 1033 1122 1073.5 1082 c 128,-1,9
 1114 1042 1114 1042 1135.5 981.5 c 128,-1,10
 1157 921 1157 921 1157 839 c 0,11,12
 1157 808 1157 808 1154.5 775.5 c 128,-1,13
 1152 743 1152 743 1146 706 c 2,14,-1
 1047 0 l 1,15,-1
 839 0 l 1,16,-1
 939 708 l 2,17,18
 942 728 942 728 944 752 c 128,-1,19
 946 776 946 776 946 800 c 0,20,21
 946 903 946 903 906 953.5 c 128,-1,22
 866 1004 866 1004 781 1004 c 0,23,24
 728 1004 728 1004 678 988.5 c 128,-1,25
 628 973 628 973 585 950.5 c 128,-1,26
 542 928 542 928 509 903 c 128,-1,27
 476 878 476 878 458 859 c 1,28,-1
 336 0 l 1,29,-1
 128 0 l 1,30,-1
 359 1636 l 1,31,-1
 571 1660 l 1,0,-1
EndSplineSet
EndChar

StartChar: i
Encoding: 105 105 76
Width: 561
Flags: W
HStem: 0 21G<175 380.857> 1121 20G<333.178 541> 1338 263<413.916 566.656>
VStem: 175 203<0 203> 336 205<936 1141> 369 240<1379.7 1556.06>
DStem2: 175 0 378 0 0.141421 0.989949<28.7085 1152.3>
LayerCount: 2
Fore
SplineSet
609 1488 m 1,0,1
 607 1457 607 1457 596 1429.5 c 128,-1,2
 585 1402 585 1402 566.5 1382 c 128,-1,3
 548 1362 548 1362 523.5 1350 c 128,-1,4
 499 1338 499 1338 471 1338 c 0,5,6
 425 1338 425 1338 396.5 1369.5 c 128,-1,7
 368 1401 368 1401 369 1447 c 0,8,9
 369 1477 369 1477 380.5 1504.5 c 128,-1,10
 392 1532 392 1532 411 1553.5 c 128,-1,11
 430 1575 430 1575 455.5 1588 c 128,-1,12
 481 1601 481 1601 509 1601 c 0,13,14
 554 1601 554 1601 581.5 1571 c 128,-1,15
 609 1541 609 1541 609 1495 c 2,16,-1
 609 1488 l 1,0,1
378 0 m 1,17,-1
 175 0 l 1,18,-1
 336 1141 l 1,19,-1
 541 1141 l 1,20,-1
 378 0 l 1,17,-1
EndSplineSet
EndChar

StartChar: j
Encoding: 106 106 77
Width: 607
Flags: W
HStem: -369 21G<61 104.5> 1121 20G<391.23 604> 1338 263<463.59 618.592>
VStem: 394 210<931 1141> 419 241<1379.7 1556.81>
DStem2: 262 188 469 166 0.137153 0.99055<-262.648 962.098>
LayerCount: 2
Fore
SplineSet
660 1488 m 0,0,1
 659 1457 659 1457 648 1429.5 c 128,-1,2
 637 1402 637 1402 618 1382 c 128,-1,3
 599 1362 599 1362 574.5 1350 c 128,-1,4
 550 1338 550 1338 522 1338 c 0,5,6
 474 1338 474 1338 446.5 1369.5 c 128,-1,7
 419 1401 419 1401 419 1447 c 0,8,9
 419 1477 419 1477 430 1504.5 c 128,-1,10
 441 1532 441 1532 460.5 1553.5 c 128,-1,11
 480 1575 480 1575 505 1588 c 128,-1,12
 530 1601 530 1601 559 1601 c 0,13,14
 604 1601 604 1601 632 1571 c 128,-1,15
 660 1541 660 1541 660 1495 c 1,16,17
 661 1493 661 1493 660.5 1491.5 c 128,-1,18
 660 1490 660 1490 660 1488 c 0,0,1
30 -225 m 1,19,20
 88 -188 88 -188 127.5 -148 c 128,-1,21
 167 -108 167 -108 193 -59.5 c 128,-1,22
 219 -11 219 -11 235 49.5 c 128,-1,23
 251 110 251 110 262 188 c 2,24,-1
 394 1141 l 1,25,-1
 604 1141 l 1,26,-1
 469 166 l 2,27,28
 454 61 454 61 418 -28.5 c 128,-1,29
 382 -118 382 -118 329.5 -187 c 128,-1,30
 277 -256 277 -256 210 -303 c 128,-1,31
 143 -350 143 -350 66 -369 c 1,32,-1
 30 -225 l 1,19,20
EndSplineSet
EndChar

StartChar: k
Encoding: 107 107 78
Width: 1042
Flags: W
HStem: 0 21G<128 330.931 798.366 1021> 1121 20G<930.42 1181>
VStem: 128 200<0 200> 811 210<0 210> 951 230<911 1141>
DStem2: 128 0 328 0 0.141589 0.989926<28.3177 455.835 658.916 1651.38> 419 624 634 610 0.717523 0.696535<144.516 741.831> 634 610 492 505 0.535711 -0.844402<12.5913 609.906>
LayerCount: 2
Fore
SplineSet
390 423 m 1,0,-1
 328 0 l 1,1,-1
 128 0 l 1,2,-1
 360 1635 l 1,3,-1
 565 1657 l 1,4,-1
 419 624 l 1,5,-1
 951 1141 l 1,6,-1
 1181 1141 l 1,7,-1
 634 610 l 1,8,-1
 1021 0 l 1,9,-1
 811 0 l 1,10,-1
 492 505 l 1,11,-1
 390 423 l 1,0,-1
EndSplineSet
EndChar

StartChar: l
Encoding: 108 108 79
Width: 512
Flags: W
HStem: 0 21G<151 353.861>
VStem: 151 200<0 200>
DStem2: 151 0 351 0 0.141589 0.989926<28.3177 1649.4>
LayerCount: 2
Fore
SplineSet
588 1657 m 1,0,-1
 351 0 l 1,1,-1
 151 0 l 1,2,-1
 383 1633 l 1,3,-1
 588 1657 l 1,0,-1
EndSplineSet
EndChar

StartChar: m
Encoding: 109 109 80
Width: 1714
Flags: W
HStem: 0 21G<128 330.857 764 964.901 1382 1597> 1004 157<645.587 856.765 1262.32 1474.8> 1122 20G<288.145 441.769>
VStem: 128 200<0 200> 291 150<1041.56 1142> 764 198<0 198> 1382 201<0 201> 1499 200<507.508 964.803>
DStem2: 128 0 328 0 0.1413 0.989967<28.26 781.638> 764 0 962 0 0.140021 0.990149<27.7242 861.659> 1382 0 1583 0 0.13556 0.990769<27.2476 859.778>
LayerCount: 2
Fore
SplineSet
1445 1161 m 0,0,1
 1577 1161 1577 1161 1638.5 1086.5 c 128,-1,2
 1700 1012 1700 1012 1699 860 c 0,3,4
 1699 852 1699 852 1698 840.5 c 128,-1,5
 1697 829 1697 829 1693.5 799.5 c 128,-1,6
 1690 770 1690 770 1683 716 c 128,-1,7
 1676 662 1676 662 1663 569 c 128,-1,8
 1650 476 1650 476 1630.5 337.5 c 128,-1,9
 1611 199 1611 199 1583 0 c 1,10,-1
 1382 0 l 1,11,12
 1411 199 1411 199 1431 337.5 c 128,-1,13
 1451 476 1451 476 1464 568.5 c 128,-1,14
 1477 661 1477 661 1484 714.5 c 128,-1,15
 1491 768 1491 768 1494.5 796.5 c 128,-1,16
 1498 825 1498 825 1498.5 835 c 128,-1,17
 1499 845 1499 845 1499 852 c 0,18,19
 1499 928 1499 928 1473.5 966 c 128,-1,20
 1448 1004 1448 1004 1383 1004 c 0,21,22
 1298 1004 1298 1004 1216.5 944.5 c 128,-1,23
 1135 885 1135 885 1071 752 c 1,24,-1
 1067 724 l 1,25,-1
 962 0 l 1,26,-1
 764 0 l 1,27,28
 789 175 789 175 807.5 304.5 c 128,-1,29
 826 434 826 434 839 527.5 c 128,-1,30
 852 621 852 621 861 684.5 c 128,-1,31
 870 748 870 748 876 792 c 0,32,33
 880 819 880 819 880.5 831.5 c 128,-1,34
 881 844 881 844 881 854 c 0,35,36
 881 930 881 930 855.5 967 c 128,-1,37
 830 1004 830 1004 766 1004 c 0,38,39
 725 1004 725 1004 681 987 c 128,-1,40
 637 970 637 970 594 937 c 128,-1,41
 551 904 551 904 510.5 856 c 128,-1,42
 470 808 470 808 435 746 c 1,43,44
 433 738 433 738 432.5 730 c 128,-1,45
 432 722 432 722 430 714 c 2,46,-1
 328 0 l 1,47,-1
 128 0 l 1,48,-1
 291 1142 l 1,49,-1
 441 1142 l 1,50,-1
 450 908 l 1,51,52
 481 970 481 970 523 1017.5 c 128,-1,53
 565 1065 565 1065 613.5 1097 c 128,-1,54
 662 1129 662 1129 714.5 1145 c 128,-1,55
 767 1161 767 1161 819 1161 c 0,56,57
 940 1161 940 1161 1001.5 1098 c 128,-1,58
 1063 1035 1063 1035 1071 899 c 1,59,60
 1102 973 1102 973 1146 1023 c 128,-1,61
 1190 1073 1190 1073 1240 1104 c 128,-1,62
 1290 1135 1290 1135 1343 1148 c 128,-1,63
 1396 1161 1396 1161 1445 1161 c 0,0,1
EndSplineSet
EndChar

StartChar: n
Encoding: 110 110 81
Width: 1164
Flags: W
HStem: 0 21G<128 340.814 831 1049.5> 1004 157<666.353 895.502> 1121 20G<287.16 443.909>
VStem: 128 210<0 210> 290 153<1040.03 1141> 831 208<0 208> 938 212<468.305 959.702>
DStem2: 128 0 338 0 0.140571 0.990071<29.5199 939.058> 831 0 1039 0 0.134477 0.990917<27.9712 807.803>
LayerCount: 2
Fore
SplineSet
831 0 m 1,0,1
 854 163 854 163 871 283.5 c 128,-1,2
 888 404 888 404 900.5 491 c 128,-1,3
 913 578 913 578 921 637.5 c 128,-1,4
 929 697 929 697 934 739 c 0,5,6
 937 765 937 765 937.5 778 c 128,-1,7
 938 791 938 791 938 801 c 0,8,9
 938 848 938 848 930 885.5 c 128,-1,10
 922 923 922 923 904 949.5 c 128,-1,11
 886 976 886 976 855.5 990 c 128,-1,12
 825 1004 825 1004 780 1004 c 0,13,14
 741 1004 741 1004 694 988 c 128,-1,15
 647 972 647 972 601.5 948.5 c 128,-1,16
 556 925 556 925 517.5 899 c 128,-1,17
 479 873 479 873 458 853 c 1,18,-1
 338 0 l 1,19,-1
 128 0 l 1,20,-1
 290 1141 l 1,21,-1
 443 1141 l 1,22,-1
 451 965 l 1,23,24
 482 1001 482 1001 528.5 1036 c 128,-1,25
 575 1071 575 1071 629 1098.5 c 128,-1,26
 683 1126 683 1126 740 1143.5 c 128,-1,27
 797 1161 797 1161 849 1161 c 0,28,29
 1150 1161 1150 1161 1150 844 c 0,30,31
 1150 833 1150 833 1149.5 823 c 128,-1,32
 1149 813 1149 813 1147.5 799.5 c 128,-1,33
 1146 786 1146 786 1144 768 c 128,-1,34
 1142 750 1142 750 1139 725 c 0,35,36
 1133 676 1133 676 1124.5 611.5 c 128,-1,37
 1116 547 1116 547 1104 459.5 c 128,-1,38
 1092 372 1092 372 1076 259 c 128,-1,39
 1060 146 1060 146 1039 0 c 1,40,-1
 831 0 l 1,0,1
EndSplineSet
EndChar

StartChar: o
Encoding: 111 111 82
Width: 1154
Flags: W
HStem: -20 156<446.623 747.066> 1004 157<568.745 866.709>
VStem: 153 203<232.169 715.446> 957 203<424.656 907.265>
LayerCount: 2
Fore
SplineSet
153 429 m 0,0,1
 153 513 153 513 168 600.5 c 128,-1,2
 183 688 183 688 214.5 769 c 128,-1,3
 246 850 246 850 294 921.5 c 128,-1,4
 342 993 342 993 408 1046.5 c 128,-1,5
 474 1100 474 1100 558 1130.5 c 128,-1,6
 642 1161 642 1161 746 1161 c 0,7,8
 864 1161 864 1161 943.5 1124.5 c 128,-1,9
 1023 1088 1023 1088 1071 1026.5 c 128,-1,10
 1119 965 1119 965 1139.5 884.5 c 128,-1,11
 1160 804 1160 804 1160 716 c 0,12,13
 1160 567 1160 567 1118 433 c 128,-1,14
 1076 299 1076 299 998.5 198.5 c 128,-1,15
 921 98 921 98 811 39 c 128,-1,16
 701 -20 701 -20 566 -20 c 0,17,18
 471 -20 471 -20 395 10.5 c 128,-1,19
 319 41 319 41 265 99 c 128,-1,20
 211 157 211 157 182 240.5 c 128,-1,21
 153 324 153 324 153 429 c 0,0,1
591 136 m 0,22,23
 659 136 659 136 713 161.5 c 128,-1,24
 767 187 767 187 807.5 230 c 128,-1,25
 848 273 848 273 876.5 330 c 128,-1,26
 905 387 905 387 923 450 c 128,-1,27
 941 513 941 513 949 578.5 c 128,-1,28
 957 644 957 644 957 704 c 0,29,30
 957 768 957 768 945 823 c 128,-1,31
 933 878 933 878 905.5 918 c 128,-1,32
 878 958 878 958 833.5 981 c 128,-1,33
 789 1004 789 1004 723 1004 c 0,34,35
 653 1004 653 1004 598.5 976.5 c 128,-1,36
 544 949 544 949 503 903.5 c 128,-1,37
 462 858 462 858 434 799 c 128,-1,38
 406 740 406 740 388.5 676.5 c 128,-1,39
 371 613 371 613 363.5 549.5 c 128,-1,40
 356 486 356 486 356 433 c 0,41,42
 356 370 356 370 368 315.5 c 128,-1,43
 380 261 380 261 407.5 221.5 c 128,-1,44
 435 182 435 182 480 159 c 128,-1,45
 525 136 525 136 591 136 c 0,22,23
EndSplineSet
EndChar

StartChar: p
Encoding: 112 112 83
Width: 1171
Flags: W
HStem: -467 21G<70.8358 280> -20 156<507.041 792.006> 1004 157<653.055 899.319> 1121 20G<293.164 456.978>
VStem: 296 160<1039.89 1141> 968 208<410.656 927.504>
DStem2: 68 -467 280 -450 0.140387 0.990097<46.5937 654.705 751.598 1418.73>
LayerCount: 2
Fore
SplineSet
1176 714 m 0,0,1
 1176 627 1176 627 1161.5 539 c 128,-1,2
 1147 451 1147 451 1118 369.5 c 128,-1,3
 1089 288 1089 288 1045 217 c 128,-1,4
 1001 146 1001 146 942 93.5 c 128,-1,5
 883 41 883 41 808.5 10.5 c 128,-1,6
 734 -20 734 -20 643 -20 c 0,7,8
 598 -20 598 -20 556 -7 c 128,-1,9
 514 6 514 6 478 29.5 c 128,-1,10
 442 53 442 53 413.5 84.5 c 128,-1,11
 385 116 385 116 366 152 c 1,12,-1
 280 -450 l 1,13,-1
 68 -467 l 1,14,-1
 296 1141 l 1,15,-1
 456 1141 l 1,16,-1
 465 957 l 1,17,18
 501 1000 501 1000 542.5 1037.5 c 128,-1,19
 584 1075 584 1075 629 1102.5 c 128,-1,20
 674 1130 674 1130 720.5 1145.5 c 128,-1,21
 767 1161 767 1161 812 1161 c 0,22,23
 894 1161 894 1161 961 1135.5 c 128,-1,24
 1028 1110 1028 1110 1076 1056 c 128,-1,25
 1124 1002 1124 1002 1150 917 c 128,-1,26
 1176 832 1176 832 1176 714 c 0,0,1
968 679 m 1,27,28
 971 754 971 754 960 818 c 0,29,30
 944 914 944 914 900.5 959 c 128,-1,31
 857 1004 857 1004 785 1004 c 0,32,33
 710 1004 710 1004 627.5 968.5 c 128,-1,34
 545 933 545 933 466 861 c 1,35,-1
 385 288 l 1,36,37
 405 257 405 257 437 229.5 c 128,-1,38
 469 202 469 202 506 181 c 128,-1,39
 543 160 543 160 582 148 c 128,-1,40
 621 136 621 136 654 136 c 0,41,42
 716 136 716 136 763.5 162 c 128,-1,43
 811 188 811 188 845.5 231 c 128,-1,44
 880 274 880 274 903 330 c 128,-1,45
 926 386 926 386 940 446.5 c 128,-1,46
 954 507 954 507 960.5 567.5 c 128,-1,47
 967 628 967 628 968 679 c 1,27,28
EndSplineSet
EndChar

StartChar: q
Encoding: 113 113 84
Width: 1136
Flags: W
HStem: -479 21G<740.862 940> -20 156<433.561 677.452> 1004 157<550.666 809.722> 1122 20G<1008.52 1169>
VStem: 173 197<204.971 719.339>
DStem2: 738 -479 940 -462 0.141335 0.989962<45.379 635.406 717.121 1379.72>
LayerCount: 2
Fore
SplineSet
676 1161 m 0,0,1
 733 1161 733 1161 779 1142 c 128,-1,2
 825 1123 825 1123 860 1094 c 128,-1,3
 895 1065 895 1065 919 1029 c 128,-1,4
 943 993 943 993 956 960 c 1,5,-1
 1015 1142 l 1,6,-1
 1169 1142 l 1,7,-1
 940 -462 l 1,8,-1
 738 -479 l 1,9,-1
 828 150 l 1,10,11
 799 113 799 113 762.5 82 c 128,-1,12
 726 51 726 51 685 28.5 c 128,-1,13
 644 6 644 6 600.5 -7 c 128,-1,14
 557 -20 557 -20 515 -20 c 0,15,16
 418 -20 418 -20 352.5 17.5 c 128,-1,17
 287 55 287 55 247 116.5 c 128,-1,18
 207 178 207 178 190 257.5 c 128,-1,19
 173 337 173 337 173 420 c 0,20,21
 173 486 173 486 183 559.5 c 128,-1,22
 193 633 193 633 214 707 c 128,-1,23
 235 781 235 781 266 851 c 128,-1,24
 297 921 297 921 339 979 c 0,25,26
 399 1061 399 1061 482 1111 c 128,-1,27
 565 1161 565 1161 676 1161 c 0,0,1
371 445 m 1,28,29
 369 413 369 413 370 383 c 128,-1,30
 371 353 371 353 374 324 c 1,31,32
 380 284 380 284 392 249.5 c 128,-1,33
 404 215 404 215 424.5 190 c 128,-1,34
 445 165 445 165 475 150.5 c 128,-1,35
 505 136 505 136 546 136 c 0,36,37
 592 136 592 136 636 150 c 128,-1,38
 680 164 680 164 719 186 c 128,-1,39
 758 208 758 208 791 234 c 128,-1,40
 824 260 824 260 847 284 c 1,41,-1
 926 847 l 1,42,43
 910 870 910 870 884.5 897.5 c 128,-1,44
 859 925 859 925 826 948.5 c 128,-1,45
 793 972 793 972 752.5 988 c 128,-1,46
 712 1004 712 1004 667 1004 c 256,47,48
 622 1004 622 1004 583 982 c 128,-1,49
 544 960 544 960 512 921 c 128,-1,50
 480 882 480 882 454.5 829 c 128,-1,51
 429 776 429 776 411 713.5 c 128,-1,52
 393 651 393 651 383 582.5 c 128,-1,53
 373 514 373 514 371 445 c 1,28,29
EndSplineSet
EndChar

StartChar: r
Encoding: 114 114 85
Width: 722
Flags: W
HStem: 0 21G<128 330.831> 977 182<642.779 830.84>
VStem: 128 200<0 200> 290 152<1040.03 1141>
DStem2: 128 0 328 0 0.140571 0.990071<28.1142 876.1>
LayerCount: 2
Fore
SplineSet
451 907 m 1,0,1
 483 964 483 964 523.5 1010.5 c 128,-1,2
 564 1057 564 1057 606.5 1089.5 c 128,-1,3
 649 1122 649 1122 691 1140 c 128,-1,4
 733 1158 733 1158 768 1159 c 0,5,6
 795 1160 795 1160 820.5 1157 c 128,-1,7
 846 1154 846 1154 852 1154 c 1,8,-1
 831 968 l 1,9,10
 826 970 826 970 805.5 973.5 c 128,-1,11
 785 977 785 977 765 977 c 0,12,13
 718 977 718 977 671.5 957.5 c 128,-1,14
 625 938 625 938 582 908 c 128,-1,15
 539 878 539 878 502 843 c 128,-1,16
 465 808 465 808 438 777 c 1,17,-1
 328 0 l 1,18,-1
 128 0 l 1,19,-1
 290 1141 l 1,20,-1
 442 1141 l 1,21,-1
 451 907 l 1,0,1
EndSplineSet
EndChar

StartChar: s
Encoding: 115 115 86
Width: 925
Flags: W
HStem: -20 157<235.405 613.03> 1003 158<430.338 779.602>
VStem: 187 183<773.497 960.725> 697 194<216.094 438.622>
DStem2: 431 762.5 316.5 600 0.88659 -0.462556<-89.2262 426.216>
LayerCount: 2
Fore
SplineSet
187 846 m 0,0,1
 187 922 187 922 217.5 981 c 128,-1,2
 248 1040 248 1040 302 1080 c 128,-1,3
 356 1120 356 1120 430 1140.5 c 128,-1,4
 504 1161 504 1161 590 1161 c 0,5,6
 641 1161 641 1161 691 1151 c 128,-1,7
 741 1141 741 1141 787.5 1124.5 c 128,-1,8
 834 1108 834 1108 875.5 1087 c 128,-1,9
 917 1066 917 1066 950 1045 c 1,10,-1
 885 906 l 1,11,12
 862 919 862 919 828.5 936 c 128,-1,13
 795 953 795 953 755.5 968 c 128,-1,14
 716 983 716 983 673 993 c 128,-1,15
 630 1003 630 1003 587 1003 c 0,16,17
 487 1003 487 1003 428.5 970 c 128,-1,18
 370 937 370 937 370 871 c 0,19,20
 370 844 370 844 376 824.5 c 128,-1,21
 382 805 382 805 395.5 790 c 128,-1,22
 409 775 409 775 431 762.5 c 128,-1,23
 453 750 453 750 485 737 c 2,24,-1
 625 680 l 2,25,26
 676 659 676 659 724 633 c 128,-1,27
 772 607 772 607 809 572 c 128,-1,28
 846 537 846 537 868.5 492 c 128,-1,29
 891 447 891 447 891 388 c 0,30,31
 891 292 891 292 855.5 216 c 128,-1,32
 820 140 820 140 760 87.5 c 128,-1,33
 700 35 700 35 620.5 7.5 c 128,-1,34
 541 -20 541 -20 454 -20 c 0,35,36
 389 -20 389 -20 332 -9.5 c 128,-1,37
 275 1 275 1 228 18.5 c 128,-1,38
 181 36 181 36 144 57.5 c 128,-1,39
 107 79 107 79 83 100 c 1,40,-1
 146 233 l 1,41,42
 165 218 165 218 195.5 201 c 128,-1,43
 226 184 226 184 265 170 c 128,-1,44
 304 156 304 156 350.5 146.5 c 128,-1,45
 397 137 397 137 450 137 c 0,46,47
 504 137 504 137 549.5 151 c 128,-1,48
 595 165 595 165 627.5 191.5 c 128,-1,49
 660 218 660 218 678.5 257.5 c 128,-1,50
 697 297 697 297 697 348 c 0,51,52
 697 371 697 371 690 389.5 c 128,-1,53
 683 408 683 408 667.5 424.5 c 128,-1,54
 652 441 652 441 626.5 456 c 128,-1,55
 601 471 601 471 564 487 c 2,56,-1
 417 549 l 2,57,58
 360 573 360 573 316.5 600 c 128,-1,59
 273 627 273 627 244.5 662 c 128,-1,60
 216 697 216 697 201.5 741.5 c 128,-1,61
 187 786 187 786 187 846 c 0,0,1
EndSplineSet
EndChar

StartChar: t
Encoding: 116 116 87
Width: 759
Flags: W
HStem: -16 152<443.645 646.11> 1044 97<208 342 555 798> 1584 20G<547.786 618.149>
VStem: 233.5 198.5<168.491 359.568>
DStem2: 248 389 432 257 0.138951 0.990299<-190.885 661.707 787.363 1171.1>
LayerCount: 2
Fore
SplineSet
505 136 m 0,0,1
 539 136 539 136 575 149 c 128,-1,2
 611 162 611 162 641 178 c 0,3,4
 677 197 677 197 709 220 c 1,5,-1
 776 99 l 2,6,7
 775 99 775 99 748.5 81 c 128,-1,8
 722 63 722 63 678.5 41.5 c 128,-1,9
 635 20 635 20 579 2 c 128,-1,10
 523 -16 523 -16 463 -16 c 0,11,12
 413 -16 413 -16 372.5 0 c 128,-1,13
 332 16 332 16 302 46.5 c 128,-1,14
 272 77 272 77 255 121.5 c 128,-1,15
 238 166 238 166 235 223 c 1,16,17
 233 234 233 234 233.5 247.5 c 128,-1,18
 234 261 234 261 236 285 c 1,19,20
 237 321 237 321 248 389 c 1,21,-1
 342 1044 l 1,22,-1
 195 1044 l 1,23,-1
 208 1141 l 1,24,-1
 358 1141 l 1,25,-1
 416 1548 l 1,26,-1
 621 1604 l 1,27,-1
 555 1141 l 1,28,-1
 813 1141 l 1,29,-1
 798 1044 l 1,30,-1
 542 1044 l 1,31,-1
 432 257 l 2,32,33
 424 199 424 199 446.5 167.5 c 128,-1,34
 469 136 469 136 505 136 c 0,0,1
EndSplineSet
EndChar

StartChar: u
Encoding: 117 117 88
Width: 1172
Flags: W
HStem: -20 156<440.948 687.252> 0 21G<874.5 1030.8> 1121 20G<285 495 977.173 1188>
VStem: 178 211<192.093 677.547> 876 152<0 102.234> 980 208<933 1141>
DStem2: 185 385.5 391 367.5 0.133255 0.991082<-71.3508 762.221> 858 278 1028 0 0.138869 0.990311<-50.2685 871.58>
LayerCount: 2
Fore
SplineSet
495 1141 m 1,0,1
 493 1128 493 1128 487 1083 c 128,-1,2
 481 1038 481 1038 472 974 c 128,-1,3
 463 910 463 910 453 833.5 c 128,-1,4
 443 757 443 757 432.5 680 c 128,-1,5
 422 603 422 603 412.5 532.5 c 128,-1,6
 403 462 403 462 396 410 c 0,7,8
 393 384 393 384 391 367.5 c 128,-1,9
 389 351 389 351 389 346 c 0,10,11
 388 283 388 283 404 241 c 1,12,13
 420 189 420 189 458 163 c 128,-1,14
 496 137 496 137 553 136 c 1,15,16
 634 137 634 137 708.5 173 c 128,-1,17
 783 209 783 209 858 278 c 1,18,-1
 980 1141 l 1,19,-1
 1188 1141 l 1,20,-1
 1028 0 l 1,21,-1
 876 0 l 1,22,23
 873 45 873 45 869.5 87 c 128,-1,24
 866 129 866 129 864 174 c 1,25,26
 785 80 785 80 698 30 c 128,-1,27
 611 -20 611 -20 514 -20 c 0,28,29
 178 -20 178 -20 178 314 c 0,30,31
 178 328 178 328 185 385.5 c 128,-1,32
 192 443 192 443 202 522 c 0,33,34
 210 583 210 583 219 649 c 128,-1,35
 228 715 228 715 236.5 779.5 c 128,-1,36
 245 844 245 844 253 904 c 128,-1,37
 261 964 261 964 267.5 1012.5 c 128,-1,38
 274 1061 274 1061 279 1095 c 128,-1,39
 284 1129 284 1129 286 1141 c 1,40,-1
 495 1141 l 1,0,1
EndSplineSet
EndChar

StartChar: v
Encoding: 118 118 89
Width: 966
Flags: W
HStem: 0 21G<359.775 604.694> 1121 20G<179 370.81 879.988 1092>
VStem: 179 189<952 1141>
DStem2: 368 1141 179 1141 0.159205 -0.987246<0 970.236>
LayerCount: 2
Fore
SplineSet
596 0 m 1,0,-1
 363 0 l 1,1,-1
 179 1141 l 1,2,-1
 368 1141 l 1,3,-1
 503 180 l 1,4,-1
 888 1141 l 1,5,-1
 1092 1141 l 1,6,-1
 596 0 l 1,0,-1
EndSplineSet
EndChar

StartChar: w
Encoding: 119 119 90
Width: 1416
Flags: W
HStem: 0 21G<293 516.025 882.969 1109.74> 1120 20G<181 365.55 751.185 955.339 1348.79 1543>
VStem: 181 183<957 1140>
DStem2: 364 1140 181 1140 0.0995037 -0.995037<0 944.589> 437 198 509 0 0.322551 0.946552<0 822.521> 954 1140 836 931 0.0668005 -0.997766<200.651 943.107> 1017 199 1102 0 0.360788 0.932648<0 999.929>
LayerCount: 2
Fore
SplineSet
884 0 m 1,0,-1
 836 931 l 1,1,-1
 509 0 l 1,2,-1
 295 0 l 1,3,-1
 181 1140 l 1,4,-1
 364 1140 l 1,5,-1
 437 198 l 1,6,-1
 758 1140 l 1,7,-1
 954 1140 l 1,8,-1
 1017 199 l 1,9,-1
 1356 1140 l 1,10,-1
 1543 1140 l 1,11,-1
 1102 0 l 1,12,-1
 884 0 l 1,0,-1
EndSplineSet
EndChar

StartChar: x
Encoding: 120 120 91
Width: 1003
Flags: W
HStem: 0 21G<45 281.069 735.184 959> 1121 20G<213 448.085 904.437 1139>
VStem: 919 220<921 1141>
DStem2: 611 718 692 571 0.608096 0.793864<-779.179 -247.771 0 523.098>
LayerCount: 2
Fore
SplineSet
573 435 m 1,0,-1
 267 0 l 1,1,-1
 45 0 l 1,2,-1
 492 571 l 1,3,-1
 213 1141 l 1,4,-1
 440 1141 l 1,5,-1
 611 718 l 1,6,-1
 919 1141 l 1,7,-1
 1139 1141 l 1,8,-1
 692 571 l 1,9,-1
 959 0 l 1,10,-1
 743 0 l 1,11,-1
 573 435 l 1,0,-1
EndSplineSet
EndChar

StartChar: y
Encoding: 121 121 92
Width: 1029
Flags: W
HStem: -465 156<96.6917 206.633> 1121 20G<186 388.056 932.147 1149>
VStem: 186 198<943 1141>
DStem2: 384 1141 186 1141 0.222801 -0.974864<0 880.298> 439 34 571.5 -85 0.426135 0.90466<-306.237 0 271.873 1215.38>
LayerCount: 2
Fore
SplineSet
64 -309 m 1,0,1
 99 -302 99 -302 129.5 -294 c 128,-1,2
 160 -286 160 -286 186 -274 c 1,3,4
 270 -239 270 -239 330.5 -159.5 c 128,-1,5
 391 -80 391 -80 439 34 c 1,6,-1
 414 145 l 1,7,-1
 186 1141 l 1,8,-1
 384 1141 l 1,9,-1
 559 278 l 1,10,-1
 941 1141 l 1,11,-1
 1149 1141 l 1,12,-1
 642 61 l 2,13,14
 609 -10 609 -10 571.5 -85 c 128,-1,15
 534 -160 534 -160 486 -227.5 c 128,-1,16
 438 -295 438 -295 377 -349.5 c 128,-1,17
 316 -404 316 -404 237 -434 c 0,18,19
 206 -445 206 -445 172 -453 c 128,-1,20
 138 -461 138 -461 100 -465 c 1,21,-1
 64 -309 l 1,0,1
EndSplineSet
EndChar

StartChar: z
Encoding: 122 122 93
Width: 866
Flags: W
HStem: 0 156<289 789> 985 156<263 730>
DStem2: 106 181 289 156 0.615226 0.78835<92.8777 1017.74>
LayerCount: 2
Fore
SplineSet
730 985 m 1,0,-1
 243 985 l 1,1,-1
 263 1141 l 1,2,-1
 942 1141 l 1,3,-1
 918 962 l 1,4,-1
 289 156 l 1,5,-1
 795 156 l 1,6,-1
 789 0 l 1,7,-1
 83 0 l 1,8,-1
 106 181 l 1,9,-1
 730 985 l 1,0,-1
EndSplineSet
EndChar

StartChar: braceleft
Encoding: 123 123 94
Width: 895
Flags: W
HStem: -56 20G<627.143 628> 1329.5 169<669.683 819>
VStem: 274 201<9.22046 378.126> 292 197<151.719 536.348>
LayerCount: 2
Fore
SplineSet
578 1002 m 0,0,1
 567 923 567 923 546.5 863 c 128,-1,2
 526 803 526 803 497.5 760 c 128,-1,3
 469 717 469 717 434 689.5 c 128,-1,4
 399 662 399 662 359 648 c 1,5,6
 414 623 414 623 451 561.5 c 128,-1,7
 488 500 488 500 489 395 c 0,8,9
 489 347 489 347 482.5 300 c 128,-1,10
 476 253 476 253 475 202 c 0,11,12
 474 160 474 160 478 121.5 c 128,-1,13
 482 83 482 83 493 53.5 c 128,-1,14
 504 24 504 24 522.5 5 c 128,-1,15
 541 -14 541 -14 570 -18 c 1,16,17
 574 -27 574 -27 582 -30.5 c 128,-1,18
 590 -34 590 -34 599.5 -35.5 c 128,-1,19
 609 -37 609 -37 617.5 -36.5 c 128,-1,20
 626 -36 626 -36 630 -36 c 1,21,-1
 605 -211 l 1,22,23
 602 -211 602 -211 594.5 -211.5 c 128,-1,24
 587 -212 587 -212 577.5 -213 c 128,-1,25
 568 -214 568 -214 558 -214.5 c 128,-1,26
 548 -215 548 -215 541 -215 c 0,27,28
 482 -213 482 -213 433 -186 c 128,-1,29
 384 -159 384 -159 349 -111 c 128,-1,30
 314 -63 314 -63 294 3 c 128,-1,31
 274 69 274 69 274 150 c 0,32,33
 274 205 274 205 282 262.5 c 128,-1,34
 290 320 290 320 292 380 c 0,35,36
 292 405 292 405 290 426 c 128,-1,37
 288 447 288 447 284 466 c 0,38,39
 266 553 266 553 199 553 c 1,40,-1
 226 742 l 1,41,42
 289 742 289 742 329 811.5 c 128,-1,43
 369 881 369 881 389 1032 c 0,44,45
 402 1131 402 1131 427 1205 c 128,-1,46
 452 1279 452 1279 486 1331.5 c 128,-1,47
 520 1384 520 1384 561.5 1418 c 128,-1,48
 603 1452 603 1452 649 1471.5 c 128,-1,49
 695 1491 695 1491 744 1498.5 c 128,-1,50
 793 1506 793 1506 842 1506 c 1,51,-1
 819 1331 l 1,52,53
 791 1331 791 1331 765.5 1329.5 c 128,-1,54
 740 1328 740 1328 717 1318.5 c 128,-1,55
 694 1309 694 1309 673.5 1289 c 128,-1,56
 653 1269 653 1269 635.5 1232.5 c 128,-1,57
 618 1196 618 1196 603.5 1140 c 128,-1,58
 589 1084 589 1084 578 1002 c 0,0,1
EndSplineSet
EndChar

StartChar: bar
Encoding: 124 124 95
Width: 608
Flags: W
VStem: 232 196<-113 83> 424 195<1505 1700>
DStem2: 232 -113 428 -113 0.105313 0.994439<20.6413 1823.14>
LayerCount: 2
Fore
SplineSet
232 -113 m 1,0,-1
 424 1700 l 1,1,-1
 619 1700 l 1,2,-1
 428 -113 l 1,3,-1
 232 -113 l 1,0,-1
EndSplineSet
EndChar

StartChar: braceright
Encoding: 125 125 96
Width: 892
Flags: W
HStem: -211 175<144 280.16> 1331 175<382 480.465>
VStem: 475 182<753.436 1173.78> 502 181<885.878 1310.38>
LayerCount: 2
Fore
SplineSet
475 878 m 0,0,1
 475 915 475 915 479 951 c 128,-1,2
 483 987 483 987 488.5 1024 c 128,-1,3
 494 1061 494 1061 498 1098.5 c 128,-1,4
 502 1136 502 1136 502 1175 c 0,5,6
 502 1226 502 1226 493 1257 c 128,-1,7
 484 1288 484 1288 466 1304.5 c 128,-1,8
 448 1321 448 1321 420 1326 c 128,-1,9
 392 1331 392 1331 355 1331 c 1,10,-1
 382 1506 l 1,11,12
 440 1506 440 1506 494 1493.5 c 128,-1,13
 548 1481 548 1481 590 1446 c 128,-1,14
 632 1411 632 1411 657.5 1348.5 c 128,-1,15
 683 1286 683 1286 683 1186 c 0,16,17
 683 1155 683 1155 679 1115 c 128,-1,18
 675 1075 675 1075 670 1033 c 128,-1,19
 665 991 665 991 661 952 c 128,-1,20
 657 913 657 913 657 885 c 0,21,22
 659 742 659 742 739 742 c 1,23,-1
 711 553 l 1,24,25
 652 553 652 553 613 483.5 c 128,-1,26
 574 414 574 414 551 263 c 0,27,28
 535 162 535 162 509 87.5 c 128,-1,29
 483 13 483 13 450 -39.5 c 128,-1,30
 417 -92 417 -92 377.5 -125.5 c 128,-1,31
 338 -159 338 -159 295 -178 c 128,-1,32
 252 -197 252 -197 207 -204 c 128,-1,33
 162 -211 162 -211 118 -211 c 1,34,-1
 144 -36 l 1,35,36
 187 -36 187 -36 221.5 -28 c 128,-1,37
 256 -20 256 -20 284.5 12.5 c 128,-1,38
 313 45 313 45 335.5 111 c 128,-1,39
 358 177 358 177 376 293 c 0,40,41
 388 374 388 374 410.5 434.5 c 128,-1,42
 433 495 433 495 461.5 538 c 128,-1,43
 490 581 490 581 523.5 608 c 128,-1,44
 557 635 557 635 590 648 c 1,45,46
 536 671 536 671 505.5 725.5 c 128,-1,47
 475 780 475 780 475 878 c 0,0,1
EndSplineSet
EndChar

StartChar: asciitilde
Encoding: 126 126 97
Width: 814
Flags: W
HStem: 131 161<519.877 678.236> 259 162<263.179 413.685>
VStem: 85 158<142 229.602> 698 160<320.366 401>
DStem2: 411 401 371 239 0.865426 -0.501036<-10.4952 241.462>
LayerCount: 2
Fore
SplineSet
630 131 m 0,0,1
 583 131 583 131 536 151 c 128,-1,2
 489 171 489 171 447 195 c 128,-1,3
 405 219 405 219 371 239 c 128,-1,4
 337 259 337 259 316 259 c 0,5,6
 281 259 281 259 265.5 230.5 c 128,-1,7
 250 202 250 202 243 142 c 1,8,-1
 85 142 l 1,9,10
 121 421 121 421 318 421 c 0,11,12
 369 421 369 421 411 401 c 128,-1,13
 453 381 453 381 489.5 356.5 c 128,-1,14
 526 332 526 332 559.5 312 c 128,-1,15
 593 292 593 292 628 292 c 0,16,17
 662 292 662 292 676 319.5 c 128,-1,18
 690 347 690 347 698 401 c 1,19,-1
 858 401 l 1,20,21
 822 131 822 131 630 131 c 0,0,1
EndSplineSet
EndChar

StartChar: exclamdown
Encoding: 161 161 98
Width: 749
Flags: W
HStem: 1292 297<426.874 612.866>
VStem: 425 229<1469.13 1584.6>
LayerCount: 2
Fore
SplineSet
654 1581 m 1,0,1
 658 1537 658 1537 652 1485 c 1,2,3
 648 1428 648 1428 630 1379 c 128,-1,4
 612 1330 612 1330 590 1292 c 1,5,6
 524 1292 524 1292 463.5 1301 c 128,-1,7
 403 1310 403 1310 352 1324 c 1,8,9
 359 1399 359 1399 379.5 1467 c 128,-1,10
 400 1535 400 1535 425 1592 c 1,11,12
 485 1592 485 1592 541 1589 c 128,-1,13
 597 1586 597 1586 654 1581 c 1,0,1
187 2 m 1,14,-1
 422 1179 l 1,15,-1
 545 1179 l 1,16,-1
 465 2 l 1,17,-1
 187 2 l 1,14,-1
EndSplineSet
EndChar

StartChar: cent
Encoding: 162 162 99
Width: 1074
Flags: W
HStem: -16 162<701 856.903> 1012 167<560.043 716.842>
VStem: 165 204<251.147 742.75> 552 103<-145 -42> 767 105<1213 1318>
DStem2: 552 -145 655 -150 0.146622 0.989193<10.1561 127.277 309.702 1169.68 1344.75 1478.71>
LayerCount: 2
Fore
SplineSet
165 442 m 0,0,1
 164 575 164 575 196.5 698 c 128,-1,2
 229 821 229 821 292.5 919 c 128,-1,3
 356 1017 356 1017 448 1083 c 128,-1,4
 540 1149 540 1149 659 1169 c 0,5,6
 679 1173 679 1173 700.5 1175.5 c 128,-1,7
 722 1178 722 1178 745 1179 c 1,8,-1
 767 1318 l 1,9,-1
 872 1314 l 1,10,-1
 850 1171 l 1,11,12
 907 1164 907 1164 959.5 1145.5 c 128,-1,13
 1012 1127 1012 1127 1055 1104 c 1,14,-1
 1037 941 l 1,15,16
 1034 943 1034 943 1018.5 951.5 c 128,-1,17
 1003 960 1003 960 976 971 c 128,-1,18
 949 982 949 982 910.5 992 c 128,-1,19
 872 1002 872 1002 824 1007 c 1,20,-1
 701 146 l 1,21,22
 738 150 738 150 777 160 c 128,-1,23
 816 170 816 170 848 181 c 2,24,-1
 916 205 l 1,25,-1
 911 49 l 1,26,27
 854 26 854 26 794 8 c 128,-1,28
 734 -10 734 -10 676 -16 c 1,29,-1
 655 -150 l 1,30,-1
 552 -145 l 1,31,-1
 570 -19 l 1,32,33
 478 -16 478 -16 403.5 15.5 c 128,-1,34
 329 47 329 47 276.5 105.5 c 128,-1,35
 224 164 224 164 195 248.5 c 128,-1,36
 166 333 166 333 165 442 c 0,0,1
717 1013 m 1,37,38
 712 1012 712 1012 699 1012 c 128,-1,39
 686 1012 686 1012 677 1010 c 1,40,41
 602 1006 602 1006 544.5 956 c 128,-1,42
 487 906 487 906 448 827 c 128,-1,43
 409 748 409 748 389 648 c 128,-1,44
 369 548 369 548 369 444 c 0,45,46
 370 303 370 303 427.5 232 c 128,-1,47
 485 161 485 161 597 149 c 1,48,-1
 717 1013 l 1,37,38
EndSplineSet
EndChar

StartChar: sterling
Encoding: 163 163 100
Width: 1141
Flags: W
HStem: 0 158<321 888> 576 111<182 327 501.157 902> 1157 171<536.386 881.452>
VStem: 254 184<733.303 1060> 336 172<397.897 576>
DStem2: 1029.5 1232.5 947 1075 0.818413 -0.57463<-175.372 62.0601>
LayerCount: 2
Fore
SplineSet
704 1157 m 0,0,1
 633 1157 633 1157 582.5 1136.5 c 128,-1,2
 532 1116 532 1116 500 1081.5 c 128,-1,3
 468 1047 468 1047 453 1001 c 128,-1,4
 438 955 438 955 438 903 c 0,5,6
 438 867 438 867 444.5 834 c 128,-1,7
 451 801 451 801 461 773.5 c 128,-1,8
 471 746 471 746 483 724 c 128,-1,9
 495 702 495 702 506 687 c 1,10,-1
 917 687 l 1,11,-1
 902 576 l 1,12,-1
 508 576 l 1,13,14
 494 472 494 472 465 395.5 c 128,-1,15
 436 319 436 319 406 268 c 128,-1,16
 376 217 376 217 351.5 190 c 128,-1,17
 327 163 327 163 321 158 c 1,18,-1
 908 158 l 1,19,-1
 888 0 l 1,20,-1
 124 0 l 1,21,-1
 141 160 l 1,22,23
 155 173 155 173 180.5 201.5 c 128,-1,24
 206 230 206 230 235 278 c 0,25,26
 248 300 248 300 262.5 329 c 128,-1,27
 277 358 277 358 290.5 395 c 128,-1,28
 304 432 304 432 316 477 c 128,-1,29
 328 522 328 522 336 576 c 1,30,-1
 167 576 l 1,31,-1
 182 685 l 1,32,-1
 327 685 l 1,33,34
 291 739 291 739 273 798.5 c 128,-1,35
 255 858 255 858 254 915 c 0,36,37
 253 991 253 991 285.5 1065 c 128,-1,38
 318 1139 318 1139 376 1197.5 c 128,-1,39
 434 1256 434 1256 513.5 1292 c 128,-1,40
 593 1328 593 1328 687 1328 c 0,41,42
 769 1328 769 1328 834.5 1313 c 128,-1,43
 900 1298 900 1298 948.5 1276.5 c 128,-1,44
 997 1255 997 1255 1029.5 1232.5 c 128,-1,45
 1062 1210 1062 1210 1079 1195 c 1,46,-1
 994 1042 l 1,47,48
 976 1055 976 1055 947 1075 c 128,-1,49
 918 1095 918 1095 880.5 1113 c 128,-1,50
 843 1131 843 1131 798 1144 c 128,-1,51
 753 1157 753 1157 704 1157 c 0,0,1
EndSplineSet
EndChar

StartChar: currency
Encoding: 164 164 101
Width: 1343
Flags: W
HStem: 557 152<565.794 837.683> 1265 155<642.348 910.904>
VStem: 332 144<800.354 1093.56> 1001 145<880.793 1175.18>
DStem2: 167 554 268 427 0.72869 0.684843<0 276.297 1153.87 1423.4> 415 1538 281 1412 0.623727 -0.781642<14.9075 255.622 1006.36 1259.39>
LayerCount: 2
Fore
SplineSet
1001 1036 m 0,0,1
 1001 1084 1001 1084 983.5 1126 c 128,-1,2
 966 1168 966 1168 936.5 1198.5 c 128,-1,3
 907 1229 907 1229 867.5 1247 c 128,-1,4
 828 1265 828 1265 784 1265 c 0,5,6
 727 1265 727 1265 671.5 1237.5 c 128,-1,7
 616 1210 616 1210 572.5 1164.5 c 128,-1,8
 529 1119 529 1119 502.5 1060.5 c 128,-1,9
 476 1002 476 1002 476 940 c 0,10,11
 476 889 476 889 493.5 847 c 128,-1,12
 511 805 511 805 541.5 774 c 128,-1,13
 572 743 572 743 612.5 726 c 128,-1,14
 653 709 653 709 698 709 c 0,15,16
 755 709 755 709 809.5 737.5 c 128,-1,17
 864 766 864 766 906.5 812 c 128,-1,18
 949 858 949 858 975 916.5 c 128,-1,19
 1001 975 1001 975 1001 1036 c 0,0,1
1113 1223 m 1,20,21
 1130 1190 1130 1190 1137.5 1152 c 128,-1,22
 1145 1114 1145 1114 1146 1069 c 1,23,24
 1146 899 1146 899 1038 758 c 1,25,-1
 1201 554 l 1,26,-1
 1067 427 l 1,27,-1
 903 633 l 1,28,29
 788 557 788 557 666 557 c 0,30,31
 553 557 553 557 471 618 c 1,32,-1
 268 427 l 1,33,-1
 167 554 l 1,34,-1
 369 743 l 1,35,36
 332 821 332 821 332 909 c 1,37,38
 330 1077 330 1077 438 1216 c 1,39,-1
 281 1412 l 1,40,-1
 415 1538 l 1,41,-1
 572 1342 l 1,42,43
 684 1420 684 1420 811 1420 c 0,44,45
 926 1420 926 1420 1015 1351 c 1,46,-1
 1214 1538 l 1,47,-1
 1314 1412 l 1,48,-1
 1113 1223 l 1,20,21
EndSplineSet
EndChar

StartChar: yen
Encoding: 165 165 102
Width: 1159
Flags: W
HStem: 0 21G<429 643.717> 368 129<210 479 709 974> 627 129<245 489 788 1009> 1566 20G<198 411.487 1084.86 1306>
VStem: 198 207<1379 1586> 429 212<0 212> 1097 209<1377 1586>
DStem2: 405 1586 198 1586 0.330857 -0.943681<0 780.891> 429 0 641 0 0.134633 0.990896<28.5421 371.381> 646 843 788 756 0.529448 0.848343<1.37575 869.099>
LayerCount: 2
Fore
SplineSet
646 843 m 1,0,-1
 1097 1586 l 1,1,-1
 1306 1586 l 1,2,-1
 788 756 l 1,3,-1
 1027 756 l 1,4,-1
 1009 627 l 1,5,-1
 740 627 l 1,6,-1
 709 497 l 1,7,-1
 992 497 l 1,8,-1
 974 368 l 1,9,-1
 691 368 l 1,10,-1
 641 0 l 1,11,-1
 429 0 l 1,12,-1
 479 368 l 1,13,-1
 192 368 l 1,14,-1
 210 497 l 1,15,-1
 497 497 l 1,16,-1
 501 627 l 1,17,-1
 228 627 l 1,18,-1
 245 756 l 1,19,-1
 489 756 l 1,20,-1
 198 1586 l 1,21,-1
 405 1586 l 1,22,-1
 646 843 l 1,0,-1
EndSplineSet
EndChar

StartChar: brokenbar
Encoding: 166 166 103
Width: 590
Flags: W
HStem: -35 21G<162 367.72> 1583 20G<389.041 588>
VStem: 162 203<-35 168> 259 202<469 671> 288 204<900 1104> 392 196<1407 1603>
DStem2: 162 -35 365 -35 0.139051 0.990285<28.2274 712.629 971.804 1654.07>
LayerCount: 2
Fore
SplineSet
162 -35 m 1,0,-1
 259 671 l 1,1,-1
 461 671 l 1,2,-1
 365 -35 l 1,3,-1
 162 -35 l 1,0,-1
288 900 m 1,4,-1
 392 1603 l 1,5,-1
 588 1603 l 1,6,-1
 492 900 l 1,7,-1
 288 900 l 1,4,-1
EndSplineSet
EndChar

StartChar: section
Encoding: 167 167 104
Width: 1051
Flags: W
HStem: -100 166<285.893 632.582> 1409 167<482 824.867>
VStem: 190 167<644.73 844.393> 259 169<1183.56 1356.96> 705 181<135.106 350.179> 781 173<668.055 864.453>
DStem2: 330.5 91 278 -72.5 0.959726 -0.280938<-161.854 120.81>
LayerCount: 2
Fore
SplineSet
259 1227 m 0,0,1
 258 1301 258 1301 286 1365 c 128,-1,2
 314 1429 314 1429 366.5 1476 c 128,-1,3
 419 1523 419 1523 494.5 1549.5 c 128,-1,4
 570 1576 570 1576 665 1576 c 0,5,6
 719 1576 719 1576 773 1561 c 128,-1,7
 827 1546 827 1546 872.5 1525.5 c 128,-1,8
 918 1505 918 1505 952 1483.5 c 128,-1,9
 986 1462 986 1462 1000 1449 c 1,10,-1
 919 1297 l 1,11,12
 865 1348 865 1348 795 1378.5 c 128,-1,13
 725 1409 725 1409 653 1409 c 0,14,15
 587 1409 587 1409 543.5 1395 c 128,-1,16
 500 1381 500 1381 474.5 1359 c 128,-1,17
 449 1337 449 1337 438.5 1309 c 128,-1,18
 428 1281 428 1281 428 1253 c 0,19,20
 428 1237 428 1237 434 1223.5 c 128,-1,21
 440 1210 440 1210 454.5 1197 c 128,-1,22
 469 1184 469 1184 492.5 1171.5 c 128,-1,23
 516 1159 516 1159 551 1145 c 2,24,-1
 688 1089 l 2,25,26
 764 1058 764 1058 815 1027 c 128,-1,27
 866 996 866 996 897 962.5 c 128,-1,28
 928 929 928 929 941 892 c 128,-1,29
 954 855 954 855 954 812 c 0,30,31
 955 732 955 732 929.5 678 c 128,-1,32
 904 624 904 624 865.5 590.5 c 128,-1,33
 827 557 827 557 782.5 540.5 c 128,-1,34
 738 524 738 524 701 518 c 1,35,36
 885 443 885 443 886 277 c 0,37,38
 886 206 886 206 864 142 c 128,-1,39
 842 78 842 78 796 28 c 128,-1,40
 750 -22 750 -22 679.5 -55 c 128,-1,41
 609 -88 609 -88 513 -97 c 0,42,43
 491 -99 491 -99 468.5 -100.5 c 128,-1,44
 446 -102 446 -102 422 -100 c 1,45,46
 389 -99 389 -99 351.5 -91.5 c 128,-1,47
 314 -84 314 -84 278 -72.5 c 128,-1,48
 242 -61 242 -61 209 -46 c 128,-1,49
 176 -31 176 -31 152 -14 c 1,50,51
 136 -5 136 -5 123.5 4 c 128,-1,52
 111 13 111 13 103 23 c 1,53,-1
 187 180 l 1,54,55
 209 156 209 156 231 143 c 1,56,57
 251 129 251 129 276.5 115.5 c 128,-1,58
 302 102 302 102 330.5 91 c 128,-1,59
 359 80 359 80 389.5 73 c 128,-1,60
 420 66 420 66 450 66 c 0,61,62
 530 66 530 66 580 84.5 c 128,-1,63
 630 103 630 103 657.5 131.5 c 128,-1,64
 685 160 685 160 695 193 c 128,-1,65
 705 226 705 226 705 255 c 0,66,67
 705 283 705 283 696.5 304 c 128,-1,68
 688 325 688 325 670.5 341.5 c 128,-1,69
 653 358 653 358 626.5 371.5 c 128,-1,70
 600 385 600 385 565 399 c 2,71,-1
 423 454 l 2,72,73
 357 479 357 479 312.5 505 c 128,-1,74
 268 531 268 531 241 560.5 c 128,-1,75
 214 590 214 590 202.5 625 c 128,-1,76
 191 660 191 660 190 703 c 1,77,78
 190 789 190 789 218.5 844.5 c 128,-1,79
 247 900 247 900 287.5 933 c 128,-1,80
 328 966 328 966 372.5 980.5 c 128,-1,81
 417 995 417 995 449 1000 c 1,82,83
 396 1022 396 1022 360 1046.5 c 128,-1,84
 324 1071 324 1071 301.5 1099 c 128,-1,85
 279 1127 279 1127 269 1159 c 128,-1,86
 259 1191 259 1191 259 1227 c 0,0,1
587 895 m 0,87,88
 472 895 472 895 414.5 855 c 128,-1,89
 357 815 357 815 357 730 c 0,90,91
 358 612 358 612 548 612 c 0,92,93
 618 612 618 612 663 627 c 128,-1,94
 708 642 708 642 734.5 666 c 128,-1,95
 761 690 761 690 771 719.5 c 128,-1,96
 781 749 781 749 781 778 c 0,97,98
 781 817 781 817 763 840 c 128,-1,99
 745 863 745 863 716.5 875 c 128,-1,100
 688 887 688 887 654 891 c 128,-1,101
 620 895 620 895 587 895 c 0,87,88
EndSplineSet
EndChar

StartChar: dieresis
Encoding: 168 168 105
Width: 1049
Flags: W
HStem: 129 283<217.344 375.601 683.065 839.701>
VStem: 167 259<179.775 361.375> 631 258<178.871 359>
LayerCount: 2
Fore
SplineSet
426 288 m 1,0,1
 425 256 425 256 412 227.5 c 128,-1,2
 399 199 399 199 379 177 c 128,-1,3
 359 155 359 155 333 142 c 128,-1,4
 307 129 307 129 280 129 c 0,5,6
 256 129 256 129 235 138 c 128,-1,7
 214 147 214 147 199 163 c 128,-1,8
 184 179 184 179 175.5 200.5 c 128,-1,9
 167 222 167 222 167 248 c 0,10,11
 167 280 167 280 179 309.5 c 128,-1,12
 191 339 191 339 212 362 c 128,-1,13
 233 385 233 385 260 398.5 c 128,-1,14
 287 412 287 412 317 412 c 0,15,16
 365 412 365 412 395 379 c 128,-1,17
 425 346 425 346 426 295 c 1,18,-1
 426 288 l 1,0,1
889 286 m 1,19,20
 888 255 888 255 875 226.5 c 128,-1,21
 862 198 862 198 842 176 c 128,-1,22
 822 154 822 154 796 141 c 128,-1,23
 770 128 770 128 743 128 c 0,24,25
 694 128 694 128 663 162 c 128,-1,26
 632 196 632 196 631 247 c 0,27,28
 631 278 631 278 643.5 308 c 128,-1,29
 656 338 656 338 676.5 360.5 c 128,-1,30
 697 383 697 383 724 397 c 128,-1,31
 751 411 751 411 780 411 c 0,32,33
 828 411 828 411 858 377 c 128,-1,34
 888 343 888 343 889 293 c 1,35,-1
 889 286 l 1,19,20
EndSplineSet
EndChar

StartChar: copyright
Encoding: 169 169 106
Width: 1859
Flags: W
HStem: -30 142<632.183 1095.09> 282 141<768.66 1092.74> 1173 141<851.903 1233.72> 1485 144<805.084 1271.08>
VStem: 152 154<446.997 955.759> 518 159<512.314 959.696> 1592 156<636.889 1146.26>
LayerCount: 2
Fore
SplineSet
861 112 m 0,0,1
 956 112 956 112 1047.5 140 c 128,-1,2
 1139 168 1139 168 1220.5 219 c 128,-1,3
 1302 270 1302 270 1370.5 342 c 128,-1,4
 1439 414 1439 414 1488.5 502.5 c 128,-1,5
 1538 591 1538 591 1565.5 692.5 c 128,-1,6
 1593 794 1593 794 1592 905 c 256,7,8
 1591 1016 1591 1016 1556.5 1120.5 c 128,-1,9
 1522 1225 1522 1225 1453 1306 c 128,-1,10
 1384 1387 1384 1387 1280.5 1436 c 128,-1,11
 1177 1485 1177 1485 1038 1485 c 0,12,13
 943 1485 943 1485 852 1457 c 128,-1,14
 761 1429 761 1429 679.5 1377 c 128,-1,15
 598 1325 598 1325 529 1252.5 c 128,-1,16
 460 1180 460 1180 410 1090.5 c 128,-1,17
 360 1001 360 1001 332.5 898 c 128,-1,18
 305 795 305 795 306 682 c 0,19,20
 307 558 307 558 347.5 453.5 c 128,-1,21
 388 349 388 349 461 273 c 128,-1,22
 534 197 534 197 635.5 154.5 c 128,-1,23
 737 112 737 112 861 112 c 0,0,1
1056 1629 m 0,24,25
 1170 1629 1170 1629 1265.5 1600.5 c 128,-1,26
 1361 1572 1361 1572 1437.5 1522.5 c 128,-1,27
 1514 1473 1514 1473 1572 1405 c 128,-1,28
 1630 1337 1630 1337 1668.5 1258.5 c 128,-1,29
 1707 1180 1707 1180 1727 1094 c 128,-1,30
 1747 1008 1747 1008 1748 922 c 0,31,32
 1748 838 1748 838 1732.5 752 c 128,-1,33
 1717 666 1717 666 1684 581 c 128,-1,34
 1651 496 1651 496 1600.5 414 c 128,-1,35
 1550 332 1550 332 1480 257 c 0,36,37
 1420 193 1420 193 1347.5 140.5 c 128,-1,38
 1275 88 1275 88 1192.5 50 c 128,-1,39
 1110 12 1110 12 1020.5 -9 c 128,-1,40
 931 -30 931 -30 838 -30 c 0,41,42
 693 -30 693 -30 568.5 20.5 c 128,-1,43
 444 71 444 71 351.5 163 c 128,-1,44
 259 255 259 255 206 383.5 c 128,-1,45
 153 512 153 512 152 667 c 0,46,47
 151 796 151 796 184.5 918 c 128,-1,48
 218 1040 218 1040 279 1147 c 128,-1,49
 340 1254 340 1254 424 1342.5 c 128,-1,50
 508 1431 508 1431 609 1494.5 c 128,-1,51
 710 1558 710 1558 823.5 1593.5 c 128,-1,52
 937 1629 937 1629 1056 1629 c 0,24,25
677 708 m 0,53,54
 676 627 676 627 697 567 c 1,55,56
 720 492 720 492 774.5 457.5 c 128,-1,57
 829 423 829 423 914 423 c 0,58,59
 977 423 977 423 1042 442.5 c 128,-1,60
 1107 462 1107 462 1183 497 c 1,61,-1
 1159 357 l 1,62,63
 1084 319 1084 319 1019.5 300.5 c 128,-1,64
 955 282 955 282 895 282 c 0,65,66
 790 282 790 282 718 315.5 c 128,-1,67
 646 349 646 349 602 405 c 128,-1,68
 558 461 558 461 538.5 535 c 128,-1,69
 519 609 519 609 518 689 c 0,70,71
 517 824 517 824 553.5 938.5 c 128,-1,72
 590 1053 590 1053 657.5 1136.5 c 128,-1,73
 725 1220 725 1220 819 1267 c 128,-1,74
 913 1314 913 1314 1027 1314 c 0,75,76
 1078 1314 1078 1314 1131 1302 c 128,-1,77
 1184 1290 1184 1290 1226 1272 c 0,78,79
 1240 1267 1240 1267 1252 1260.5 c 128,-1,80
 1264 1254 1264 1254 1276 1248 c 1,81,-1
 1264 1112 l 1,82,83
 1259 1115 1259 1115 1241 1124.5 c 128,-1,84
 1223 1134 1223 1134 1193 1144 c 128,-1,85
 1163 1154 1163 1154 1122.5 1162.5 c 128,-1,86
 1082 1171 1082 1171 1032 1173 c 0,87,88
 1012 1174 1012 1174 992 1173 c 128,-1,89
 972 1172 972 1172 953 1168 c 0,90,91
 881 1155 881 1155 829.5 1113.5 c 128,-1,92
 778 1072 778 1072 744.5 1010 c 128,-1,93
 711 948 711 948 694.5 870.5 c 128,-1,94
 678 793 678 793 677 708 c 0,53,54
EndSplineSet
EndChar

StartChar: ordfeminine
Encoding: 170 170 107
Width: 1114
Flags: W
HStem: 396 129<238 856> 668 113<421.955 663.141> 1158 100<476.516 822.502> 1513 125<498.447 830.877>
VStem: 238 152<813.178 1075.36> 797 108<686 790.39> 851 142<1220.12 1490.32>
DStem2: 791 903 940.5 944.5 0.143536 0.989645<-49.1649 240.684 318.054 479.958>
LayerCount: 2
Fore
SplineSet
797 828 m 1,0,1
 667 668 667 668 496 668 c 0,2,3
 367 668 367 668 302.5 727 c 128,-1,4
 238 786 238 786 238 901 c 0,5,6
 238 980 238 980 265 1045.5 c 128,-1,7
 292 1111 292 1111 341.5 1158.5 c 128,-1,8
 391 1206 391 1206 461 1232 c 128,-1,9
 531 1258 531 1258 618 1258 c 0,10,11
 643 1258 643 1258 673.5 1254.5 c 128,-1,12
 704 1251 704 1251 734 1245 c 128,-1,13
 764 1239 764 1239 790.5 1232 c 128,-1,14
 817 1225 817 1225 835 1218 c 1,15,16
 844 1286 844 1286 847.5 1321.5 c 128,-1,17
 851 1357 851 1357 851 1380 c 0,18,19
 851 1418 851 1418 843 1443.5 c 128,-1,20
 835 1469 835 1469 816 1484.5 c 128,-1,21
 797 1500 797 1500 767 1506.5 c 128,-1,22
 737 1513 737 1513 693 1513 c 0,23,24
 639 1513 639 1513 587.5 1498.5 c 128,-1,25
 536 1484 536 1484 496 1467 c 128,-1,26
 456 1450 456 1450 432.5 1436 c 128,-1,27
 409 1422 409 1422 410 1423 c 1,28,-1
 375 1532 l 1,29,30
 409 1551 409 1551 447 1570 c 128,-1,31
 485 1589 485 1589 526.5 1604 c 128,-1,32
 568 1619 568 1619 612 1628.5 c 128,-1,33
 656 1638 656 1638 703 1638 c 0,34,35
 781 1638 781 1638 836 1623 c 128,-1,36
 891 1608 891 1608 926 1576 c 128,-1,37
 961 1544 961 1544 977 1493.5 c 128,-1,38
 993 1443 993 1443 993 1373 c 0,39,40
 993 1364 993 1364 992.5 1351.5 c 128,-1,41
 992 1339 992 1339 989 1313 c 128,-1,42
 986 1287 986 1287 980.5 1242.5 c 128,-1,43
 975 1198 975 1198 965 1125 c 128,-1,44
 955 1052 955 1052 940.5 944.5 c 128,-1,45
 926 837 926 837 905 686 c 1,46,-1
 797 686 l 1,47,-1
 797 828 l 1,0,1
824 1141 m 1,48,49
 776 1149 776 1149 734.5 1153.5 c 128,-1,50
 693 1158 693 1158 658 1158 c 0,51,52
 390 1158 390 1158 390 924 c 0,53,54
 390 781 390 781 547 781 c 0,55,56
 610 781 610 781 668.5 813.5 c 128,-1,57
 727 846 727 846 791 903 c 1,58,-1
 824 1141 l 1,48,49
238 525 m 1,59,-1
 874 525 l 1,60,-1
 856 396 l 1,61,-1
 220 396 l 1,62,-1
 238 525 l 1,59,-1
EndSplineSet
EndChar

StartChar: guillemotleft
Encoding: 171 171 108
Width: 1616
Flags: W
DStem2: 382 579 180 477 0.804296 -0.594229<0 475.27> 206 676 382 579 0.849857 0.527013<98.4545 631.887> 992 579 791 477 0.803787 -0.594917<0 476.066> 817 676 992 579 0.849857 0.527013<97.6047 631.887>
LayerCount: 2
Fore
SplineSet
1452 851 m 1,0,-1
 992 579 l 1,1,-1
 1380 303 l 1,2,-1
 1349 64 l 1,3,-1
 791 477 l 1,4,-1
 817 676 l 1,5,-1
 1483 1089 l 1,6,-1
 1452 851 l 1,0,-1
841 851 m 1,7,-1
 382 579 l 1,8,-1
 769 303 l 1,9,-1
 739 64 l 1,10,-1
 180 477 l 1,11,-1
 206 676 l 1,12,-1
 872 1089 l 1,13,-1
 841 851 l 1,7,-1
EndSplineSet
EndChar

StartChar: logicalnot
Encoding: 172 172 109
Width: 1597
Flags: W
HStem: 1064 60<233 1365>
VStem: 1262 55<332 387>
DStem2: 1262 332 1317 332 0.140021 0.990149<7.70116 739.211>
LayerCount: 2
Fore
SplineSet
1429 1124 m 1,0,-1
 1317 332 l 1,1,-1
 1262 332 l 1,2,-1
 1365 1064 l 1,3,-1
 224 1064 l 1,4,-1
 233 1124 l 1,5,-1
 1429 1124 l 1,0,-1
EndSplineSet
EndChar

StartChar: uni00AD
Encoding: 173 173 110
Width: 901
Flags: W
HStem: 528 162<176 793>
VStem: 155 659
LayerCount: 2
Fore
SplineSet
793 528 m 1,0,-1
 155 528 l 1,1,-1
 176 690 l 1,2,-1
 814 690 l 1,3,-1
 793 528 l 1,0,-1
EndSplineSet
EndChar

StartChar: registered
Encoding: 174 174 111
Width: 1280
Flags: W
HStem: 584 98<474.84 851.868> 1074 81<650 679> 1331 80<673 829.747> 1543 99<578.059 947.896>
VStem: 197 99<860.081 1247.91> 507 97<831 928> 838 96<1180.79 1299.11> 1130 100<968.817 1359.7>
DStem2: 507 831 604 831 0.133283 0.991078<12.9284 258.159 340.169 522.809>
LayerCount: 2
Fore
SplineSet
761 1087 m 1,0,1
 763 1084 763 1084 769.5 1074 c 128,-1,2
 776 1064 776 1064 783.5 1053 c 128,-1,3
 791 1042 791 1042 797.5 1033 c 128,-1,4
 804 1024 804 1024 805 1023 c 2,5,-1
 894 859 l 1,6,-1
 794 809 l 1,7,8
 780 840 780 840 767.5 868.5 c 128,-1,9
 755 897 755 897 744 924 c 2,10,-1
 679 1074 l 1,11,-1
 637 1074 l 1,12,-1
 604 831 l 1,13,-1
 507 831 l 1,14,-1
 585 1411 l 1,15,-1
 690 1411 l 2,16,17
 814 1411 814 1411 873.5 1380.5 c 128,-1,18
 933 1350 933 1350 934 1278 c 1,19,20
 934 1196 934 1196 888.5 1151.5 c 128,-1,21
 843 1107 843 1107 761 1087 c 1,0,1
769 1543 m 0,22,23
 668 1543 668 1543 581 1500 c 128,-1,24
 494 1457 494 1457 430.5 1386.5 c 128,-1,25
 367 1316 367 1316 331 1226.5 c 128,-1,26
 295 1137 295 1137 296 1043 c 0,27,28
 296 962 296 962 323.5 895.5 c 128,-1,29
 351 829 351 829 399.5 781.5 c 128,-1,30
 448 734 448 734 515 708 c 128,-1,31
 582 682 582 682 662 682 c 0,32,33
 725 682 725 682 784.5 700 c 128,-1,34
 844 718 844 718 896 751 c 128,-1,35
 948 784 948 784 991.5 829.5 c 128,-1,36
 1035 875 1035 875 1066 930 c 128,-1,37
 1097 985 1097 985 1114 1048.5 c 128,-1,38
 1131 1112 1131 1112 1130 1179 c 1,39,40
 1130 1258 1130 1258 1102.5 1324.5 c 128,-1,41
 1075 1391 1075 1391 1027 1439.5 c 128,-1,42
 979 1488 979 1488 913 1515.5 c 128,-1,43
 847 1543 847 1543 769 1543 c 0,22,23
698 1155 m 2,44,45
 767 1155 767 1155 803 1180 c 128,-1,46
 839 1205 839 1205 838 1268 c 0,47,48
 838 1287 838 1287 830 1299.5 c 128,-1,49
 822 1312 822 1312 803 1319 c 128,-1,50
 784 1326 784 1326 752 1328.5 c 128,-1,51
 720 1331 720 1331 673 1331 c 1,52,-1
 650 1155 l 1,53,-1
 698 1155 l 2,44,45
198 1055 m 0,54,55
 199 1133 199 1133 221.5 1207 c 128,-1,56
 244 1281 244 1281 284 1346 c 128,-1,57
 324 1411 324 1411 378.5 1465.5 c 128,-1,58
 433 1520 433 1520 498 1559 c 128,-1,59
 563 1598 563 1598 635.5 1620 c 128,-1,60
 708 1642 708 1642 785 1642 c 0,61,62
 881 1642 881 1642 962.5 1607.5 c 128,-1,63
 1044 1573 1044 1573 1103 1512.5 c 128,-1,64
 1162 1452 1162 1452 1195.5 1370 c 128,-1,65
 1229 1288 1229 1288 1230 1192 c 0,66,67
 1231 1113 1231 1113 1210.5 1037.5 c 128,-1,68
 1190 962 1190 962 1152 894.5 c 128,-1,69
 1114 827 1114 827 1060.5 770 c 128,-1,70
 1007 713 1007 713 941.5 671.5 c 128,-1,71
 876 630 876 630 800.5 607 c 128,-1,72
 725 584 725 584 643 584 c 0,73,74
 546 584 546 584 464.5 618.5 c 128,-1,75
 383 653 383 653 324 714 c 128,-1,76
 265 775 265 775 231.5 857.5 c 128,-1,77
 198 940 198 940 197 1036 c 0,78,79
 197 1041 197 1041 197 1045.5 c 128,-1,80
 197 1050 197 1050 198 1055 c 0,54,55
EndSplineSet
EndChar

StartChar: macron
Encoding: 175 175 112
Width: 937
Flags: W
HStem: 0 172<109 761>
LayerCount: 2
Fore
SplineSet
761 0 m 1,0,-1
 88 0 l 1,1,-1
 109 172 l 1,2,-1
 782 172 l 1,3,-1
 761 0 l 1,0,-1
EndSplineSet
EndChar

StartChar: degree
Encoding: 176 176 113
Width: 685
Flags: W
HStem: 503 88<263.602 457.185> 889 89<286.976 482.074>
VStem: 138 94<622.494 834.477> 512 93<645.38 852.386>
LayerCount: 2
Fore
SplineSet
393 889 m 0,0,1
 360 889 360 889 330.5 875 c 128,-1,2
 301 861 301 861 279 837 c 128,-1,3
 257 813 257 813 244.5 782 c 128,-1,4
 232 751 232 751 232 717 c 0,5,6
 233 663 233 663 266 627 c 128,-1,7
 299 591 299 591 354 591 c 0,8,9
 386 591 386 591 415 605 c 128,-1,10
 444 619 444 619 465.5 643 c 128,-1,11
 487 667 487 667 499.5 698 c 128,-1,12
 512 729 512 729 512 764 c 0,13,14
 511 818 511 818 479 853.5 c 128,-1,15
 447 889 447 889 393 889 c 0,0,1
138 703 m 1,16,17
 138 760 138 760 159.5 810 c 128,-1,18
 181 860 181 860 218 897.5 c 128,-1,19
 255 935 255 935 303.5 956.5 c 128,-1,20
 352 978 352 978 405 978 c 0,21,22
 448 978 448 978 485 963 c 128,-1,23
 522 948 522 948 548.5 921.5 c 128,-1,24
 575 895 575 895 590 859 c 128,-1,25
 605 823 605 823 605 781 c 0,26,27
 606 724 606 724 585.5 673 c 128,-1,28
 565 622 565 622 529 584.5 c 128,-1,29
 493 547 493 547 445.5 525 c 128,-1,30
 398 503 398 503 344 503 c 0,31,32
 300 503 300 503 262.5 518 c 128,-1,33
 225 533 225 533 198 559.5 c 128,-1,34
 171 586 171 586 155 622.5 c 128,-1,35
 139 659 139 659 138 703 c 1,16,17
EndSplineSet
EndChar

StartChar: plusminus
Encoding: 177 177 114
Width: 1107
Flags: W
HStem: -41 166<197 868> 549 162<265 528 713 976>
VStem: 481 166<212 378> 596 163<885 1048>
DStem2: 481 212 647 212 0.136276 0.990671<22.6219 340.261 525.961 843.873>
LayerCount: 2
Fore
SplineSet
868 -41 m 1,0,-1
 175 -41 l 1,1,-1
 197 125 l 1,2,-1
 890 125 l 1,3,-1
 868 -41 l 1,0,-1
976 549 m 1,4,-1
 692 549 l 1,5,-1
 647 212 l 1,6,-1
 481 212 l 1,7,-1
 528 549 l 1,8,-1
 244 549 l 1,9,-1
 265 711 l 1,10,-1
 549 711 l 1,11,-1
 596 1048 l 1,12,-1
 759 1048 l 1,13,-1
 713 711 l 1,14,-1
 999 711 l 1,15,-1
 976 549 l 1,4,-1
EndSplineSet
EndChar

StartChar: uni00B2
Encoding: 178 178 115
Width: 1091
Flags: W
HStem: 161 166<389 835> 1151 156<392.343 749.247>
VStem: 805 170<846.004 1095.88>
DStem2: 144 311 389 327 0.788079 0.615574<202.929 821.679> 335 1244 385 1103.5 0.938876 0.344255<-59.4144 213.059>
LayerCount: 2
Fore
SplineSet
805 984 m 1,0,1
 805 1042 805 1042 774 1079 c 1,2,3
 729 1151 729 1151 597 1151 c 0,4,5
 566 1151 566 1151 530 1144 c 128,-1,6
 494 1137 494 1137 457 1126.5 c 128,-1,7
 420 1116 420 1116 385 1103.5 c 128,-1,8
 350 1091 350 1091 321 1080 c 1,9,-1
 280 1220 l 1,10,11
 294 1227 294 1227 307.5 1233 c 128,-1,12
 321 1239 321 1239 335 1244 c 0,13,14
 362 1255 362 1255 397.5 1266 c 128,-1,15
 433 1277 433 1277 473 1286 c 128,-1,16
 513 1295 513 1295 555 1301 c 128,-1,17
 597 1307 597 1307 638 1307 c 0,18,19
 799 1307 799 1307 886 1229 c 128,-1,20
 973 1151 973 1151 975 1004 c 0,21,22
 977 886 977 886 906 777 c 128,-1,23
 835 668 835 668 685 553 c 2,24,-1
 389 327 l 1,25,-1
 856 327 l 1,26,-1
 835 161 l 1,27,-1
 126 161 l 1,28,-1
 144 311 l 1,29,-1
 488 581 l 2,30,31
 508 596 508 596 530 613 c 128,-1,32
 552 630 552 630 578 650 c 0,33,34
 626 687 626 687 667 727.5 c 128,-1,35
 708 768 708 768 738 810.5 c 128,-1,36
 768 853 768 853 785.5 896.5 c 128,-1,37
 803 940 803 940 805 984 c 1,0,1
EndSplineSet
EndChar

StartChar: uni00B3
Encoding: 179 179 116
Width: 1059
Flags: W
HStem: -26 162<235.476 642.193> 601 157<501 643.149> 1149 164<367.239 750.907>
VStem: 742 184<233.38 513.205> 804 175<857.739 1108.86>
DStem2: 214 188.5 242 4 0.961987 -0.273096<-41.8932 259.043>
LayerCount: 2
Fore
SplineSet
501 758 m 1,0,1
 594 758 594 758 652.5 781.5 c 128,-1,2
 711 805 711 805 745 841 c 128,-1,3
 779 877 779 877 791.5 919 c 128,-1,4
 804 961 804 961 804 999 c 0,5,6
 803 1080 803 1080 752.5 1114.5 c 128,-1,7
 702 1149 702 1149 590 1149 c 0,8,9
 557 1149 557 1149 520 1143 c 128,-1,10
 483 1137 483 1137 447 1128 c 128,-1,11
 411 1119 411 1119 377.5 1108 c 128,-1,12
 344 1097 344 1097 319 1086 c 1,13,-1
 282 1231 l 1,14,-1
 309 1244 l 2,15,16
 328 1253 328 1253 359 1265 c 128,-1,17
 390 1277 390 1277 430 1287.5 c 128,-1,18
 470 1298 470 1298 516 1305.5 c 128,-1,19
 562 1313 562 1313 611 1313 c 0,20,21
 677 1313 677 1313 742 1300 c 128,-1,22
 807 1287 807 1287 859.5 1255.5 c 128,-1,23
 912 1224 912 1224 945 1171 c 128,-1,24
 978 1118 978 1118 979 1037 c 1,25,26
 979 942 979 942 951 877 c 128,-1,27
 923 812 923 812 880 771 c 128,-1,28
 837 730 837 730 787 709 c 128,-1,29
 737 688 737 688 693 681 c 1,30,31
 730 671 730 671 771 650.5 c 128,-1,32
 812 630 812 630 846.5 595.5 c 128,-1,33
 881 561 881 561 903.5 511.5 c 128,-1,34
 926 462 926 462 926 395 c 0,35,36
 926 300 926 300 889 222 c 128,-1,37
 852 144 852 144 787.5 89 c 128,-1,38
 723 34 723 34 636 4 c 128,-1,39
 549 -26 549 -26 449 -26 c 0,40,41
 389 -26 389 -26 337 -17.5 c 128,-1,42
 285 -9 285 -9 242 4 c 128,-1,43
 199 17 199 17 166 32 c 128,-1,44
 133 47 133 47 111 60 c 1,45,46
 131 101 131 101 142.5 126 c 128,-1,47
 154 151 154 151 160.5 166 c 128,-1,48
 167 181 167 181 169.5 188 c 128,-1,49
 172 195 172 195 174 201 c 1,50,51
 186 199 186 199 214 188.5 c 128,-1,52
 242 178 242 178 281.5 166.5 c 128,-1,53
 321 155 321 155 369.5 145.5 c 128,-1,54
 418 136 418 136 470 136 c 0,55,56
 550 136 550 136 602.5 159 c 128,-1,57
 655 182 655 182 686 218.5 c 128,-1,58
 717 255 717 255 729.5 299.5 c 128,-1,59
 742 344 742 344 742 388 c 0,60,61
 740 575 740 575 481 601 c 1,62,-1
 501 758 l 1,0,1
EndSplineSet
EndChar

StartChar: acute
Encoding: 180 180 117
Width: 781
Flags: W
HStem: 128 639
VStem: 211 464
LayerCount: 2
Fore
SplineSet
360 128 m 1,0,-1
 211 128 l 1,1,-1
 399 767 l 1,2,-1
 675 767 l 1,3,-1
 360 128 l 1,0,-1
EndSplineSet
EndChar

StartChar: uni00B5
Encoding: 181 181 118
Width: 1146
Flags: W
HStem: -32 142<343.563 620.464> -12 21G<804 932>
VStem: 261 145<965 1110> 804 128<4 105.639> 916 172<938 1110>
DStem2: 71 -270 210 -290 0.138648 0.990342<0 354.721 604.555 1393.01> 800 272 932 4 0.139666 0.990199<-55.6144 845.988>
LayerCount: 2
Fore
SplineSet
210 -290 m 1,0,-1
 71 -270 l 1,1,-1
 261 1110 l 1,2,-1
 406 1110 l 1,3,4
 380 927 380 927 362 798.5 c 128,-1,5
 344 670 344 670 332.5 583.5 c 128,-1,6
 321 497 321 497 314.5 446 c 128,-1,7
 308 395 308 395 305 367 c 128,-1,8
 302 339 302 339 301.5 327.5 c 128,-1,9
 301 316 301 316 301 308 c 0,10,11
 301 205 301 205 341 157.5 c 128,-1,12
 381 110 381 110 466 110 c 0,13,14
 524 110 524 110 575 126.5 c 128,-1,15
 626 143 626 143 669 167.5 c 128,-1,16
 712 192 712 192 745 220.5 c 128,-1,17
 778 249 778 249 800 272 c 1,18,-1
 916 1110 l 1,19,-1
 1088 1110 l 1,20,-1
 932 4 l 1,21,-1
 804 -12 l 1,22,-1
 804 156 l 1,23,24
 627 -32 627 -32 444 -32 c 0,25,26
 397 -32 397 -32 364 -22 c 128,-1,27
 331 -12 331 -12 309.5 2 c 128,-1,28
 288 16 288 16 276 32.5 c 128,-1,29
 264 49 264 49 258 62 c 1,30,-1
 210 -290 l 1,0,-1
EndSplineSet
EndChar

StartChar: paragraph
Encoding: 182 182 119
Width: 1193
Flags: W
HStem: 0 21G<443 638.801 762 953.814> 1435 150<837 963>
VStem: 443 193<0 193> 762 189<0 189>
DStem2: 443 0 636 0 0.138716 0.990332<26.7721 872.432> 762 0 951 0 0.139322 0.990247<26.3318 1449.01>
LayerCount: 2
Fore
SplineSet
1174 1585 m 1,0,-1
 951 0 l 1,1,-1
 762 0 l 1,2,-1
 963 1435 l 1,3,-1
 837 1435 l 1,4,-1
 636 0 l 1,5,-1
 443 0 l 1,6,-1
 564 864 l 1,7,8
 481 864 481 864 404 878.5 c 128,-1,9
 327 893 327 893 268.5 927.5 c 128,-1,10
 210 962 210 962 175 1020.5 c 128,-1,11
 140 1079 140 1079 140 1167 c 0,12,13
 140 1263 140 1263 166 1331.5 c 128,-1,14
 192 1400 192 1400 236.5 1446.5 c 128,-1,15
 281 1493 281 1493 339.5 1520.5 c 128,-1,16
 398 1548 398 1548 463.5 1562.5 c 128,-1,17
 529 1577 529 1577 597.5 1581 c 128,-1,18
 666 1585 666 1585 730 1585 c 2,19,-1
 1174 1585 l 1,0,-1
EndSplineSet
EndChar

StartChar: periodcentered
Encoding: 183 183 120
Width: 527
Flags: W
HStem: 531 283<224.165 394.841>
VStem: 177 265<578.315 766.685>
LayerCount: 2
Fore
SplineSet
324 814 m 0,0,1
 349 814 349 814 370.5 804.5 c 128,-1,2
 392 795 392 795 408 778 c 128,-1,3
 424 761 424 761 433 738.5 c 128,-1,4
 442 716 442 716 442 690 c 0,5,6
 442 658 442 658 430 629.5 c 128,-1,7
 418 601 418 601 398 579 c 128,-1,8
 378 557 378 557 352.5 544 c 128,-1,9
 327 531 327 531 299 531 c 0,10,11
 273 531 273 531 251 541 c 128,-1,12
 229 551 229 551 212.5 568 c 128,-1,13
 196 585 196 585 186.5 608 c 128,-1,14
 177 631 177 631 177 657 c 0,15,16
 177 688 177 688 189 716 c 128,-1,17
 201 744 201 744 221 766 c 128,-1,18
 241 788 241 788 267.5 801 c 128,-1,19
 294 814 294 814 324 814 c 0,0,1
EndSplineSet
EndChar

StartChar: cedilla
Encoding: 184 184 121
Width: 500
Flags: W
HStem: -590 123<21.5831 308.261> -441 20G<15.6517 31.5> -225 88<194 281.855>
VStem: 332 137<-441.49 -273.125>
DStem2: 72 -225 194 -137 0.260632 0.965438<116.756 272.415>
LayerCount: 2
Fore
SplineSet
11 -510 m 1,0,-1
 17 -421 l 1,1,2
 46 -434 46 -434 83.5 -448 c 128,-1,3
 121 -462 121 -462 163 -465 c 1,4,5
 175 -467 175 -467 186.5 -467 c 128,-1,6
 198 -467 198 -467 209 -466 c 0,7,8
 244 -465 244 -465 267.5 -454 c 128,-1,9
 291 -443 291 -443 305.5 -426 c 128,-1,10
 320 -409 320 -409 326 -387.5 c 128,-1,11
 332 -366 332 -366 332 -344 c 0,12,13
 331 -295 331 -295 267 -260 c 128,-1,14
 203 -225 203 -225 72 -225 c 1,15,-1
 143 38 l 1,16,-1
 257 38 l 1,17,18
 204 -98 204 -98 194 -137 c 1,19,20
 217 -137 217 -137 247 -140 c 128,-1,21
 277 -143 277 -143 307.5 -151 c 128,-1,22
 338 -159 338 -159 367 -173 c 128,-1,23
 396 -187 396 -187 418.5 -208 c 128,-1,24
 441 -229 441 -229 455 -258 c 128,-1,25
 469 -287 469 -287 469 -326 c 2,26,-1
 469 -334 l 1,27,28
 467 -394 467 -394 445 -441.5 c 128,-1,29
 423 -489 423 -489 386 -522 c 128,-1,30
 349 -555 349 -555 299 -572.5 c 128,-1,31
 249 -590 249 -590 192 -590 c 0,32,33
 132 -590 132 -590 87 -574.5 c 128,-1,34
 42 -559 42 -559 11 -539 c 1,35,-1
 11 -510 l 1,0,-1
EndSplineSet
EndChar

StartChar: uni00B9
Encoding: 185 185 122
Width: 828
Flags: W
VStem: 312 184<162 346>
DStem2: 220 1202 252 1066 0.939549 0.342414<0 197.861> 312 162 496 162 0.138579 0.990351<25.4985 993.768>
LayerCount: 2
Fore
SplineSet
312 162 m 1,0,-1
 451 1146 l 1,1,-1
 252 1066 l 1,2,-1
 220 1202 l 1,3,-1
 445 1284 l 1,4,-1
 653 1284 l 1,5,-1
 496 162 l 1,6,-1
 312 162 l 1,0,-1
EndSplineSet
EndChar

StartChar: ordmasculine
Encoding: 186 186 123
Width: 1175
Flags: W
HStem: 386 129<232 850> 670 125<451.131 731.232> 1512 126<544.624 821.2>
VStem: 235 145<870.914 1299.18> 894 146<1004.8 1434.39>
LayerCount: 2
Fore
SplineSet
569 670 m 256,0,1
 485 670 485 670 422.5 697 c 128,-1,2
 360 724 360 724 318 773.5 c 128,-1,3
 276 823 276 823 255.5 892 c 128,-1,4
 235 961 235 961 235 1045 c 0,5,6
 235 1098 235 1098 244.5 1162.5 c 128,-1,7
 254 1227 254 1227 276 1293 c 128,-1,8
 298 1359 298 1359 334 1421 c 128,-1,9
 370 1483 370 1483 422 1531.5 c 128,-1,10
 474 1580 474 1580 544 1609 c 128,-1,11
 614 1638 614 1638 705 1638 c 0,12,13
 789 1638 789 1638 851.5 1610.5 c 128,-1,14
 914 1583 914 1583 956 1533 c 128,-1,15
 998 1483 998 1483 1019 1413 c 128,-1,16
 1040 1343 1040 1343 1040 1258 c 0,17,18
 1040 1194 1040 1194 1028.5 1126 c 128,-1,19
 1017 1058 1017 1058 992.5 992.5 c 128,-1,20
 968 927 968 927 930.5 868.5 c 128,-1,21
 893 810 893 810 840.5 766 c 128,-1,22
 788 722 788 722 720.5 696 c 128,-1,23
 653 670 653 670 569 670 c 256,0,1
587 795 m 0,24,25
 648 795 648 795 694.5 818 c 128,-1,26
 741 841 741 841 775 878.5 c 128,-1,27
 809 916 809 916 832 964 c 128,-1,28
 855 1012 855 1012 868.5 1063 c 128,-1,29
 882 1114 882 1114 888 1164 c 128,-1,30
 894 1214 894 1214 894 1255 c 0,31,32
 894 1375 894 1375 844 1443.5 c 128,-1,33
 794 1512 794 1512 688 1512 c 0,34,35
 628 1512 628 1512 582 1489.5 c 128,-1,36
 536 1467 536 1467 501.5 1429.5 c 128,-1,37
 467 1392 467 1392 444 1344 c 128,-1,38
 421 1296 421 1296 406.5 1244.5 c 128,-1,39
 392 1193 392 1193 386 1142.5 c 128,-1,40
 380 1092 380 1092 380 1050 c 0,41,42
 380 929 380 929 430.5 862 c 128,-1,43
 481 795 481 795 587 795 c 0,24,25
232 515 m 1,44,-1
 868 515 l 1,45,-1
 850 386 l 1,46,-1
 213 386 l 1,47,-1
 232 515 l 1,44,-1
EndSplineSet
EndChar

StartChar: guillemotright
Encoding: 187 187 124
Width: 1576
Flags: W
DStem2: 159 303 126 64 0.850915 0.525303<0 542.035> 270 1087 236 851 0.801215 -0.598376<113.975 587.808> 770 303 737 64 0.850564 0.525872<0 542.029> 880 1087 847 851 0.801733 -0.597682<114.596 588.442>
LayerCount: 2
Fore
SplineSet
847 851 m 1,0,-1
 880 1087 l 1,1,-1
 1434 674 l 1,2,-1
 1405 477 l 1,3,-1
 737 64 l 1,4,-1
 770 303 l 1,5,-1
 1236 580 l 1,6,-1
 847 851 l 1,0,-1
236 851 m 1,7,-1
 270 1087 l 1,8,-1
 823 674 l 1,9,-1
 795 477 l 1,10,-1
 126 64 l 1,11,-1
 159 303 l 1,12,-1
 625 580 l 1,13,-1
 236 851 l 1,7,-1
EndSplineSet
EndChar

StartChar: onequarter
Encoding: 188 188 125
Width: 1826
Flags: W
HStem: 49 132<1017 1332 1520 1643>
VStem: 352 181<534 715>
DStem2: 205 -30 328 -120 0.643678 0.765297<10.2957 1881.89> 302 1400 328 1284 0.93589 0.352293<0 167.46> 352 534 533 534 0.174625 0.984635<31.6072 831.101> 829 171 1017 181 0.652902 0.757442<130.32 789.919> 1283 -222 1451 -204 0.175911 0.984406<47.2723 275.394 440.375 913.902>
LayerCount: 2
Fore
SplineSet
205 -30 m 1,0,-1
 1413 1413 l 1,1,-1
 1540 1321 l 1,2,-1
 328 -120 l 1,3,-1
 205 -30 l 1,0,-1
1516 968 m 1,4,-1
 1654 932 l 1,5,-1
 1520 183 l 1,6,-1
 1667 183 l 1,7,-1
 1643 49 l 1,8,-1
 1497 49 l 1,9,-1
 1451 -204 l 1,10,-1
 1283 -222 l 1,11,-1
 1332 49 l 1,12,-1
 830 49 l 1,13,-1
 829 171 l 1,14,-1
 1516 968 l 1,4,-1
1017 181 m 1,15,-1
 1354 181 l 1,16,-1
 1453 676 l 1,17,-1
 1017 181 l 1,15,-1
352 534 m 1,18,-1
 499 1352 l 1,19,-1
 328 1284 l 1,20,-1
 302 1400 l 1,21,-1
 565 1499 l 1,22,-1
 699 1470 l 1,23,-1
 533 534 l 1,24,-1
 352 534 l 1,18,-1
EndSplineSet
EndChar

StartChar: onehalf
Encoding: 189 189 126
Width: 2050
Flags: W
HStem: -132 167<1412 1760> 679 159<1338.98 1678.74>
VStem: 405 180<534 714> 1721 193<448.711 652.965>
DStem2: 238 -30 362 -120 0.643367 0.765558<10.8772 1881.89> 355 1400 381 1284 0.93589 0.352293<0 166.524> 405 534 585 534 0.175645 0.984454<31.6161 830.927> 1452 250 1412 35 0.793847 0.608117<-162.499 355.677>
LayerCount: 2
Fore
SplineSet
238 -30 m 1,0,-1
 1446 1413 l 1,1,-1
 1573 1321 l 1,2,-1
 362 -120 l 1,3,-1
 238 -30 l 1,0,-1
405 534 m 1,4,-1
 551 1352 l 1,5,-1
 381 1284 l 1,6,-1
 355 1400 l 1,7,-1
 618 1499 l 1,8,-1
 752 1470 l 1,9,-1
 585 534 l 1,10,-1
 405 534 l 1,4,-1
1452 250 m 2,11,12
 1495 283 1495 283 1542.5 318.5 c 128,-1,13
 1590 354 1590 354 1629.5 393.5 c 128,-1,14
 1669 433 1669 433 1695 477 c 128,-1,15
 1721 521 1721 521 1721 572 c 0,16,17
 1720 626 1720 626 1680 652.5 c 128,-1,18
 1640 679 1640 679 1570 679 c 0,19,20
 1540 679 1540 679 1502 673 c 128,-1,21
 1464 667 1464 667 1424 658 c 128,-1,22
 1384 649 1384 649 1346 638.5 c 128,-1,23
 1308 628 1308 628 1279 619 c 1,24,-1
 1290 776 l 1,25,-1
 1347 796 l 1,26,27
 1401 812 1401 812 1466 825 c 128,-1,28
 1531 838 1531 838 1615 838 c 0,29,30
 1694 838 1694 838 1750.5 819 c 128,-1,31
 1807 800 1807 800 1843.5 768 c 128,-1,32
 1880 736 1880 736 1897 693.5 c 128,-1,33
 1914 651 1914 651 1914 605 c 0,34,35
 1914 548 1914 548 1897 497.5 c 128,-1,36
 1880 447 1880 447 1843.5 397.5 c 128,-1,37
 1807 348 1807 348 1749.5 296 c 128,-1,38
 1692 244 1692 244 1611 184 c 2,39,-1
 1412 35 l 1,40,-1
 1789 35 l 1,41,-1
 1760 -132 l 1,42,-1
 1119 -132 l 1,43,-1
 1145 14 l 1,44,-1
 1452 250 l 2,11,12
EndSplineSet
EndChar

StartChar: threequarters
Encoding: 190 190 127
Width: 2140
Flags: W
HStem: 540 132<375.078 744.053> 1142 65<784 796.461> 1541 136<516.511 877.518>
VStem: 843 163<766.978 1007.86> 926 158<1299.45 1507.2>
DStem2: 317 745 241 618 0.89182 -0.45239<0 245.354> 465 1612 539.5 1506.5 0.922229 0.386645<-3.98946 215.208>
LayerCount: 2
Fore
SplineSet
317 745 m 1,0,1
 340 733 340 733 368 720 c 128,-1,2
 396 707 396 707 429 696.5 c 128,-1,3
 462 686 462 686 500.5 679 c 128,-1,4
 539 672 539 672 583 672 c 0,5,6
 638 672 638 672 686 688.5 c 128,-1,7
 734 705 734 705 768.5 735 c 128,-1,8
 803 765 803 765 823 806.5 c 128,-1,9
 843 848 843 848 843 899 c 0,10,11
 843 972 843 972 790 1015.5 c 128,-1,12
 737 1059 737 1059 619 1072 c 1,13,-1
 645 1207 l 1,14,15
 691 1207 691 1207 740.5 1219.5 c 128,-1,16
 790 1232 790 1232 831.5 1257.5 c 128,-1,17
 873 1283 873 1283 899.5 1323 c 128,-1,18
 926 1363 926 1363 926 1418 c 0,19,20
 926 1478 926 1478 879 1509.5 c 128,-1,21
 832 1541 832 1541 729 1541 c 0,22,23
 701 1541 701 1541 668.5 1536.5 c 128,-1,24
 636 1532 636 1532 603 1524.5 c 128,-1,25
 570 1517 570 1517 539.5 1506.5 c 128,-1,26
 509 1496 509 1496 484 1484 c 1,27,-1
 461 1611 l 1,28,29
 464 1611 464 1611 465 1612 c 0,30,31
 474 1616 474 1616 501 1626.5 c 128,-1,32
 528 1637 528 1637 568 1648 c 128,-1,33
 608 1659 608 1659 657.5 1668 c 128,-1,34
 707 1677 707 1677 760 1677 c 0,35,36
 810 1677 810 1677 867 1666.5 c 128,-1,37
 924 1656 924 1656 972 1630.5 c 128,-1,38
 1020 1605 1020 1605 1052 1561.5 c 128,-1,39
 1084 1518 1084 1518 1084 1451 c 0,40,41
 1084 1393 1084 1393 1067 1348 c 128,-1,42
 1050 1303 1050 1303 1023 1268.5 c 128,-1,43
 996 1234 996 1234 962.5 1210 c 128,-1,44
 929 1186 929 1186 895.5 1171 c 128,-1,45
 862 1156 862 1156 832.5 1149 c 128,-1,46
 803 1142 803 1142 784 1142 c 1,47,48
 817 1135 817 1135 856 1120 c 128,-1,49
 895 1105 895 1105 928 1076.5 c 128,-1,50
 961 1048 961 1048 983.5 1004.5 c 128,-1,51
 1006 961 1006 961 1006 897 c 0,52,53
 1006 832 1006 832 985.5 780 c 128,-1,54
 965 728 965 728 930 688.5 c 128,-1,55
 895 649 895 649 848.5 620.5 c 128,-1,56
 802 592 802 592 750.5 574.5 c 128,-1,57
 699 557 699 557 645 548.5 c 128,-1,58
 591 540 591 540 542 540 c 0,59,60
 489 540 489 540 443 548 c 128,-1,61
 397 556 397 556 359 568 c 128,-1,62
 321 580 321 580 291.5 593.5 c 128,-1,63
 262 607 262 607 241 618 c 1,64,-1
 317 745 l 1,0,1
EndSplineSet
EndChar

StartChar: questiondown
Encoding: 191 191 128
Width: 1059
Flags: W
HStem: -6 181<401.572 818.628> 1214 267<786.061 968.586> 1246 267<766.492 947.939>
VStem: 150 204<222.272 483.75>
LayerCount: 2
Fore
SplineSet
354 336 m 1,0,1
 354 249 354 249 411 212 c 128,-1,2
 468 175 468 175 589 175 c 0,3,4
 628 175 628 175 668 181.5 c 128,-1,5
 708 188 708 188 747.5 198.5 c 128,-1,6
 787 209 787 209 824.5 222 c 128,-1,7
 862 235 862 235 896 248 c 1,8,-1
 944 83 l 1,9,10
 907 66 907 66 862 50 c 128,-1,11
 817 34 817 34 767 21.5 c 128,-1,12
 717 9 717 9 662.5 1.5 c 128,-1,13
 608 -6 608 -6 553 -6 c 0,14,15
 443 -6 443 -6 366.5 17.5 c 128,-1,16
 290 41 290 41 242.5 82.5 c 128,-1,17
 195 124 195 124 173 181.5 c 128,-1,18
 151 239 151 239 150 307 c 1,19,20
 150 392 150 392 179 466 c 128,-1,21
 208 540 208 540 255 602.5 c 128,-1,22
 302 665 302 665 361.5 716.5 c 128,-1,23
 421 768 421 768 482 808 c 128,-1,24
 543 848 543 848 601 876.5 c 128,-1,25
 659 905 659 905 702 922 c 1,26,-1
 729 1097 l 1,27,-1
 919 1097 l 1,28,-1
 888 822 l 1,29,30
 871 815 871 815 850 805 c 128,-1,31
 829 795 829 795 805 784 c 0,32,33
 761 763 761 763 710 736.5 c 128,-1,34
 659 710 659 710 609 678 c 128,-1,35
 559 646 559 646 512 608.5 c 128,-1,36
 465 571 465 571 430 528 c 128,-1,37
 395 485 395 485 374 437 c 128,-1,38
 353 389 353 389 354 336 c 1,0,1
1023 1481 m 1,39,40
 1015 1408 1015 1408 995.5 1339.5 c 128,-1,41
 976 1271 976 1271 950 1214 c 1,42,43
 884 1214 884 1214 824 1223 c 128,-1,44
 764 1232 764 1232 712 1246 c 1,45,46
 719 1321 719 1321 739.5 1388.5 c 128,-1,47
 760 1456 760 1456 784 1513 c 1,48,49
 850 1513 850 1513 910.5 1504 c 128,-1,50
 971 1495 971 1495 1023 1481 c 1,39,40
EndSplineSet
EndChar

StartChar: AE
Encoding: 198 198 135
Width: 1943
Flags: W
HStem: 0 174<1139 1830> 373 135<583 970> 764 144<1237 1838> 1413 169<1304 2001>
VStem: 26 229<0 229>
DStem2: 26 0 255 0 0.543009 0.839727<124.349 565.174 729.037 729.037> 970 373 1139 174 0.130952 0.991389<-175.155 0 136.064 420.24 565.357 975.435>
LayerCount: 2
Fore
SplineSet
1237 908 m 1,0,-1
 1855 908 l 1,1,-1
 1838 764 l 1,2,-1
 1219 764 l 1,3,-1
 1139 174 l 1,4,-1
 1850 174 l 1,5,-1
 1830 0 l 1,6,-1
 921 0 l 1,7,-1
 970 373 l 1,8,-1
 490 373 l 1,9,-1
 255 0 l 1,10,-1
 26 0 l 1,11,-1
 1049 1582 l 1,12,-1
 2024 1582 l 1,13,-1
 2001 1413 l 1,14,-1
 1304 1413 l 1,15,-1
 1237 908 l 1,0,-1
987 508 m 1,16,-1
 1098 1340 l 1,17,-1
 583 508 l 1,18,-1
 987 508 l 1,16,-1
EndSplineSet
EndChar

StartChar: Eth
Encoding: 208 208 145
Width: 1359
Flags: W
HStem: 0 170<345 840.417> 737 153<128 208 446 764> 1410 173<520 1020.23>
VStem: 1160 218<635.125 1257.35>
DStem2: 104 0 345 170 0.140108 0.990136<202.089 744.302 929.138 1454.38>
LayerCount: 2
Fore
SplineSet
1378 1014 m 0,0,1
 1378 944 1378 944 1371 863.5 c 128,-1,2
 1364 783 1364 783 1347.5 698.5 c 128,-1,3
 1331 614 1331 614 1303.5 529.5 c 128,-1,4
 1276 445 1276 445 1234.5 367.5 c 128,-1,5
 1193 290 1193 290 1136.5 223 c 128,-1,6
 1080 156 1080 156 1005.5 106.5 c 128,-1,7
 931 57 931 57 837.5 28.5 c 128,-1,8
 744 0 744 0 628 0 c 2,9,-1
 104 0 l 1,10,-1
 208 737 l 1,11,-1
 107 737 l 1,12,-1
 128 890 l 1,13,-1
 230 890 l 1,14,-1
 328 1583 l 1,15,-1
 852 1583 l 2,16,17
 1108 1583 1108 1583 1243.5 1442.5 c 128,-1,18
 1379 1302 1379 1302 1378 1014 c 0,0,1
1160 1011 m 0,19,20
 1160 1117 1160 1117 1139.5 1192.5 c 128,-1,21
 1119 1268 1119 1268 1078 1316.5 c 128,-1,22
 1037 1365 1037 1365 975 1387.5 c 128,-1,23
 913 1410 913 1410 829 1410 c 2,24,-1
 520 1410 l 1,25,-1
 446 890 l 1,26,-1
 784 890 l 1,27,-1
 764 737 l 1,28,-1
 425 737 l 1,29,-1
 345 170 l 1,30,-1
 650 170 l 2,31,32
 756 170 756 170 835.5 211 c 128,-1,33
 915 252 915 252 971.5 320 c 128,-1,34
 1028 388 1028 388 1064.5 475.5 c 128,-1,35
 1101 563 1101 563 1122.5 656.5 c 128,-1,36
 1144 750 1144 750 1152 842 c 128,-1,37
 1160 934 1160 934 1160 1011 c 0,19,20
EndSplineSet
EndChar

StartChar: multiply
Encoding: 215 215 152
Width: 1224
Flags: W
DStem2: 185 221 294 96 0.726796 0.686853<0 467.336 667.075 1144.99> 415 1010 278 892 0.609327 -0.792919<10.0866 417.835 603.519 1007.67>
LayerCount: 2
Fore
SplineSet
771 546 m 1,0,-1
 1029 211 l 1,1,-1
 892 93 l 1,2,-1
 639 421 l 1,3,-1
 294 96 l 1,4,-1
 185 221 l 1,5,-1
 538 554 l 1,6,-1
 278 892 l 1,7,-1
 415 1010 l 1,8,-1
 670 679 l 1,9,-1
 1022 1012 l 1,10,-1
 1131 887 l 1,11,-1
 771 546 l 1,0,-1
EndSplineSet
EndChar

StartChar: Oslash
Encoding: 216 216 153
Width: 1457
Flags: W
HStem: -40 177<632.361 921.226> -22 173<631 716.315> 1438 176<754.873 1048.16>
VStem: 199 210<301.25 925.837> 1266 209<642.008 1273.19>
DStem2: 388 -105 501 -154 0.396322 0.918112<0 144.501 341.394 1649.81 1845.46 2005.19>
LayerCount: 2
Fore
SplineSet
1266 1030 m 0,0,1
 1265 1138 1265 1138 1241 1221.5 c 128,-1,2
 1217 1305 1217 1305 1157 1360 c 1,3,-1
 631 151 l 1,4,5
 655 143 655 143 682.5 140 c 128,-1,6
 710 137 710 137 742 137 c 0,7,8
 830 137 830 137 903.5 172 c 128,-1,9
 977 207 977 207 1035.5 268.5 c 128,-1,10
 1094 330 1094 330 1138 414 c 128,-1,11
 1182 498 1182 498 1210.5 597.5 c 128,-1,12
 1239 697 1239 697 1253 807 c 128,-1,13
 1267 917 1267 917 1266 1030 c 0,0,1
1475 1024 m 0,14,15
 1477 788 1477 788 1421.5 592.5 c 128,-1,16
 1366 397 1366 397 1265 256.5 c 128,-1,17
 1164 116 1164 116 1024.5 38 c 128,-1,18
 885 -40 885 -40 719 -40 c 0,19,20
 633 -40 633 -40 557 -22 c 1,21,-1
 501 -154 l 1,22,-1
 388 -105 l 1,23,-1
 442 22 l 1,24,25
 327 85 327 85 264 210 c 128,-1,26
 201 335 201 335 199 533 c 0,27,28
 198 687 198 687 222 827.5 c 128,-1,29
 246 968 246 968 292.5 1088 c 128,-1,30
 339 1208 339 1208 405.5 1305 c 128,-1,31
 472 1402 472 1402 556 1471 c 128,-1,32
 640 1540 640 1540 739 1577 c 128,-1,33
 838 1614 838 1614 949 1614 c 0,34,35
 1049 1614 1049 1614 1123 1593 c 1,36,-1
 1185 1735 l 1,37,-1
 1297 1690 l 1,38,-1
 1235 1547 l 1,39,40
 1360 1476 1360 1476 1416.5 1343 c 128,-1,41
 1473 1210 1473 1210 1475 1024 c 0,14,15
932 1438 m 0,42,43
 844 1438 844 1438 771 1402 c 128,-1,44
 698 1366 698 1366 639.5 1303.5 c 128,-1,45
 581 1241 581 1241 537.5 1155 c 128,-1,46
 494 1069 494 1069 465 968.5 c 128,-1,47
 436 868 436 868 422 758 c 128,-1,48
 408 648 408 648 409 536 c 0,49,50
 410 418 410 418 437.5 339 c 128,-1,51
 465 260 465 260 522 209 c 1,52,-1
 1050 1420 l 1,53,54
 999 1438 999 1438 932 1438 c 0,42,43
EndSplineSet
EndChar

StartChar: Thorn
Encoding: 222 222 159
Width: 1317
Flags: W
HStem: 0 21G<128 345.782> 496 176<436 905.375> 1280 173<547 996.525> 1567 20G<347.202 565>
VStem: 128 215<0 215> 1099 207<837.208 1194.35>
DStem2: 128 0 343 0 0.138538 0.990357<29.7856 530.562 708.19 1322.24 1497.04 1602.45>
LayerCount: 2
Fore
SplineSet
350 1587 m 1,0,-1
 565 1587 l 1,1,-1
 547 1453 l 1,2,-1
 708 1453 l 2,3,4
 869 1453 869 1453 982.5 1432 c 128,-1,5
 1096 1411 1096 1411 1168 1366 c 128,-1,6
 1240 1321 1240 1321 1273 1251 c 128,-1,7
 1306 1181 1306 1181 1306 1083 c 0,8,9
 1306 927 1306 927 1258.5 816 c 128,-1,10
 1211 705 1211 705 1115.5 633.5 c 128,-1,11
 1020 562 1020 562 876.5 529 c 128,-1,12
 733 496 733 496 541 496 c 2,13,-1
 412 496 l 1,14,-1
 343 0 l 1,15,-1
 128 0 l 1,16,-1
 350 1587 l 1,0,-1
1099 1040 m 1,17,18
 1101 1081 1101 1081 1093 1114 c 1,19,20
 1084 1158 1084 1158 1058.5 1189.5 c 128,-1,21
 1033 1221 1033 1221 985 1241 c 128,-1,22
 937 1261 937 1261 863.5 1270.5 c 128,-1,23
 790 1280 790 1280 685 1280 c 2,24,-1
 522 1280 l 1,25,-1
 436 672 l 1,26,-1
 564 672 l 2,27,28
 712 672 712 672 813.5 691 c 128,-1,29
 915 710 915 710 978 753.5 c 128,-1,30
 1041 797 1041 797 1069 867.5 c 128,-1,31
 1097 938 1097 938 1099 1040 c 1,17,18
EndSplineSet
EndChar

StartChar: germandbls
Encoding: 223 223 160
Width: 1345
Flags: W
HStem: -147 184<490 739.292> 0 21G<128 340.79> 761 153<593 833.837> 1422 169<625.175 949.898>
VStem: 128 210<0 210> 1013 184<1044.18 1360.73> 1061 204<280.938 629.985>
DStem2: 128 0 338 0 0.138152 0.990411<29.0118 1349.84>
LayerCount: 2
Fore
SplineSet
593 914 m 1,0,1
 715 914 715 914 796 935 c 128,-1,2
 877 956 877 956 925 996 c 128,-1,3
 973 1036 973 1036 993 1093.5 c 128,-1,4
 1013 1151 1013 1151 1013 1225 c 0,5,6
 1013 1326 1013 1326 954.5 1374 c 128,-1,7
 896 1422 896 1422 769 1422 c 0,8,9
 686 1422 686 1422 634 1385 c 128,-1,10
 582 1348 582 1348 550.5 1289.5 c 128,-1,11
 519 1231 519 1231 504 1159.5 c 128,-1,12
 489 1088 489 1088 480 1018 c 2,13,-1
 338 0 l 1,14,-1
 128 0 l 1,15,-1
 267 998 l 2,16,17
 285 1124 285 1124 319 1232.5 c 128,-1,18
 353 1341 353 1341 413.5 1420.5 c 128,-1,19
 474 1500 474 1500 567 1545.5 c 128,-1,20
 660 1591 660 1591 795 1591 c 0,21,22
 900 1591 900 1591 976 1562 c 128,-1,23
 1052 1533 1052 1533 1101 1483.5 c 128,-1,24
 1150 1434 1150 1434 1173.5 1368.5 c 128,-1,25
 1197 1303 1197 1303 1197 1231 c 0,26,27
 1197 1149 1197 1149 1176.5 1081.5 c 128,-1,28
 1156 1014 1156 1014 1112.5 964 c 128,-1,29
 1069 914 1069 914 1001 883.5 c 128,-1,30
 933 853 933 853 839 846 c 1,31,32
 930 837 930 837 1008 810 c 128,-1,33
 1086 783 1086 783 1143 737.5 c 128,-1,34
 1200 692 1200 692 1232.5 628.5 c 128,-1,35
 1265 565 1265 565 1265 483 c 0,36,37
 1265 367 1265 367 1235 276 c 128,-1,38
 1205 185 1205 185 1151 116.5 c 128,-1,39
 1097 48 1097 48 1023.5 -0.5 c 128,-1,40
 950 -49 950 -49 863.5 -80 c 128,-1,41
 777 -111 777 -111 680.5 -127 c 128,-1,42
 584 -143 584 -143 485 -147 c 1,43,-1
 490 37 l 1,44,45
 654 51 654 51 764 89 c 128,-1,46
 874 127 874 127 940 185 c 128,-1,47
 1006 243 1006 243 1033.5 319.5 c 128,-1,48
 1061 396 1061 396 1061 487 c 0,49,50
 1061 630 1061 630 938 695.5 c 128,-1,51
 815 761 815 761 570 761 c 1,52,-1
 593 914 l 1,0,1
EndSplineSet
EndChar

StartChar: ae
Encoding: 230 230 167
Width: 1744
Flags: W
HStem: -20 156<421.836 683.913 1132.81 1478.2> 1005 156<624.98 996.523 1243.56 1531.55>
VStem: 152 199<209.96 656.453> 844 196<288.907 540.294> 1588 176<743.196 948.927>
DStem2: 1070 665 1051 538 0.994395 0.105732<0 515.634>
LayerCount: 2
Fore
SplineSet
1623 95 m 1,0,1
 1536 38 1536 38 1438 9 c 128,-1,2
 1340 -20 1340 -20 1252 -20 c 0,3,4
 1117 -20 1117 -20 1031 30 c 128,-1,5
 945 80 945 80 896 174 c 1,6,7
 862 133 862 133 813 98 c 128,-1,8
 764 63 764 63 709.5 36.5 c 128,-1,9
 655 10 655 10 600.5 -5 c 128,-1,10
 546 -20 546 -20 501 -20 c 0,11,12
 408 -20 408 -20 342 11.5 c 128,-1,13
 276 43 276 43 233.5 99.5 c 128,-1,14
 191 156 191 156 171.5 233 c 128,-1,15
 152 310 152 310 152 401 c 0,16,17
 152 484 152 484 172.5 572.5 c 128,-1,18
 193 661 193 661 231.5 745.5 c 128,-1,19
 270 830 270 830 325 905.5 c 128,-1,20
 380 981 380 981 449.5 1038 c 128,-1,21
 519 1095 519 1095 601 1128 c 128,-1,22
 683 1161 683 1161 776 1161 c 0,23,24
 856 1161 856 1161 918 1147 c 128,-1,25
 980 1133 980 1133 1024.5 1115 c 128,-1,26
 1069 1097 1069 1097 1094.5 1081 c 128,-1,27
 1120 1065 1120 1065 1128 1061 c 1,28,29
 1191 1109 1191 1109 1264.5 1135.5 c 128,-1,30
 1338 1162 1338 1162 1425 1162 c 0,31,32
 1592 1162 1592 1162 1678 1064.5 c 128,-1,33
 1764 967 1764 967 1764 777 c 0,34,35
 1764 758 1764 758 1760 736 c 128,-1,36
 1756 714 1756 714 1735 691.5 c 128,-1,37
 1714 669 1714 669 1670.5 646.5 c 128,-1,38
 1627 624 1627 624 1547.5 604 c 128,-1,39
 1468 584 1468 584 1347 567 c 128,-1,40
 1226 550 1226 550 1051 538 c 1,41,42
 1046 503 1046 503 1043 471 c 128,-1,43
 1040 439 1040 439 1040 411 c 0,44,45
 1040 271 1040 271 1108 202 c 128,-1,46
 1176 133 1176 133 1296 133 c 0,47,48
 1374 133 1374 133 1445.5 164.5 c 128,-1,49
 1517 196 1517 196 1589 250 c 1,50,-1
 1623 95 l 1,0,1
351 407 m 0,51,52
 352 264 352 264 402.5 200 c 128,-1,53
 453 136 453 136 556 136 c 0,54,55
 595 136 595 136 638.5 150.5 c 128,-1,56
 682 165 682 165 722.5 187.5 c 128,-1,57
 763 210 763 210 797.5 236.5 c 128,-1,58
 832 263 832 263 855 288 c 1,59,60
 849 317 849 317 846.5 348 c 128,-1,61
 844 379 844 379 844 414 c 0,62,63
 844 483 844 483 856 554.5 c 128,-1,64
 868 626 868 626 890.5 695 c 128,-1,65
 913 764 913 764 946 828.5 c 128,-1,66
 979 893 979 893 1021 948 c 1,67,68
 1018 949 1018 949 1000.5 958 c 128,-1,69
 983 967 983 967 952 977.5 c 128,-1,70
 921 988 921 988 876.5 996.5 c 128,-1,71
 832 1005 832 1005 775 1005 c 0,72,73
 695 1005 695 1005 618.5 956.5 c 128,-1,74
 542 908 542 908 482.5 826 c 128,-1,75
 423 744 423 744 387 635.5 c 128,-1,76
 351 527 351 527 351 407 c 0,51,52
1070 665 m 1,77,78
 1199 678 1199 678 1287.5 690 c 128,-1,79
 1376 702 1376 702 1433.5 713.5 c 128,-1,80
 1491 725 1491 725 1522.5 735.5 c 128,-1,81
 1554 746 1554 746 1568.5 755.5 c 128,-1,82
 1583 765 1583 765 1585.5 773.5 c 128,-1,83
 1588 782 1588 782 1588 789 c 0,84,85
 1588 898 1588 898 1540.5 953 c 128,-1,86
 1493 1008 1493 1008 1408 1009 c 0,87,88
 1344 1009 1344 1009 1289 985 c 128,-1,89
 1234 961 1234 961 1190.5 916.5 c 128,-1,90
 1147 872 1147 872 1116.5 808 c 128,-1,91
 1086 744 1086 744 1070 665 c 1,77,78
EndSplineSet
EndChar

StartChar: igrave
Encoding: 236 236 173
Width: 599
Flags: W
HStem: 0 21G<183 388.796> 1139 20G<342.204 548>
VStem: 183 203<0 203> 345 203<956 1159>
DStem2: 183 0 386 0 0.13843 0.990372<28.1013 1170.27>
LayerCount: 2
Fore
SplineSet
386 0 m 1,0,-1
 183 0 l 1,1,-1
 345 1159 l 1,2,-1
 548 1159 l 1,3,-1
 386 0 l 1,0,-1
518 1255 m 1,4,-1
 420 1235 l 1,5,-1
 201 1828 l 1,6,-1
 478 1897 l 1,7,-1
 518 1255 l 1,4,-1
EndSplineSet
EndChar

StartChar: iacute
Encoding: 237 237 174
Width: 599
Flags: W
HStem: 0 21G<183 388.796> 1139 20G<342.204 548>
VStem: 183 203<0 203> 345 203<956 1159>
DStem2: 183 0 386 0 0.13843 0.990372<28.1013 1170.27>
LayerCount: 2
Fore
SplineSet
386 0 m 1,0,-1
 183 0 l 1,1,-1
 345 1159 l 1,2,-1
 548 1159 l 1,3,-1
 386 0 l 1,0,-1
468 1220 m 1,4,-1
 383 1240 l 1,5,-1
 612 1871 l 1,6,-1
 858 1801 l 1,7,-1
 468 1220 l 1,4,-1
EndSplineSet
EndChar

StartChar: idieresis
Encoding: 239 239 176
Width: 599
Flags: W
HStem: 0 21G<183 388.796> 1139 20G<342.204 548> 1239 283<153.394 309.601 618.094 775.744>
VStem: 102 259<1290.48 1469.47> 183 203<0 203> 345 203<956 1159> 565 259<1287.78 1468.62>
DStem2: 183 0 386 0 0.13843 0.990372<28.1013 1170.27>
LayerCount: 2
Fore
SplineSet
386 0 m 1,0,-1
 183 0 l 1,1,-1
 345 1159 l 1,2,-1
 548 1159 l 1,3,-1
 386 0 l 1,0,-1
360 1397 m 0,4,5
 359 1366 359 1366 346 1337.5 c 128,-1,6
 333 1309 333 1309 313 1287 c 128,-1,7
 293 1265 293 1265 267 1252 c 128,-1,8
 241 1239 241 1239 214 1239 c 0,9,10
 190 1239 190 1239 169.5 1248 c 128,-1,11
 149 1257 149 1257 134 1273 c 128,-1,12
 119 1289 119 1289 110.5 1310.5 c 128,-1,13
 102 1332 102 1332 102 1357 c 0,14,15
 102 1388 102 1388 114.5 1418 c 128,-1,16
 127 1448 127 1448 147.5 1471 c 128,-1,17
 168 1494 168 1494 195 1508 c 128,-1,18
 222 1522 222 1522 251 1522 c 0,19,20
 299 1522 299 1522 329 1488.5 c 128,-1,21
 359 1455 359 1455 361 1404 c 0,22,23
 361 1402 361 1402 360.5 1400.5 c 128,-1,24
 360 1399 360 1399 360 1397 c 0,4,5
824 1395 m 1,25,26
 823 1364 823 1364 810 1335.5 c 128,-1,27
 797 1307 797 1307 777 1285 c 128,-1,28
 757 1263 757 1263 731 1250 c 128,-1,29
 705 1237 705 1237 678 1237 c 0,30,31
 654 1237 654 1237 633 1246 c 128,-1,32
 612 1255 612 1255 597 1271 c 128,-1,33
 582 1287 582 1287 573.5 1308.5 c 128,-1,34
 565 1330 565 1330 565 1356 c 0,35,36
 565 1387 565 1387 577.5 1417 c 128,-1,37
 590 1447 590 1447 610.5 1469.5 c 128,-1,38
 631 1492 631 1492 658 1506 c 128,-1,39
 685 1520 685 1520 714 1520 c 0,40,41
 738 1520 738 1520 758 1511 c 128,-1,42
 778 1502 778 1502 792.5 1486 c 128,-1,43
 807 1470 807 1470 815.5 1448.5 c 128,-1,44
 824 1427 824 1427 824 1403 c 2,45,-1
 824 1395 l 1,25,26
EndSplineSet
EndChar

StartChar: eth
Encoding: 240 240 177
Width: 1181
Flags: W
HStem: -19 165<421.347 684.936> 974 164<519.38 799.813> 1572 20G<1105.14 1166.69>
VStem: 153 199<220.936 724.651> 890 206<481.346 881.539>
DStem2: 565 1376 597 1266 0.940161 0.34073<0 187.275 397.228 625.939>
LayerCount: 2
Fore
SplineSet
351 445 m 0,0,1
 350 409 350 409 352 378 c 128,-1,2
 354 347 354 347 359 320 c 0,3,4
 392 146 392 146 542 146 c 0,5,6
 601 146 601 146 655 173 c 128,-1,7
 709 200 709 200 753 252 c 128,-1,8
 797 304 797 304 828.5 380 c 128,-1,9
 860 456 860 456 874 554 c 0,10,11
 880 599 880 599 884 645 c 128,-1,12
 888 691 888 691 890 740 c 1,13,14
 885 809 885 809 861.5 854 c 128,-1,15
 838 899 838 899 805 925.5 c 128,-1,16
 772 952 772 952 734 963 c 128,-1,17
 696 974 696 974 663 974 c 0,18,19
 598 974 598 974 550.5 949 c 128,-1,20
 503 924 503 924 468.5 882 c 128,-1,21
 434 840 434 840 411.5 785.5 c 128,-1,22
 389 731 389 731 376 672.5 c 128,-1,23
 363 614 363 614 357.5 555 c 128,-1,24
 352 496 352 496 351 445 c 0,0,1
153 414 m 0,25,26
 152 499 152 499 165.5 585.5 c 128,-1,27
 179 672 179 672 206.5 752.5 c 128,-1,28
 234 833 234 833 275 903.5 c 128,-1,29
 316 974 316 974 370 1026 c 128,-1,30
 424 1078 424 1078 491 1108 c 128,-1,31
 558 1138 558 1138 637 1138 c 0,32,33
 686 1138 686 1138 730 1125 c 128,-1,34
 774 1112 774 1112 810.5 1090 c 128,-1,35
 847 1068 847 1068 875.5 1040 c 128,-1,36
 904 1012 904 1012 922 982 c 1,37,38
 904 1154 904 1154 803 1341 c 1,39,-1
 597 1266 l 1,40,-1
 565 1376 l 1,41,-1
 741 1440 l 1,42,43
 663 1554 663 1554 584 1621 c 1,44,-1
 687 1753 l 1,45,46
 756 1702 756 1702 813 1641 c 128,-1,47
 870 1580 870 1580 918 1505 c 1,48,-1
 1161 1592 l 1,49,-1
 1192 1483 l 1,50,-1
 977 1405 l 1,51,52
 1035 1284 1035 1284 1065 1154 c 128,-1,53
 1095 1024 1095 1024 1096 879 c 0,54,55
 1098 690 1098 690 1062 526.5 c 128,-1,56
 1026 363 1026 363 952.5 241.5 c 128,-1,57
 879 120 879 120 769 50.5 c 128,-1,58
 659 -19 659 -19 513 -19 c 0,59,60
 417 -19 417 -19 349 14.5 c 128,-1,61
 281 48 281 48 238 106.5 c 128,-1,62
 195 165 195 165 174.5 244 c 128,-1,63
 154 323 154 323 153 414 c 0,25,26
EndSplineSet
EndChar

StartChar: divide
Encoding: 247 247 184
Width: 840
Flags: W
HStem: 0 305<204 447> 644 304<293 536>
VStem: 157 290<0 290> 204 289<16 305> 246 290<644 934> 293 290<658 948>
DStem2: 157 0 447 0 0.142006 0.989866<41.1818 308.583 691.294 957.706>
LayerCount: 2
Fore
SplineSet
246 644 m 1,0,-1
 293 948 l 1,1,-1
 583 948 l 1,2,-1
 536 644 l 1,3,-1
 246 644 l 1,0,-1
157 0 m 1,4,-1
 204 305 l 1,5,-1
 493 305 l 1,6,-1
 447 0 l 1,7,-1
 157 0 l 1,4,-1
EndSplineSet
EndChar

StartChar: oslash
Encoding: 248 248 185
Width: 1100
Flags: W
HStem: -20 146<518 726.253> 986 147<540.766 781.285>
VStem: 153 189<226.464 712.761> 913.5 190<389.015 898.667>
DStem2: 315 -147 391 -181 0.381138 0.924518<0 174.588 335.312 1194.07 1359.23 1550.77> 905 538 1076 449 0.177544 0.984113<-277.578 252.082>
LayerCount: 2
Fore
SplineSet
518 132 m 1,0,1
 533 128 533 128 547.5 127 c 128,-1,2
 562 126 562 126 577 126 c 0,3,4
 657 126 657 126 714 162 c 128,-1,5
 771 198 771 198 810 256.5 c 128,-1,6
 849 315 849 315 871.5 389 c 128,-1,7
 894 463 894 463 905 538 c 0,8,9
 911 583 911 583 913.5 621.5 c 128,-1,10
 916 660 916 660 915 689 c 1,11,12
 915 852 915 852 850 924 c 1,13,-1
 518 132 l 1,0,1
153 428 m 0,14,15
 152 490 152 490 162 566 c 128,-1,16
 172 642 172 642 197 720.5 c 128,-1,17
 222 799 222 799 263.5 873 c 128,-1,18
 305 947 305 947 367 1005 c 128,-1,19
 429 1063 429 1063 512.5 1098 c 128,-1,20
 596 1133 596 1133 706 1133 c 0,21,22
 776 1133 776 1133 841 1113 c 1,23,-1
 911 1287 l 1,24,-1
 983 1255 l 1,25,-1
 914 1083 l 1,26,27
 1007 1028 1007 1028 1052.5 930 c 128,-1,28
 1098 832 1098 832 1103 705 c 0,29,30
 1104 678 1104 678 1103.5 650.5 c 128,-1,31
 1103 623 1103 623 1101 595 c 0,32,33
 1094 523 1094 523 1076 449 c 128,-1,34
 1058 375 1058 375 1027.5 307 c 128,-1,35
 997 239 997 239 953 179 c 128,-1,36
 909 119 909 119 850.5 75 c 128,-1,37
 792 31 792 31 718 5.5 c 128,-1,38
 644 -20 644 -20 553 -20 c 0,39,40
 503 -20 503 -20 461 -11 c 1,41,-1
 391 -181 l 1,42,-1
 315 -147 l 1,43,-1
 382 12 l 1,44,45
 323 36 323 36 280 76 c 128,-1,46
 237 116 237 116 209.5 169.5 c 128,-1,47
 182 223 182 223 168 288 c 128,-1,48
 154 353 154 353 153 428 c 0,14,15
783 969 m 1,49,50
 735 986 735 986 695 986 c 0,51,52
 620 986 620 986 563.5 955.5 c 128,-1,53
 507 925 507 925 466.5 873 c 128,-1,54
 426 821 426 821 400.5 753.5 c 128,-1,55
 375 686 375 686 361 611 c 1,56,57
 350 560 350 560 346 512 c 128,-1,58
 342 464 342 464 342 425 c 0,59,60
 344 236 344 236 443 162 c 1,61,-1
 783 969 l 1,49,50
EndSplineSet
EndChar

StartChar: thorn
Encoding: 254 254 191
Width: 1160
Flags: W
HStem: -479 21G<116.815 267.846> -19 170<515.937 811.824> 964 170<654.365 911.874>
VStem: 401 194<1366 1560> 974 192<402.62 897.042>
DStem2: 114 -479 314 -453 0.139381 0.990239<53.6225 607.006 780.379 1379.42 1499.52 2059.1>
LayerCount: 2
Fore
SplineSet
1166 697 m 0,0,1
 1166 625 1166 625 1153.5 543.5 c 128,-1,2
 1141 462 1141 462 1115 382.5 c 128,-1,3
 1089 303 1089 303 1048.5 230.5 c 128,-1,4
 1008 158 1008 158 952 102.5 c 128,-1,5
 896 47 896 47 823.5 14 c 128,-1,6
 751 -19 751 -19 661 -19 c 0,7,8
 466 -19 466 -19 391 95 c 1,9,-1
 314 -453 l 1,10,-1
 114 -479 l 1,11,-1
 401 1560 l 1,12,-1
 595 1560 l 1,13,-1
 514 979 l 1,14,15
 580 1051 580 1051 660 1092.5 c 128,-1,16
 740 1134 740 1134 825 1134 c 0,17,18
 920 1134 920 1134 985 1098 c 128,-1,19
 1050 1062 1050 1062 1090.5 1001 c 128,-1,20
 1131 940 1131 940 1148.5 861 c 128,-1,21
 1166 782 1166 782 1166 697 c 0,0,1
683 151 m 0,22,23
 743 151 743 151 787.5 178.5 c 128,-1,24
 832 206 832 206 864.5 251.5 c 128,-1,25
 897 297 897 297 918 355 c 128,-1,26
 939 413 939 413 951.5 474 c 128,-1,27
 964 535 964 535 969 594.5 c 128,-1,28
 974 654 974 654 974 702 c 0,29,30
 974 964 974 964 796 964 c 0,31,32
 753 964 753 964 710.5 949 c 128,-1,33
 668 934 668 934 629 912 c 128,-1,34
 590 890 590 890 556.5 864 c 128,-1,35
 523 838 523 838 498 816 c 1,36,-1
 420 266 l 1,37,38
 429 258 429 258 450.5 239 c 128,-1,39
 472 220 472 220 505.5 200.5 c 128,-1,40
 539 181 539 181 583.5 166 c 128,-1,41
 628 151 628 151 683 151 c 0,22,23
EndSplineSet
EndChar

StartChar: Ldot
Encoding: 319 319 241
Width: 1039
Flags: W
HStem: 0 165<365 1017> 1100 326<724 978> 1566 20G<348.188 565>
VStem: 351 214<1372 1586> 678 300<1100 1400> 724 298<1128 1426>
DStem2: 128 0 365 165 0.139236 0.990259<196.392 1601.6>
LayerCount: 2
Fore
SplineSet
1017 0 m 1,0,-1
 128 0 l 1,1,-1
 351 1586 l 1,2,-1
 565 1586 l 1,3,-1
 365 165 l 1,4,-1
 1038 165 l 1,5,-1
 1017 0 l 1,0,-1
978 1100 m 1,6,-1
 678 1100 l 1,7,-1
 724 1426 l 1,8,-1
 1022 1426 l 1,9,-1
 978 1100 l 1,6,-1
EndSplineSet
EndChar

StartChar: OE
Encoding: 338 338 255
Width: 2465
Flags: W
HStem: -40 182<570.687 920.327> 0 165<1368 2059> 764 143<1472 2067> 1420 166<1544 2242> 1432 182<746.161 1099.03>
VStem: 197 222<313.048 940.331>
DStem2: 1162 203 1368 165 0.137398 0.990516<-9.33558 0 269.709 595.525 1169.11 1257.94>
LayerCount: 2
Fore
SplineSet
2059 0 m 1,0,-1
 1133 0 l 1,1,-1
 1162 203 l 1,2,3
 1135 141 1135 141 1085.5 95 c 128,-1,4
 1036 49 1036 49 975 19 c 128,-1,5
 914 -11 914 -11 847 -25.5 c 128,-1,6
 780 -40 780 -40 719 -40 c 0,7,8
 596 -40 596 -40 499 -4 c 128,-1,9
 402 32 402 32 335 106 c 128,-1,10
 268 180 268 180 232.5 293 c 128,-1,11
 197 406 197 406 197 560 c 0,12,13
 197 711 197 711 222 848 c 128,-1,14
 247 985 247 985 293 1102.5 c 128,-1,15
 339 1220 339 1220 405 1314.5 c 128,-1,16
 471 1409 471 1409 553.5 1475.5 c 128,-1,17
 636 1542 636 1542 733.5 1578 c 128,-1,18
 831 1614 831 1614 940 1614 c 0,19,20
 1009 1614 1009 1614 1071.5 1598 c 128,-1,21
 1134 1582 1134 1582 1185 1550.5 c 128,-1,22
 1236 1519 1236 1519 1273.5 1471.5 c 128,-1,23
 1311 1424 1311 1424 1330 1360 c 1,24,-1
 1353 1586 l 1,25,-1
 2267 1586 l 1,26,-1
 2242 1420 l 1,27,-1
 1544 1420 l 1,28,-1
 1472 907 l 1,29,-1
 2086 907 l 1,30,-1
 2067 764 l 1,31,-1
 1452 764 l 1,32,-1
 1368 165 l 1,33,-1
 2085 165 l 1,34,-1
 2059 0 l 1,0,-1
1249 1004 m 0,35,36
 1249 1097 1249 1097 1233 1175.5 c 128,-1,37
 1217 1254 1217 1254 1178.5 1311 c 128,-1,38
 1140 1368 1140 1368 1077 1400 c 128,-1,39
 1014 1432 1014 1432 921 1432 c 0,40,41
 836 1432 836 1432 766 1398 c 128,-1,42
 696 1364 696 1364 640 1304 c 128,-1,43
 584 1244 584 1244 542.5 1162 c 128,-1,44
 501 1080 501 1080 473.5 983.5 c 128,-1,45
 446 887 446 887 432.5 780 c 128,-1,46
 419 673 419 673 419 564 c 0,47,48
 419 142 419 142 744 142 c 0,49,50
 828 142 828 142 898.5 175.5 c 128,-1,51
 969 209 969 209 1025 268 c 128,-1,52
 1081 327 1081 327 1123 408 c 128,-1,53
 1165 489 1165 489 1193 585 c 128,-1,54
 1221 681 1221 681 1235 787.5 c 128,-1,55
 1249 894 1249 894 1249 1004 c 0,35,36
EndSplineSet
EndChar

StartChar: oe
Encoding: 339 339 256
Width: 1830
Flags: W
HStem: -20 169<436.077 748.844 1228.28 1561.27> 528 127<1170 1617.84> 999 162<566.861 867.768 1325.52 1635.53>
VStem: 152 203<236.065 713.936> 956 214<655 814.085> 1682 168<683.371 951.429>
LayerCount: 2
Fore
SplineSet
1152 528 m 1,0,1
 1147 486 1147 486 1146 450.5 c 128,-1,2
 1145 415 1145 415 1147 384 c 0,3,4
 1150 320 1150 320 1168 275.5 c 128,-1,5
 1186 231 1186 231 1217 203 c 128,-1,6
 1248 175 1248 175 1292 162 c 128,-1,7
 1336 149 1336 149 1391 149 c 0,8,9
 1540 149 1540 149 1677 257 c 1,10,-1
 1717 100 l 1,11,12
 1672 71 1672 71 1621.5 48.5 c 128,-1,13
 1571 26 1571 26 1521 11 c 128,-1,14
 1471 -4 1471 -4 1424.5 -12 c 128,-1,15
 1378 -20 1378 -20 1341 -20 c 0,16,17
 1276 -20 1276 -20 1217.5 -3.5 c 128,-1,18
 1159 13 1159 13 1114 45 c 128,-1,19
 1069 77 1069 77 1040.5 123 c 128,-1,20
 1012 169 1012 169 1007 228 c 1,21,22
 931 123 931 123 846 66.5 c 128,-1,23
 761 10 761 10 662 -8 c 0,24,25
 629 -13 629 -13 596 -15 c 128,-1,26
 563 -17 563 -17 530 -15 c 0,27,28
 444 -11 444 -11 374.5 21.5 c 128,-1,29
 305 54 305 54 255.5 111 c 128,-1,30
 206 168 206 168 179 248.5 c 128,-1,31
 152 329 152 329 152 429 c 0,32,33
 152 503 152 503 164.5 586 c 128,-1,34
 177 669 177 669 205.5 750.5 c 128,-1,35
 234 832 234 832 279.5 906 c 128,-1,36
 325 980 325 980 391 1037 c 128,-1,37
 457 1094 457 1094 545 1127.5 c 128,-1,38
 633 1161 633 1161 746 1161 c 0,39,40
 823 1161 823 1161 882.5 1139.5 c 128,-1,41
 942 1118 942 1118 985 1082.5 c 128,-1,42
 1028 1047 1028 1047 1053.5 1002 c 128,-1,43
 1079 957 1079 957 1088 909 c 1,44,45
 1124 975 1124 975 1173 1023 c 128,-1,46
 1222 1071 1222 1071 1277 1101.5 c 128,-1,47
 1332 1132 1332 1132 1389.5 1146.5 c 128,-1,48
 1447 1161 1447 1161 1500 1161 c 0,49,50
 1680 1161 1680 1161 1765 1071.5 c 128,-1,51
 1850 982 1850 982 1850 804 c 0,52,53
 1850 750 1850 750 1842.5 706.5 c 128,-1,54
 1835 663 1835 663 1824 626 c 1,55,56
 1689 578 1689 578 1521 554 c 128,-1,57
 1353 530 1353 530 1152 528 c 1,0,1
591 141 m 1,58,59
 659 145 659 145 712.5 171.5 c 128,-1,60
 766 198 766 198 806.5 240.5 c 128,-1,61
 847 283 847 283 875.5 338.5 c 128,-1,62
 904 394 904 394 922 455 c 128,-1,63
 940 516 940 516 948 580 c 128,-1,64
 956 644 956 644 956 704 c 0,65,66
 956 768 956 768 944 822 c 128,-1,67
 932 876 932 876 904.5 915.5 c 128,-1,68
 877 955 877 955 832.5 977 c 128,-1,69
 788 999 788 999 722 999 c 0,70,71
 652 999 652 999 597.5 972 c 128,-1,72
 543 945 543 945 502 900 c 128,-1,73
 461 855 461 855 433 796.5 c 128,-1,74
 405 738 405 738 387.5 675 c 128,-1,75
 370 612 370 612 362.5 549 c 128,-1,76
 355 486 355 486 355 433 c 0,77,78
 355 370 355 370 367 317 c 128,-1,79
 379 264 379 264 406.5 225 c 128,-1,80
 434 186 434 186 479.5 164 c 128,-1,81
 525 142 525 142 591 141 c 1,58,59
1170 655 m 1,82,83
 1224 655 1224 655 1285.5 656 c 128,-1,84
 1347 657 1347 657 1411.5 659.5 c 128,-1,85
 1476 662 1476 662 1540.5 667.5 c 128,-1,86
 1605 673 1605 673 1664 682 c 1,87,88
 1674 726 1674 726 1678 753.5 c 128,-1,89
 1682 781 1682 781 1682 804 c 0,90,91
 1682 903 1682 903 1637.5 955 c 128,-1,92
 1593 1007 1593 1007 1512 1007 c 0,93,94
 1364 1007 1364 1007 1279 913.5 c 128,-1,95
 1194 820 1194 820 1170 655 c 1,82,83
EndSplineSet
EndChar

StartChar: florin
Encoding: 402 402 297
Width: 753
Flags: W
HStem: -296 161<-23.5884 172.772> 993 97<222 362 576 856> 1424 170<658.991 872.031>
DStem2: 255 240 456 256 0.140932 0.990019<-330.769 760.564 886.756 1188.36>
LayerCount: 2
Fore
SplineSet
757 1424 m 0,0,1
 724 1424 724 1424 697 1412 c 128,-1,2
 670 1400 670 1400 647.5 1364 c 128,-1,3
 625 1328 625 1328 607.5 1262.5 c 128,-1,4
 590 1197 590 1197 576 1090 c 1,5,-1
 868 1090 l 1,6,-1
 856 993 l 1,7,-1
 563 993 l 1,8,-1
 456 256 l 2,9,10
 432 89 432 89 395.5 -18.5 c 128,-1,11
 359 -126 359 -126 310.5 -187.5 c 128,-1,12
 262 -249 262 -249 200.5 -272.5 c 128,-1,13
 139 -296 139 -296 64 -296 c 0,14,15
 24 -296 24 -296 -9 -282 c 128,-1,16
 -42 -268 -42 -268 -66 -251.5 c 128,-1,17
 -90 -235 -90 -235 -103 -220.5 c 128,-1,18
 -116 -206 -116 -206 -116 -205 c 2,19,-1
 -52 -64 l 1,20,21
 -40 -78 -40 -78 -22.5 -91 c 128,-1,22
 -5 -104 -5 -104 14 -114 c 128,-1,23
 33 -124 33 -124 52 -129.5 c 128,-1,24
 71 -135 71 -135 85 -135 c 0,25,26
 117 -135 117 -135 141 -122 c 128,-1,27
 165 -109 165 -109 185 -69 c 128,-1,28
 205 -29 205 -29 221.5 44.5 c 128,-1,29
 238 118 238 118 255 240 c 2,30,-1
 362 993 l 1,31,-1
 210 993 l 1,32,-1
 222 1090 l 1,33,-1
 376 1090 l 1,34,35
 396 1236 396 1236 431.5 1333 c 128,-1,36
 467 1430 467 1430 516.5 1488 c 128,-1,37
 566 1546 566 1546 628 1570 c 128,-1,38
 690 1594 690 1594 763 1594 c 0,39,40
 799 1594 799 1594 831 1583 c 128,-1,41
 863 1572 863 1572 888 1558 c 128,-1,42
 913 1544 913 1544 929.5 1531.5 c 128,-1,43
 946 1519 946 1519 952 1516 c 1,44,-1
 889 1363 l 1,45,46
 831 1424 831 1424 757 1424 c 0,0,1
EndSplineSet
EndChar

StartChar: circumflex
Encoding: 710 710 313
Width: 886
Flags: W
HStem: 79 557<410 447>
VStem: 550 164<79 243>
DStem2: 122 79 305 79 0.503967 0.863723<92.226 458.108> 587 636 486 397 0.222302 -0.974978<210.567 534.837>
LayerCount: 2
Fore
SplineSet
447 636 m 1,0,-1
 587 636 l 1,1,-1
 714 79 l 1,2,-1
 550 79 l 1,3,-1
 486 397 l 1,4,-1
 305 79 l 1,5,-1
 122 79 l 1,6,-1
 447 636 l 1,0,-1
EndSplineSet
EndChar

StartChar: caron
Encoding: 711 711 314
Width: 886
Flags: W
HStem: 108 558<318 363>
VStem: 200 163<503 666>
DStem2: 363 666 200 666 0.206894 -0.978363<0 324.568> 428 348 458 108 0.513591 0.858035<0 365.815>
LayerCount: 2
Fore
SplineSet
458 108 m 1,0,-1
 318 108 l 1,1,-1
 200 666 l 1,2,-1
 363 666 l 1,3,-1
 428 348 l 1,4,-1
 609 666 l 1,5,-1
 792 666 l 1,6,-1
 458 108 l 1,0,-1
EndSplineSet
EndChar

StartChar: ring
Encoding: 730 730 315
Width: 689
Flags: W
HStem: 128 102<260.398 441.209> 502 101<279.571 459.607>
VStem: 126 109<256.412 457.067> 486 111<275.224 467.965>
LayerCount: 2
Fore
SplineSet
378 502 m 0,0,1
 348 502 348 502 322 489 c 128,-1,2
 296 476 296 476 276.5 454 c 128,-1,3
 257 432 257 432 246 404 c 128,-1,4
 235 376 235 376 235 345 c 0,5,6
 236 296 236 296 264.5 263 c 128,-1,7
 293 230 293 230 344 230 c 0,8,9
 373 230 373 230 399 243 c 128,-1,10
 425 256 425 256 444.5 278 c 128,-1,11
 464 300 464 300 475 328.5 c 128,-1,12
 486 357 486 357 486 388 c 0,13,14
 485 436 485 436 455.5 469 c 128,-1,15
 426 502 426 502 378 502 c 0,0,1
126 327 m 0,16,17
 126 384 126 384 147.5 434 c 128,-1,18
 169 484 169 484 206 521.5 c 128,-1,19
 243 559 243 559 291.5 581 c 128,-1,20
 340 603 340 603 393 603 c 0,21,22
 437 603 437 603 474 587.5 c 128,-1,23
 511 572 511 572 538 544.5 c 128,-1,24
 565 517 565 517 580.5 480.5 c 128,-1,25
 596 444 596 444 597 402 c 0,26,27
 598 345 598 345 576.5 295 c 128,-1,28
 555 245 555 245 518.5 208 c 128,-1,29
 482 171 482 171 433.5 149.5 c 128,-1,30
 385 128 385 128 331 128 c 0,31,32
 287 128 287 128 249.5 143 c 128,-1,33
 212 158 212 158 184.5 184 c 128,-1,34
 157 210 157 210 141.5 246.5 c 128,-1,35
 126 283 126 283 126 327 c 0,16,17
EndSplineSet
EndChar

StartChar: tilde
Encoding: 732 732 316
Width: 846
Flags: W
HStem: 127 165<471.875 651.787> 255 163<198.566 372.736>
VStem: 32 158<153 250.652> 659 159<295.314 388>
DStem2: 359 398.5 327 235 0.879951 -0.475065<-16.4091 250.258>
LayerCount: 2
Fore
SplineSet
603 127 m 0,0,1
 551 127 551 127 502 147 c 128,-1,2
 453 167 453 167 408.5 191 c 128,-1,3
 364 215 364 215 327 235 c 128,-1,4
 290 255 290 255 262 255 c 0,5,6
 248 255 248 255 235.5 251.5 c 128,-1,7
 223 248 223 248 213 237.5 c 128,-1,8
 203 227 203 227 197 207 c 128,-1,9
 191 187 191 187 190 153 c 1,10,-1
 32 153 l 1,11,12
 34 220 34 220 52 270 c 128,-1,13
 70 320 70 320 100.5 353 c 128,-1,14
 131 386 131 386 172.5 402 c 128,-1,15
 214 418 214 418 263 418 c 0,16,17
 315 418 315 418 359 398.5 c 128,-1,18
 403 379 403 379 442 355 c 128,-1,19
 481 331 481 331 516.5 311.5 c 128,-1,20
 552 292 552 292 587 292 c 0,21,22
 604 292 604 292 617 295.5 c 128,-1,23
 630 299 630 299 639 309.5 c 128,-1,24
 648 320 648 320 653 339 c 128,-1,25
 658 358 658 358 659 388 c 1,26,-1
 818 388 l 1,27,28
 816 317 816 317 798.5 267.5 c 128,-1,29
 781 218 781 218 752 187 c 128,-1,30
 723 156 723 156 684.5 141.5 c 128,-1,31
 646 127 646 127 603 127 c 0,0,1
EndSplineSet
EndChar

StartChar: acutecomb
Encoding: 769 769 317
Width: 781
Flags: W
HStem: 128 639
VStem: 271 464
LayerCount: 2
Fore
SplineSet
420 128 m 1,0,-1
 271 128 l 1,1,-1
 459 767 l 1,2,-1
 735 767 l 1,3,-1
 420 128 l 1,0,-1
EndSplineSet
EndChar

StartChar: uni0306
Encoding: 774 774 318
Width: 859
Flags: W
HStem: 90 118<395.153 593.508>
VStem: 237 135<227.38 351> 642 124<252.807 351>
LayerCount: 2
Fore
SplineSet
774 351 m 1,0,1
 772 342 772 342 770.5 333.5 c 128,-1,2
 769 325 769 325 766 316 c 0,3,4
 741 207 741 207 668.5 148.5 c 128,-1,5
 596 90 596 90 467 90 c 0,6,7
 347 90 347 90 292.5 141 c 128,-1,8
 238 192 238 192 237 288 c 0,9,10
 236 302 236 302 237.5 318 c 128,-1,11
 239 334 239 334 241 351 c 1,12,-1
 375 351 l 1,13,14
 372 334 372 334 372 321 c 0,15,16
 371 299 371 299 377.5 282.5 c 128,-1,17
 384 266 384 266 395 253 c 1,18,19
 419 208 419 208 487 208 c 0,20,21
 551 208 551 208 591 244.5 c 128,-1,22
 631 281 631 281 642 351 c 1,23,-1
 774 351 l 1,0,1
EndSplineSet
EndChar

StartChar: afii10051
Encoding: 1026 1026 321
Width: 1516
Flags: W
HStem: -240 171<792 1044.05> 0 21G<410 637.899> 1032 165<965.688 1223.92> 1417 170<219 614 840 1264>
VStem: 410 225<0 225>
DStem2: 410 0 635 0 0.143181 0.989696<32.2158 978.732 1050.73 1431.61> 1196 266.5 1414 255 0.132842 0.991137<-222.069 693.771>
LayerCount: 2
Fore
SplineSet
792 -78 m 1,0,1
 822 -77 822 -77 849.5 -75.5 c 128,-1,2
 877 -74 877 -74 901 -69 c 0,3,4
 905 -69 905 -69 908.5 -69.5 c 128,-1,5
 912 -70 912 -70 917 -70 c 0,6,7
 1011 -56 1011 -56 1072.5 -5 c 128,-1,8
 1134 46 1134 46 1167 148 c 0,9,10
 1176 178 1176 178 1183 205.5 c 128,-1,11
 1190 233 1190 233 1196 266.5 c 128,-1,12
 1202 300 1202 300 1208.5 342.5 c 128,-1,13
 1215 385 1215 385 1223 444.5 c 128,-1,14
 1231 504 1231 504 1241 584.5 c 128,-1,15
 1251 665 1251 665 1265 774 c 0,16,17
 1268 797 1268 797 1269.5 814 c 128,-1,18
 1271 831 1271 831 1272 837 c 1,19,20
 1272 894 1272 894 1257 933 c 1,21,22
 1225 1032 1225 1032 1106 1032 c 0,23,24
 1053 1032 1053 1032 1002.5 1019 c 128,-1,25
 952 1006 952 1006 907.5 985 c 128,-1,26
 863 964 863 964 826.5 939 c 128,-1,27
 790 914 790 914 764 890 c 1,28,-1
 635 0 l 1,29,-1
 410 0 l 1,30,-1
 614 1417 l 1,31,-1
 193 1417 l 1,32,-1
 219 1587 l 1,33,-1
 1288 1587 l 1,34,-1
 1264 1417 l 1,35,-1
 840 1417 l 1,36,-1
 781 1008 l 1,37,38
 832 1061 832 1061 878.5 1097 c 128,-1,39
 925 1133 925 1133 971.5 1155.5 c 128,-1,40
 1018 1178 1018 1178 1065.5 1187.5 c 128,-1,41
 1113 1197 1113 1197 1167 1197 c 0,42,43
 1326 1197 1326 1197 1408 1115.5 c 128,-1,44
 1490 1034 1490 1034 1492 868 c 0,45,46
 1493 854 1493 854 1491 829.5 c 128,-1,47
 1489 805 1489 805 1484 773 c 1,48,49
 1479 731 1479 731 1472.5 679.5 c 128,-1,50
 1466 628 1466 628 1459 574 c 128,-1,51
 1452 520 1452 520 1444.5 467 c 128,-1,52
 1437 414 1437 414 1431 370 c 128,-1,53
 1425 326 1425 326 1420.5 295.5 c 128,-1,54
 1416 265 1416 265 1414 255 c 0,55,56
 1383 35 1383 35 1259.5 -88 c 128,-1,57
 1136 -211 1136 -211 928 -236 c 1,58,59
 886 -240 886 -240 845.5 -240 c 128,-1,60
 805 -240 805 -240 765 -235 c 1,61,-1
 792 -78 l 1,0,1
EndSplineSet
EndChar

StartChar: afii10052
Encoding: 1027 1027 322
Width: 1152
Flags: W
HStem: 0 21G<128 355.811> 1423 163<553 1281>
VStem: 128 225<0 225>
DStem2: 128 0 353 0 0.139236 0.990259<31.328 1468.31>
LayerCount: 2
Fore
SplineSet
598 1717 m 1,0,-1
 812 2340 l 1,1,-1
 1066 2306 l 1,2,-1
 733 1700 l 1,3,-1
 598 1717 l 1,0,-1
1303 1586 m 1,4,-1
 1281 1423 l 1,5,-1
 553 1423 l 1,6,-1
 353 0 l 1,7,-1
 128 0 l 1,8,-1
 351 1586 l 1,9,-1
 1303 1586 l 1,4,-1
EndSplineSet
EndChar

StartChar: afii10053
Encoding: 1028 1028 323
Width: 1190
Flags: W
HStem: -39 180<578.096 992.242> 722 140<463 1069> 1434.5 181.5<777.925 1227.17>
VStem: 197 232<309.315 720.502>
LayerCount: 2
Fore
SplineSet
201 593 m 1,0,1
 206 731 206 731 232 861 c 128,-1,2
 258 991 258 991 304.5 1104.5 c 128,-1,3
 351 1218 351 1218 418 1312 c 128,-1,4
 485 1406 485 1406 572.5 1473.5 c 128,-1,5
 660 1541 660 1541 767 1578.5 c 128,-1,6
 874 1616 874 1616 1001 1616 c 0,7,8
 1073 1616 1073 1616 1142.5 1603 c 128,-1,9
 1212 1590 1212 1590 1275 1569 c 0,10,11
 1302 1561 1302 1561 1329.5 1551 c 128,-1,12
 1357 1541 1357 1541 1386 1527 c 1,13,-1
 1303 1355 l 1,14,15
 1220 1399 1220 1399 1146 1415.5 c 128,-1,16
 1072 1432 1072 1432 1008 1434 c 1,17,18
 983 1436 983 1436 958.5 1434.5 c 128,-1,19
 934 1433 934 1433 910 1430 c 0,20,21
 828 1419 828 1419 758 1380 c 128,-1,22
 688 1341 688 1341 631.5 1271 c 128,-1,23
 575 1201 575 1201 532.5 1099.5 c 128,-1,24
 490 998 490 998 463 862 c 1,25,-1
 1092 862 l 1,26,-1
 1069 722 l 1,27,-1
 440 722 l 1,28,29
 435 674 435 674 431.5 632.5 c 128,-1,30
 428 591 428 591 429 552 c 0,31,32
 430 461 430 461 448 385.5 c 128,-1,33
 466 310 466 310 504.5 255.5 c 128,-1,34
 543 201 543 201 603 171 c 128,-1,35
 663 141 663 141 749 141 c 0,36,37
 846 141 846 141 942.5 169.5 c 128,-1,38
 1039 198 1039 198 1139 249 c 1,39,-1
 1176 81 l 1,40,41
 1135 60 1135 60 1085.5 38.5 c 128,-1,42
 1036 17 1036 17 979.5 0 c 128,-1,43
 923 -17 923 -17 859.5 -28 c 128,-1,44
 796 -39 796 -39 726 -39 c 0,45,46
 595 -39 595 -39 496.5 0 c 128,-1,47
 398 39 398 39 332 112.5 c 128,-1,48
 266 186 266 186 232 292.5 c 128,-1,49
 198 399 198 399 197 534 c 0,50,51
 197 548 197 548 198 562 c 128,-1,52
 199 576 199 576 201 593 c 1,0,1
EndSplineSet
EndChar

StartChar: afii10058
Encoding: 1033 1033 328
Width: 2470
Flags: W
HStem: -16 190<66 289.724> 0 162<1585 2057.67> 801 163<1702 2108.55> 1423 163<875 1542>
VStem: 2256 218<339.423 685.801>
DStem2: 473 495 704 538.5 0.183799 0.982964<-208.732 986.078> 1337 0 1585 162 0.143853 0.989599<195.991 841.579 1006.48 1437.69>
LayerCount: 2
Fore
SplineSet
1583 0 m 1,0,-1
 1337 0 l 1,1,-1
 1542 1423 l 1,2,-1
 875 1423 l 1,3,-1
 756 790 l 2,4,5
 730 652 730 652 704 538.5 c 128,-1,6
 678 425 678 425 642.5 335.5 c 128,-1,7
 607 246 607 246 558.5 180 c 128,-1,8
 510 114 510 114 438.5 70.5 c 128,-1,9
 367 27 367 27 268.5 5.5 c 128,-1,10
 170 -16 170 -16 36 -16 c 1,11,-1
 66 174 l 1,12,13
 166 178 166 178 235.5 198 c 128,-1,14
 305 218 305 218 351.5 257 c 128,-1,15
 398 296 398 296 426.5 355 c 128,-1,16
 455 414 455 414 473 495 c 0,17,18
 490 576 490 576 506 661 c 128,-1,19
 522 746 522 746 540 842 c 2,20,-1
 677 1586 l 1,21,-1
 1792 1586 l 1,22,-1
 1702 964 l 1,23,-1
 1831 964 l 2,24,25
 1999 964 1999 964 2120 940.5 c 128,-1,26
 2241 917 2241 917 2319 870 c 128,-1,27
 2397 823 2397 823 2435 751 c 128,-1,28
 2473 679 2473 679 2474 582 c 0,29,30
 2475 426 2475 426 2425 314.5 c 128,-1,31
 2375 203 2375 203 2284 134 c 0,32,33
 2186 60 2186 60 2044.5 29.5 c 128,-1,34
 1903 -1 1903 -1 1721 -1 c 1,35,-1
 1583 0 l 1,0,-1
2256 547 m 0,36,37
 2257 589 2257 589 2245 626 c 0,38,39
 2227 682 2227 682 2181 716.5 c 128,-1,40
 2135 751 2135 751 2073.5 769.5 c 128,-1,41
 2012 788 2012 788 1942 794.5 c 128,-1,42
 1872 801 1872 801 1806 801 c 2,43,-1
 1677 801 l 1,44,-1
 1585 162 l 1,45,-1
 1753 162 l 2,46,47
 1900 162 1900 162 1996 186 c 128,-1,48
 2092 210 2092 210 2148.5 258.5 c 128,-1,49
 2205 307 2205 307 2229 379 c 128,-1,50
 2253 451 2253 451 2256 547 c 0,36,37
EndSplineSet
EndChar

StartChar: afii10059
Encoding: 1034 1034 329
Width: 2210
Flags: W
HStem: 0 162<1327 1809.88> 753 142<478 1185> 801 164<1441 1853.44> 1566 20G<348.188 576 1299.19 1528>
VStem: 128 225<0 225> 351 225<1361 1586> 1302 226<1360 1586> 1996 215<327.498 689.512>
DStem2: 128 0 353 0 0.139236 0.990259<31.328 791.613 935.015 1601.6> 1080 0 1327 162 0.138623 0.990345<194.676 760.285 1005.73 1601.46>
LayerCount: 2
Fore
SplineSet
1326 0 m 1,0,-1
 1080 0 l 1,1,-1
 1185 753 l 1,2,-1
 458 753 l 1,3,-1
 353 0 l 1,4,-1
 128 0 l 1,5,-1
 351 1586 l 1,6,-1
 576 1586 l 1,7,-1
 478 895 l 1,8,-1
 1205 895 l 1,9,-1
 1302 1586 l 1,10,-1
 1528 1586 l 1,11,-1
 1441 965 l 1,12,-1
 1569 965 l 2,13,14
 1852 965 1852 965 2007 897.5 c 128,-1,15
 2162 830 2162 830 2197 685 c 1,16,17
 2215 619 2215 619 2211 547 c 0,18,19
 2204 391 2204 391 2150 286.5 c 128,-1,20
 2096 182 2096 182 2000 118 c 128,-1,21
 1904 54 1904 54 1768.5 27 c 128,-1,22
 1633 0 1633 0 1463 0 c 2,23,-1
 1326 0 l 1,0,-1
1996 555 m 0,24,25
 1998 603 1998 603 1983 635 c 1,26,27
 1964 690 1964 690 1917.5 723 c 128,-1,28
 1871 756 1871 756 1809.5 773 c 128,-1,29
 1748 790 1748 790 1678.5 795.5 c 128,-1,30
 1609 801 1609 801 1545 801 c 2,31,-1
 1416 801 l 1,32,-1
 1327 162 l 1,33,-1
 1495 162 l 2,34,35
 1652 162 1652 162 1749 186.5 c 128,-1,36
 1846 211 1846 211 1900 260 c 128,-1,37
 1954 309 1954 309 1973.5 383 c 128,-1,38
 1993 457 1993 457 1996 555 c 0,24,25
EndSplineSet
EndChar

StartChar: afii10060
Encoding: 1035 1035 330
Width: 1479
Flags: W
HStem: 0 21G<410 637.929 1155 1383.5> 799 164<775 1193.23> 1415 171<224 614 839 1269>
VStem: 410 225<0 225> 1239 219.5<475.055 752.253>
DStem2: 410 0 635 0 0.142694 0.989767<32.1062 839.625 1005.23 1429.63> 1155 0 1376 0 0.141931 0.989877<31.3667 625.273>
LayerCount: 2
Fore
SplineSet
635 0 m 1,0,-1
 410 0 l 1,1,-1
 614 1415 l 1,2,-1
 199 1415 l 1,3,-1
 224 1586 l 1,4,-1
 1294 1586 l 1,5,-1
 1269 1415 l 1,6,-1
 839 1415 l 1,7,-1
 775 963 l 1,8,-1
 1133 963 l 2,9,10
 1208 963 1208 963 1268 943.5 c 128,-1,11
 1328 924 1328 924 1370.5 883.5 c 128,-1,12
 1413 843 1413 843 1436 782 c 128,-1,13
 1459 721 1459 721 1459 639 c 1,14,15
 1460 621 1460 621 1458.5 599 c 128,-1,16
 1457 577 1457 577 1452 539 c 0,17,18
 1447 502 1447 502 1440 453.5 c 128,-1,19
 1433 405 1433 405 1424 340 c 128,-1,20
 1415 275 1415 275 1403 191.5 c 128,-1,21
 1391 108 1391 108 1376 0 c 1,22,-1
 1155 0 l 1,23,24
 1171 108 1171 108 1183.5 192.5 c 128,-1,25
 1196 277 1196 277 1205.5 342.5 c 128,-1,26
 1215 408 1215 408 1221.5 457 c 128,-1,27
 1228 506 1228 506 1233 544 c 0,28,29
 1238 576 1238 576 1238.5 592 c 128,-1,30
 1239 608 1239 608 1239 620 c 0,31,32
 1239 669 1239 669 1225.5 703 c 128,-1,33
 1212 737 1212 737 1189 758.5 c 128,-1,34
 1166 780 1166 780 1135 789.5 c 128,-1,35
 1104 799 1104 799 1070 799 c 2,36,-1
 752 799 l 1,37,-1
 635 0 l 1,0,-1
EndSplineSet
EndChar

StartChar: afii10062
Encoding: 1038 1038 333
Width: 1268
Flags: W
HStem: -141 154<243 414.715> 1566 20G<291 504.835 1092.43 1325> 1652 117<734.819 933.766>
VStem: 291 210<1376 1586> 577 134<1798.4 1913> 982 124<1813.86 1913>
DStem2: 514 240 697 236 0.152732 0.988268<-167.814 217.518>
LayerCount: 2
Fore
SplineSet
1114 1913 m 1,0,1
 1112 1903 1112 1903 1110.5 1894.5 c 128,-1,2
 1109 1886 1109 1886 1106 1877 c 0,3,4
 1081 1768 1081 1768 1008.5 1710 c 128,-1,5
 936 1652 936 1652 807 1652 c 0,6,7
 687 1652 687 1652 632.5 1703.5 c 128,-1,8
 578 1755 578 1755 577 1849 c 0,9,10
 576 1864 576 1864 577.5 1880 c 128,-1,11
 579 1896 579 1896 581 1913 c 1,12,-1
 715 1913 l 1,13,14
 713 1905 713 1905 712.5 1897.5 c 128,-1,15
 712 1890 712 1890 711 1883 c 0,16,17
 710 1826 710 1826 739.5 1797.5 c 128,-1,18
 769 1769 769 1769 826 1769 c 0,19,20
 892 1769 892 1769 931.5 1806 c 128,-1,21
 971 1843 971 1843 982 1913 c 1,22,-1
 1114 1913 l 1,0,1
673 689 m 1,23,-1
 1102 1586 l 1,24,-1
 1325 1586 l 1,25,-1
 731 456 l 1,26,-1
 697 236 l 2,27,28
 685 162 685 162 656.5 94 c 128,-1,29
 628 26 628 26 575 -26 c 128,-1,30
 522 -78 522 -78 441 -109.5 c 128,-1,31
 360 -141 360 -141 243 -141 c 1,32,-1
 208 13 l 1,33,34
 280 14 280 14 333 25.5 c 128,-1,35
 386 37 386 37 423 63 c 128,-1,36
 460 89 460 89 482 132 c 128,-1,37
 504 175 504 175 514 240 c 2,38,-1
 547 455 l 1,39,-1
 291 1586 l 1,40,-1
 501 1586 l 1,41,-1
 673 689 l 1,23,-1
EndSplineSet
EndChar

StartChar: afii10145
Encoding: 1039 1039 334
Width: 1459
Flags: W
HStem: -406 21G<569 781.808> 0 162<375 627 836 1111> 1566 20G<348.188 576 1309.18 1537>
VStem: 351 225<1361 1586> 569 210<-406 -196> 1312 225<1361 1586>
DStem2: 128 0 375 162 0.139236 0.990259<194.813 1601.6> 569 -406 779 -406 0.141421 0.989949<29.6985 410.122> 1111 162 1314 0 0.139236 0.990259<0 1438.12>
LayerCount: 2
Fore
SplineSet
1314 0 m 1,0,-1
 836 0 l 1,1,-1
 779 -406 l 1,2,-1
 569 -406 l 1,3,-1
 627 0 l 1,4,-1
 128 0 l 1,5,-1
 351 1586 l 1,6,-1
 576 1586 l 1,7,-1
 375 162 l 1,8,-1
 1111 162 l 1,9,-1
 1312 1586 l 1,10,-1
 1537 1586 l 1,11,-1
 1314 0 l 1,0,-1
EndSplineSet
EndChar

StartChar: afii10018
Encoding: 1041 1041 336
Width: 1283
Flags: W
HStem: 0 161<375 842.425> 800 164<489 907.1> 1433 153<554 1259>
VStem: 1043 226<340.831 555.572>
DStem2: 128 0 375 161 0.137398 0.990516<193.41 838.853 1004.46 1477.94>
LayerCount: 2
Fore
SplineSet
1267 549 m 1,0,1
 1268 514 1268 514 1264.5 482 c 128,-1,2
 1261 450 1261 450 1254 421 c 0,3,4
 1228 297 1228 297 1163 216 c 128,-1,5
 1098 135 1098 135 1001 87 c 128,-1,6
 904 39 904 39 778 19.5 c 128,-1,7
 652 0 652 0 504 0 c 2,8,-1
 128 0 l 1,9,-1
 348 1586 l 1,10,-1
 1281 1586 l 1,11,-1
 1259 1433 l 1,12,-1
 554 1433 l 1,13,-1
 489 964 l 1,14,-1
 610 964 l 2,15,16
 770 964 770 964 892 941 c 128,-1,17
 1014 918 1014 918 1097.5 870.5 c 128,-1,18
 1181 823 1181 823 1224 750.5 c 128,-1,19
 1267 678 1267 678 1269 578 c 0,20,21
 1269 571 1269 571 1269 564 c 128,-1,22
 1269 557 1269 557 1267 549 c 1,0,1
540 800 m 1,23,-1
 466 800 l 1,24,-1
 375 161 l 1,25,-1
 550 161 l 2,26,27
 670 161 670 161 757.5 180 c 128,-1,28
 845 199 845 199 904 238 c 128,-1,29
 963 277 963 277 996 337 c 128,-1,30
 1029 397 1029 397 1039 480 c 0,31,32
 1041 498 1041 498 1042.5 515.5 c 128,-1,33
 1044 533 1044 533 1043 553 c 0,34,35
 1042 610 1042 610 1022.5 650.5 c 128,-1,36
 1003 691 1003 691 969.5 718.5 c 128,-1,37
 936 746 936 746 892.5 762 c 128,-1,38
 849 778 849 778 800.5 786.5 c 128,-1,39
 752 795 752 795 700.5 797.5 c 128,-1,40
 649 800 649 800 601 800 c 2,41,-1
 540 800 l 1,23,-1
EndSplineSet
EndChar

StartChar: afii10020
Encoding: 1043 1043 338
Width: 1152
Flags: W
HStem: 0 21G<128 355.811> 1423 163<553 1281>
VStem: 128 225<0 225>
DStem2: 128 0 353 0 0.139236 0.990259<31.328 1468.31>
LayerCount: 2
Fore
SplineSet
1303 1586 m 1,0,-1
 1281 1423 l 1,1,-1
 553 1423 l 1,2,-1
 353 0 l 1,3,-1
 128 0 l 1,4,-1
 351 1586 l 1,5,-1
 1303 1586 l 1,0,-1
EndSplineSet
EndChar

StartChar: afii10021
Encoding: 1044 1044 339
Width: 1634
Flags: W
HStem: -17 155<502 1284> 1437 149<850 1466>
VStem: 94 223<-365 -142> 1292 220<-365 -145>
DStem2: 94 -365 317 -365 0.137837 0.990455<30.7376 382.308> 553.5 930 766.5 847.5 0.138144 0.990412<-457.202 543.099> 1284 138 1514 165 0.138005 0.990431<58.4829 1311.69> 1292 -365 1512 -365 0.141709 0.989908<31.176 351.432>
LayerCount: 2
Fore
SplineSet
1514 165 m 1,0,-1
 1581 117 l 1,1,-1
 1512 -365 l 1,2,-1
 1292 -365 l 1,3,-1
 1341 -17 l 1,4,-1
 367 -17 l 1,5,-1
 317 -365 l 1,6,-1
 94 -365 l 1,7,-1
 164 138 l 1,8,9
 232 138 232 138 277 183 c 1,10,11
 322 238 322 238 357.5 296.5 c 128,-1,12
 393 355 393 355 421 419.5 c 128,-1,13
 449 484 449 484 471 555.5 c 128,-1,14
 493 627 493 627 511 707 c 0,15,16
 535 813 535 813 553.5 930 c 128,-1,17
 572 1047 572 1047 590 1182 c 2,18,-1
 645 1586 l 1,19,-1
 1712 1586 l 1,20,-1
 1514 165 l 1,0,-1
1284 138 m 1,21,-1
 1466 1437 l 1,22,-1
 850 1437 l 1,23,-1
 806 1112 l 2,24,25
 788 978 788 978 766.5 847.5 c 128,-1,26
 745 717 745 717 711 593 c 128,-1,27
 677 469 677 469 627 354 c 128,-1,28
 577 239 577 239 502 138 c 1,29,-1
 1284 138 l 1,21,-1
EndSplineSet
EndChar

StartChar: afii10024
Encoding: 1046 1046 341
Width: 1935
Flags: W
HStem: 0 21G<22 273.64 880 1107.78 1716.95 1963> 734 135<845 982 1227 1358> 1566 20G<306 540.731 1100.18 1328 1884.66 2139>
VStem: 22 236<0 236> 880 225<0 225> 1103 225<1361 1586>
DStem2: 22 0 258 0 0.616019 0.787731<145.38 1027.24> 532 1586 306 1586 0.400081 -0.91648<0 757.927> 880 0 1105 0 0.139236 0.990259<31.328 741.052 908.85 1601.6> 1963 0 1358 734 0.44916 -0.893451<-894.128 -106.002>
LayerCount: 2
Fore
SplineSet
982 734 m 1,0,-1
 832 734 l 1,1,-1
 258 0 l 1,2,-1
 22 0 l 1,3,-1
 553 656 l 1,4,5
 603 715 603 715 647 752.5 c 128,-1,6
 691 790 691 790 742 801 c 1,7,8
 716 809 716 809 695.5 821 c 128,-1,9
 675 833 675 833 657 850.5 c 128,-1,10
 639 868 639 868 622.5 892.5 c 128,-1,11
 606 917 606 917 588 950 c 1,12,-1
 306 1586 l 1,13,-1
 532 1586 l 1,14,-1
 845 869 l 1,15,-1
 1002 869 l 1,16,-1
 1103 1586 l 1,17,-1
 1328 1586 l 1,18,-1
 1227 869 l 1,19,-1
 1385 869 l 1,20,-1
 1899 1586 l 1,21,-1
 2139 1576 l 1,22,-1
 1660 952 l 2,23,24
 1634 919 1634 919 1611.5 894 c 128,-1,25
 1589 869 1589 869 1566.5 851 c 128,-1,26
 1544 833 1544 833 1520 821 c 128,-1,27
 1496 809 1496 809 1468 801 c 1,28,29
 1514 790 1514 790 1550 757.5 c 128,-1,30
 1586 725 1586 725 1621 665 c 1,31,-1
 1963 0 l 1,32,-1
 1727 0 l 1,33,-1
 1358 734 l 1,34,-1
 1207 734 l 1,35,-1
 1105 0 l 1,36,-1
 880 0 l 1,37,-1
 982 734 l 1,0,-1
EndSplineSet
EndChar

StartChar: afii10025
Encoding: 1047 1047 342
Width: 1465
Flags: W
HStem: -37 181<466.304 862.949> 721 169<601 905.351> 1434.5 180.5<638.51 1068.19>
VStem: 1020 211<303.367 618.293> 1124 205<1061.91 1377.97>
LayerCount: 2
Fore
SplineSet
946 807 m 1,0,1
 1019 798 1019 798 1073 763 c 1,2,3
 1142 728 1142 728 1185.5 656.5 c 128,-1,4
 1229 585 1229 585 1231 488 c 1,5,6
 1232 367 1232 367 1190.5 269 c 128,-1,7
 1149 171 1149 171 1080 105 c 0,8,9
 1005 33 1005 33 902.5 -2 c 128,-1,10
 800 -37 800 -37 676 -37 c 0,11,12
 592 -37 592 -37 513 -22.5 c 128,-1,13
 434 -8 434 -8 359 22 c 0,14,15
 336 32 336 32 313.5 42 c 128,-1,16
 291 52 291 52 274 62 c 1,17,-1
 356 237 l 1,18,19
 383 222 383 222 422.5 205.5 c 128,-1,20
 462 189 462 189 507.5 175.5 c 128,-1,21
 553 162 553 162 600.5 153 c 128,-1,22
 648 144 648 144 690 144 c 0,23,24
 768 144 768 144 829.5 171.5 c 128,-1,25
 891 199 891 199 933.5 245 c 128,-1,26
 976 291 976 291 998 352 c 128,-1,27
 1020 413 1020 413 1020 479 c 0,28,29
 1019 687 1019 687 767 715 c 0,30,31
 719 721 719 721 665 721 c 2,32,-1
 574 721 l 1,33,-1
 601 890 l 1,34,-1
 687 890 l 2,35,36
 711 890 711 890 734 891 c 128,-1,37
 757 892 757 892 779 895 c 0,38,39
 949 914 949 914 1037 1005.5 c 128,-1,40
 1125 1097 1125 1097 1124 1251 c 0,41,42
 1123 1337 1123 1337 1074.5 1384 c 128,-1,43
 1026 1431 1026 1431 915 1434 c 0,44,45
 896 1435 896 1435 876 1434.5 c 128,-1,46
 856 1434 856 1434 833 1432 c 0,47,48
 788 1429 788 1429 746.5 1420.5 c 128,-1,49
 705 1412 705 1412 668.5 1401.5 c 128,-1,50
 632 1391 632 1391 602.5 1379.5 c 128,-1,51
 573 1368 573 1368 553 1359 c 1,52,-1
 525 1526 l 1,53,54
 544 1536 544 1536 578.5 1549.5 c 128,-1,55
 613 1563 613 1563 657.5 1576 c 128,-1,56
 702 1589 702 1589 753.5 1599 c 128,-1,57
 805 1609 805 1609 857 1612 c 1,58,59
 899 1616 899 1616 938 1615 c 0,60,61
 1022 1614 1022 1614 1093 1594.5 c 128,-1,62
 1164 1575 1164 1575 1216 1534 c 128,-1,63
 1268 1493 1268 1493 1298 1430 c 128,-1,64
 1328 1367 1328 1367 1329 1279 c 0,65,66
 1330 1207 1330 1207 1313.5 1141.5 c 128,-1,67
 1297 1076 1297 1076 1265.5 1020.5 c 128,-1,68
 1234 965 1234 965 1189 921.5 c 128,-1,69
 1144 878 1144 878 1088 850 c 0,70,71
 1022 816 1022 816 946 807 c 1,0,1
EndSplineSet
EndChar

StartChar: afii10026
Encoding: 1048 1048 343
Width: 1505
Flags: W
HStem: 0 21G<128 345.727 1144 1362.8> 1566 20G<348.188 566 1265.14 1582>
VStem: 351 215<1371 1586> 1144 216<0 216>
DStem2: 128 0 343 0 0.139236 0.990259<29.9357 118.749 433.837 1601.6> 399 400 355 88 0.60941 0.792855<0 1333.93> 1144 0 1360 0 0.138623 0.990345<29.9426 1376.32>
LayerCount: 2
Fore
SplineSet
128 0 m 1,0,-1
 351 1586 l 1,1,-1
 566 1586 l 1,2,-1
 399 400 l 1,3,-1
 1280 1586 l 1,4,-1
 1582 1586 l 1,5,-1
 1360 0 l 1,6,-1
 1144 0 l 1,7,-1
 1335 1363 l 1,8,-1
 355 88 l 1,9,-1
 343 0 l 1,10,-1
 128 0 l 1,0,-1
EndSplineSet
EndChar

StartChar: afii10027
Encoding: 1049 1049 344
Width: 1505
Flags: W
HStem: 0 21G<128 345.727 1144 1362.8> 1566 20G<348.188 566 1265.14 1582> 1583 118<934.312 1133.63>
VStem: 351 215<1371 1586> 776 135<1730.91 1845> 1144 216<0 216> 1181 133<1743.4 1845>
DStem2: 128 0 343 0 0.139236 0.990259<29.9357 118.749 433.837 1601.6> 399 400 355 88 0.60941 0.792855<0 1333.93> 1144 0 1360 0 0.138623 0.990345<29.9426 1376.32>
LayerCount: 2
Fore
SplineSet
1314 1845 m 1,0,-1
 1306 1809 l 2,1,2
 1282 1701 1282 1701 1208.5 1642 c 128,-1,3
 1135 1583 1135 1583 1008 1583 c 0,4,5
 889 1583 889 1583 833.5 1634.5 c 128,-1,6
 778 1686 778 1686 776 1780 c 0,7,8
 776 1795 776 1795 777 1811.5 c 128,-1,9
 778 1828 778 1828 781 1845 c 1,10,-1
 914 1845 l 1,11,-1
 911 1814 l 1,12,13
 910 1759 910 1759 940 1730 c 128,-1,14
 970 1701 970 1701 1027 1701 c 0,15,16
 1093 1701 1093 1701 1131.5 1738 c 128,-1,17
 1170 1775 1170 1775 1181 1845 c 1,18,-1
 1314 1845 l 1,0,-1
128 0 m 1,19,-1
 351 1586 l 1,20,-1
 566 1586 l 1,21,-1
 399 400 l 1,22,-1
 1280 1586 l 1,23,-1
 1582 1586 l 1,24,-1
 1360 0 l 1,25,-1
 1144 0 l 1,26,-1
 1335 1363 l 1,27,-1
 355 88 l 1,28,-1
 343 0 l 1,29,-1
 128 0 l 1,19,-1
EndSplineSet
EndChar

